<svg fill="#000000" viewBox="0 0 64 64" xmlns="http://www.w3.org/2000/svg">
  <g id="SVGRepo_bgCarrier" stroke-width="0"></g>
  <g id="SVGRepo_tracerCarrier" stroke-linecap="round" stroke-linejoin="round"></g>
  <g id="SVGRepo_iconCarrier">
    <g data-name="28 calander" id="_28_calander">
      <path
        d="M15.64,25.01H10.98a1,1,0,0,0-1,1v4.66a1,1,0,0,0,1,1h4.66a1,1,0,0,0,1-1V26.01A1,1,0,0,0,15.64,25.01Zm-1,4.66H11.98V27.01h2.66Z"></path>
      <path
        d="M29.17,25.01H24.51a1,1,0,0,0-1,1v4.66a1,1,0,0,0,1,1h4.66a1,1,0,0,0,1-1V26.01A1,1,0,0,0,29.17,25.01Zm-1,4.66H25.51V27.01h2.66Z"></path>
      <path
        d="M42.7,25.01H38.04a1,1,0,0,0-1,1v4.66a1,1,0,0,0,1,1H42.7a1,1,0,0,0,1-1V26.01A1,1,0,0,0,42.7,25.01Zm-1,4.66H39.04V27.01H41.7Z"></path>
      <path
        d="M15.64,38.92H10.98a1,1,0,0,0-1,1v4.66a.99.99,0,0,0,1,1h4.66a1,1,0,0,0,1-1V39.92A1,1,0,0,0,15.64,38.92Zm-1,4.66H11.98V40.92h2.66Z"></path>
      <path
        transform="translate(13.5, 0)"
        d="M15.64,38.92H10.98a1,1,0,0,0-1,1v4.66a.99.99,0,0,0,1,1h4.66a1,1,0,0,0,1-1V39.92A1,1,0,0,0,15.64,38.92Zm-1,4.66H11.98V40.92h2.66Z"></path>
      <path
        d="M50.18,32.92V15.69a6.607,6.607,0,0,0-6.6-6.6H40.9V6.33a2.865,2.865,0,0,0-5.73,0V9.09H18.51V6.33a2.865,2.865,0,0,0-5.73,0V9.09H10.1a6.607,6.607,0,0,0-6.6,6.6V47.38a6.6,6.6,0,0,0,6.6,6.59H34.58a14.047,14.047,0,1,0,15.6-21.05ZM37.17,6.33a.846.846,0,0,1,.9-.83.828.828,0,0,1,.83.83v7.53a.834.834,0,0,1-.83.83H38a.834.834,0,0,1-.83-.83Zm-22.39,0a.846.846,0,0,1,.9-.83.828.828,0,0,1,.83.83v7.53a.834.834,0,0,1-.83.83h-.07a.834.834,0,0,1-.83-.83ZM5.5,15.69a4.6,4.6,0,0,1,4.6-4.6h2.68v2.77a2.834,2.834,0,0,0,2.83,2.83h.07a2.834,2.834,0,0,0,2.83-2.83V11.09H35.17v2.77A2.834,2.834,0,0,0,38,16.69h.07a2.834,2.834,0,0,0,2.83-2.83V11.09h2.68a4.6,4.6,0,0,1,4.6,4.6v3.66H5.5Zm4.6,36.28a4.6,4.6,0,0,1-4.6-4.59V21.35H48.18V32.52a14.252,14.252,0,0,0-1.74-.12A14.073,14.073,0,0,0,32.37,46.45a13.9,13.9,0,0,0,1.14,5.52ZM46.44,58.5A12.05,12.05,0,1,1,58.5,46.45,12.074,12.074,0,0,1,46.44,58.5Z"></path>
      <path
        transform="translate(-2, -30) scale(1.8)"
        d="M29.286,40.3,26.5,43.149,24.72,41.307a1,1,0,1,0-1.44,1.386l2.489,2.585a1,1,0,0,0,.716.307h0a1,1,0,0,0,.715-.3l3.51-3.585a1,1,0,1,0-1.428-1.4Z"></path>
    </g>
  </g>
</svg>