<?xml version="1.0" encoding="UTF-8" standalone="no"?>
<svg
   sodipodi:docname="cap.svg"
   transform="matrix(1, 0, 0, 1, 0, 0)"
   xml:space="preserve"
   enable-background="new 0 0 100 100"
   viewBox="0 0 100 100"
   id="Layer_1"
   version="1.1"
   width="256px"
   height="256px"
   fill="#008cb4"
   inkscape:version="1.2.2 (b0a84865, 2022-12-01)"
   xmlns:inkscape="http://www.inkscape.org/namespaces/inkscape"
   xmlns:sodipodi="http://sodipodi.sourceforge.net/DTD/sodipodi-0.dtd"
   xmlns="http://www.w3.org/2000/svg"
   xmlns:svg="http://www.w3.org/2000/svg"><defs
   id="defs33368"><inkscape:path-effect
     effect="perspective-envelope"
     up_left_point="30.566014,29.133231"
     up_right_point="68.582493,33.431577"
     down_left_point="23.975217,49.956327"
     down_right_point="65.812448,59.22165"
     id="path-effect54335"
     is_visible="true"
     lpeversion="1"
     deform_type="perspective"
     horizontal_mirror="false"
     vertical_mirror="false"
     overflow_perspective="false" /><inkscape:path-effect
     effect="perspective-envelope"
     up_left_point="82.531978,82.087403"
     up_right_point="178.54928,97.003617"
     down_left_point="66.88218,122.81746"
     down_right_point="170.47986,159.00762"
     id="path-effect53820"
     is_visible="true"
     lpeversion="1"
     deform_type="envelope_deformation"
     horizontal_mirror="false"
     vertical_mirror="false"
     overflow_perspective="false" /><rect
     x="72.677966"
     y="100.88136"
     width="91.226994"
     height="63.442857"
     id="rect33424" /><inkscape:path-effect
     effect="perspective-envelope"
     up_left_point="89.134237,86.244381"
     up_right_point="178.79381,96.025505"
     down_left_point="71.528214,132.84311"
     down_right_point="172.92514,155.3397"
     id="path-effect53820-1"
     is_visible="true"
     lpeversion="1"
     deform_type="envelope_deformation"
     horizontal_mirror="false"
     vertical_mirror="false"
     overflow_perspective="false" /></defs><sodipodi:namedview
   id="namedview33366"
   pagecolor="#ffffff"
   bordercolor="#000000"
   borderopacity="0.25"
   inkscape:showpageshadow="2"
   inkscape:pageopacity="0.0"
   inkscape:pagecheckerboard="0"
   inkscape:deskcolor="#d1d1d1"
   showgrid="false"
   inkscape:zoom="4.0895094"
   inkscape:cx="132.53424"
   inkscape:cy="123.4867"
   inkscape:window-width="1512"
   inkscape:window-height="916"
   inkscape:window-x="1366"
   inkscape:window-y="80"
   inkscape:window-maximized="1"
   inkscape:current-layer="Layer_1" /><g
   id="SVGRepo_bgCarrier"
   stroke-width="0" />
  <g
   id="SVGRepo_tracerCarrier"
   stroke-linecap="round"
   stroke-linejoin="round"
   stroke="#CCCCCC"
   stroke-width="3.8"> <path
   d="M65.9,21.4c0.2,0.2,0.4,0.4,0.6,0.5c9.6,9.7,9.4,39.8,9.4,41.1c0,0.5-0.5,1-1,1h0c-0.6,0-1-0.5-1-1c0-0.3,0.2-30.6-8.8-39.6 c-1.4-1.4-2.9-2.2-4.6-2.4c-0.3,0-0.5,0-0.8,0c-0.3,0-0.6,0-0.9,0C38.6,21.8,37,50.4,37,50.7c0,0.5-0.5,1-1,1c0,0,0,0,0,0 c-0.6,0-1-0.5-1-1c0-0.3,1.1-20.2,13.1-28.3c-15.7,4-25.7,16.4-26.9,34.8L2.4,75.9c-1.5,1.5-0.2,3.9,1.8,3.6c2.3-0.3,5-1.6,7.9-1.6 c13.9,0,14.4,8.2,30.6,8.2c11.8,0,24.8-12.7,30.9-19.5c17.7-1.5,24.7-5.6,24.7-5.6C98.2,38.6,84.2,24.1,65.9,21.4z M67.9,67 c-6.3,0-13.4-3.3-20.2-6.5c-5.7-2.7-11.1-5.2-15.1-5.2c-5.5,0-7.4,1.1-7.4,1.1c-0.5,0.3-1.1,0.2-1.4-0.3c-0.3-0.5-0.2-1.1,0.3-1.4 c0.2-0.2,2.4-1.5,8.5-1.5c4.4,0,10,2.6,16,5.4c6.6,3.1,13.5,6.3,19.3,6.3c0.6,0,1,0.4,1,1S68.5,67,67.9,67z M63,17 c-0.1-1.8-1.5-3.2-3.3-3.2c-1.8,0-3.2,1.4-3.3,3.1c1.1-0.1,2.2-0.1,3.3-0.1C60.8,16.8,61.9,16.9,63,17z"
   id="path33359" /> </g><g
   id="SVGRepo_iconCarrier"> <path
   d="M65.9,21.4c0.2,0.2,0.4,0.4,0.6,0.5c9.6,9.7,9.4,39.8,9.4,41.1c0,0.5-0.5,1-1,1h0c-0.6,0-1-0.5-1-1c0-0.3,0.2-30.6-8.8-39.6 c-1.4-1.4-2.9-2.2-4.6-2.4c-0.3,0-0.5,0-0.8,0c-0.3,0-0.6,0-0.9,0C38.6,21.8,37,50.4,37,50.7c0,0.5-0.5,1-1,1c0,0,0,0,0,0 c-0.6,0-1-0.5-1-1c0-0.3,1.1-20.2,13.1-28.3c-15.7,4-25.7,16.4-26.9,34.8L2.4,75.9c-1.5,1.5-0.2,3.9,1.8,3.6c2.3-0.3,5-1.6,7.9-1.6 c13.9,0,14.4,8.2,30.6,8.2c11.8,0,24.8-12.7,30.9-19.5c17.7-1.5,24.7-5.6,24.7-5.6C98.2,38.6,84.2,24.1,65.9,21.4z M67.9,67 c-6.3,0-13.4-3.3-20.2-6.5c-5.7-2.7-11.1-5.2-15.1-5.2c-5.5,0-7.4,1.1-7.4,1.1c-0.5,0.3-1.1,0.2-1.4-0.3c-0.3-0.5-0.2-1.1,0.3-1.4 c0.2-0.2,2.4-1.5,8.5-1.5c4.4,0,10,2.6,16,5.4c6.6,3.1,13.5,6.3,19.3,6.3c0.6,0,1,0.4,1,1S68.5,67,67.9,67z M63,17 c-0.1-1.8-1.5-3.2-3.3-3.2c-1.8,0-3.2,1.4-3.3,3.1c1.1-0.1,2.2-0.1,3.3-0.1C60.8,16.8,61.9,16.9,63,17z"
   id="path33362" /> </g><path
   style="opacity:1;fill:#003d49;fill-opacity:0.991525;stroke:#cccccc;stroke-width:1.09375;stroke-linejoin:bevel;stroke-dasharray:none;stroke-opacity:1"
   id="rect53874"
   width="47.281803"
   height="27.604931"
   x="18.244089"
   y="29.610825"
   inkscape:path-effect="#path-effect54335"
   d="M 30.566014,29.133231 68.582493,33.431577 65.812448,59.22165 23.975217,49.956327 Z"
   sodipodi:type="rect" /><g
   aria-label="REQUIREMENT DONOR"
   transform="matrix(0.390625,0,0,0.390625,-2.6139161,-2.6649036)"
   id="text33422"
   style="white-space:pre;shape-inside:url(#rect33424);fill:#ffffff"
   inkscape:path-effect="#path-effect53820-1"><path
     d="m 88.979592,86.653687 3.355847,0.36985 c 0.440915,0.04859 0.826818,0.178933 1.157985,0.391315 0.345223,0.1983 0.596381,0.506576 0.753689,0.925059 0.171605,0.404663 0.229002,0.941443 0.172185,1.610337 -0.04251,0.655077 -0.232356,1.462279 -0.569991,2.421099 -0.408429,1.159862 -0.9193,2.128677 -1.53369,2.905279 -0.610346,0.759618 -1.268451,1.204596 -1.973805,1.335485 l -0.173993,7.248109 -2.393772,-0.36451 0.485293,-6.779509 -0.968641,-0.131642 -2.396859,6.472581 -1.996943,-0.30408 z m -0.570924,6.911861 1.147847,0.147005 c 0.174672,0.02237 0.360454,0.03815 0.557333,0.04732 0.210747,-0.0051 0.414571,-0.05128 0.611426,-0.138534 0.20231,-0.102713 0.397604,-0.270674 0.585861,-0.503906 0.196418,-0.232336 0.37476,-0.571477 0.535134,-1.017306 0.149313,-0.415081 0.222782,-0.751123 0.220499,-1.008024 -0.0022,-0.256769 -0.05111,-0.454928 -0.146859,-0.594499 -0.0901,-0.154813 -0.217374,-0.265938 -0.381864,-0.333425 -0.164444,-0.06744 -0.333104,-0.111368 -0.506015,-0.13183 l -1.259779,-0.14908 z"
     style="font-weight:bold;font-family:Avenir;-inkscape-font-specification:'Avenir Bold';text-align:center;text-anchor:middle;fill:#ffffff"
     id="path53785"
     inkscape:original-d="m 74.707079,103.33282 h 3.288 q 0.648,0 1.224,0.132 0.588,0.12 1.02,0.42 0.444,0.288 0.696,0.792 0.264,0.492 0.264,1.236 0,0.9 -0.468,1.536 -0.468,0.624 -1.368,0.792 l 2.16,3.588 h -2.244 l -1.776,-3.396 h -0.924 v 3.396 h -1.872 z m 1.872,3.516 h 1.104 q 0.252,0 0.528,-0.012 0.288,-0.024 0.516,-0.108 0.228,-0.096 0.372,-0.288 0.156,-0.192 0.156,-0.54 0,-0.324 -0.132,-0.516 -0.132,-0.192 -0.336,-0.288 -0.204,-0.108 -0.468,-0.144 -0.264,-0.036 -0.516,-0.036 h -1.224 z" /><path
     d="m 96.989519,87.536467 5.891101,0.649263 -1.10943,3.41282 -4.017047,-0.478313 -1.050505,3.092098 3.826242,0.48613 -1.111461,3.410626 -3.860785,-0.523558 -1.146005,3.373197 4.352115,0.62677 -1.107404,3.41501 -6.387658,-0.97266 z"
     style="font-weight:bold;font-family:Avenir;-inkscape-font-specification:'Avenir Bold';text-align:center;text-anchor:middle;fill:#ffffff"
     id="path53787"
     inkscape:original-d="m 82.555064,103.33282 h 5.772 v 1.728 h -3.9 v 1.584 h 3.684 v 1.728 h -3.684 v 1.728 h 4.116 v 1.728 h -5.988 z" /><path
     d="m 109.17716,106.75482 -5.4916,-0.83622 c -0.70832,-0.10786 -1.30619,-0.40011 -1.79272,-0.87579 -0.47185,-0.48909 -0.80662,-1.14016 -1.00397,-1.95286 -0.19568,-0.81089 -0.24617,-1.76553 -0.15171,-2.86418 0.0958,-1.09719 0.36274,-2.327189 0.79975,-3.691094 0.40653,-1.268748 0.90025,-2.419377 1.48015,-3.452982 0.5868,-1.03408 1.21063,-1.90851 1.87127,-2.623535 0.65894,-0.716867 1.33491,-1.251786 2.02825,-1.604387 0.69703,-0.369966 1.36722,-0.520331 2.01152,-0.450043 0.6443,0.07029 1.18259,0.353886 1.61586,0.851845 0.43456,0.499362 0.7467,1.161948 0.93675,1.988089 0.19174,0.827983 0.24974,1.801444 0.17374,2.920098 -0.0617,1.104873 -0.2795,2.30931 -0.65451,3.612194 -0.17813,0.61887 -0.38924,1.216402 -0.63351,1.792411 -0.23609,0.576914 -0.50082,1.115834 -0.79432,1.616604 -0.29388,0.50037 -0.61619,0.94557 -0.96701,1.33553 -0.34656,0.37319 -0.71033,0.66737 -1.09124,0.88259 l -0.0143,0.0486 2.51601,0.36583 z m -5.61246,-9.954155 c -0.22987,0.733736 -0.37355,1.429209 -0.43069,2.086802 -0.0567,0.658104 -0.0375,1.243883 0.0576,1.757443 0.10912,0.49941 0.2865,0.90883 0.53204,1.22815 0.246,0.31982 0.5595,0.50732 0.94015,0.56214 0.38065,0.0548 0.77719,-0.0309 1.18927,-0.25757 0.41161,-0.22716 0.80947,-0.55767 1.19348,-0.99166 0.39663,-0.44961 0.76194,-0.98834 1.09604,-1.616047 0.33362,-0.628224 0.61001,-1.315004 0.82953,-2.059956 0.21951,-0.744952 0.35405,-1.45034 0.40395,-2.11578 0.0504,-0.664928 0.0211,-1.247015 -0.0878,-1.746152 -0.0952,-0.513634 -0.26238,-0.92666 -0.50166,-1.239194 -0.23882,-0.312036 -0.54325,-0.489714 -0.91363,-0.533408 -0.37038,-0.04369 -0.75785,0.05186 -1.16274,0.286299 -0.40536,0.233938 -0.80625,0.575831 -1.20279,1.025547 -0.38391,0.434081 -0.74611,0.96152 -1.0865,1.582408 -0.34087,0.620377 -0.62642,1.297241 -0.85629,2.030978 z"
     style="font-weight:bold;font-family:Avenir;-inkscape-font-specification:'Avenir Bold';text-align:center;text-anchor:middle;fill:#ffffff"
     id="path53789"
     inkscape:original-d="m 99.343054,111.82882 h -5.148 q -0.996,0 -1.848,-0.288 -0.84,-0.3 -1.452,-0.864 -0.612,-0.564 -0.96,-1.368 -0.348,-0.804 -0.348,-1.836 0,-0.96 0.348,-1.764 0.36,-0.804 0.972,-1.38 0.612,-0.576 1.44,-0.888 0.828,-0.324 1.776,-0.324 0.948,0 1.776,0.324 0.828,0.324 1.44,0.9 0.612,0.576 0.96,1.38 0.36,0.792 0.36,1.752 0,0.456 -0.108,0.888 -0.096,0.432 -0.3,0.816 -0.204,0.384 -0.528,0.696 -0.324,0.3 -0.756,0.492 v 0.024 h 2.376 z m -7.812,-4.356 q 0,0.552 0.204,1.032 0.204,0.48 0.552,0.84 0.36,0.348 0.828,0.552 0.468,0.204 1.008,0.204 0.54,0 1.008,-0.204 0.468,-0.204 0.816,-0.552 0.36,-0.36 0.564,-0.84 0.204,-0.48 0.204,-1.032 0,-0.552 -0.204,-1.032 -0.204,-0.48 -0.564,-0.828 -0.348,-0.36 -0.816,-0.564 -0.468,-0.204 -1.008,-0.204 -0.54,0 -1.008,0.204 -0.468,0.204 -0.828,0.564 -0.348,0.348 -0.552,0.828 -0.204,0.48 -0.204,1.032 z" /><path
     d="m 119.56861,101.2305 c -0.27133,1.05202 -0.60124,2.00922 -0.99027,2.87106 -0.38973,0.86107 -0.83047,1.59281 -1.32246,2.19496 -0.48452,0.60231 -1.01385,1.04995 -1.5879,1.34304 -0.5749,0.29216 -1.1745,0.39009 -1.79816,0.29449 -0.63221,-0.0969 -1.13791,-0.3633 -1.51646,-0.79847 -0.3777,-0.43423 -0.63909,-0.99557 -0.78404,-1.68387 -0.13543,-0.68594 -0.16139,-1.47435 -0.0781,-2.36547 0.084,-0.89037 0.2717,-1.85066 0.56263,-2.88144 l 3.01315,-10.676001 1.91063,0.210571 -2.91929,10.5854 c -0.14971,0.54284 -0.24602,1.05039 -0.2888,1.5228 -0.0341,0.47381 -0.0185,0.89501 0.047,1.26366 0.0703,0.35246 0.18846,0.64353 0.35447,0.87316 0.17918,0.21459 0.4001,0.341 0.66262,0.37908 0.26252,0.0381 0.52829,-0.018 0.79717,-0.16826 0.27311,-0.16709 0.53407,-0.40499 0.78286,-0.71372 0.25292,-0.32563 0.48301,-0.715 0.69034,-1.16805 0.21554,-0.4521 0.39564,-0.95231 0.54045,-1.50046 l 2.82374,-10.688911 1.91063,0.210572 z"
     style="font-weight:bold;font-family:Avenir;-inkscape-font-specification:'Avenir Bold';text-align:center;text-anchor:middle;fill:#ffffff"
     id="path53791"
     inkscape:original-d="m 107.43105,108.55282 q 0,0.756 -0.228,1.392 -0.228,0.636 -0.684,1.104 -0.444,0.468 -1.116,0.732 -0.672,0.264 -1.548,0.264 -0.888,0 -1.56,-0.264 -0.672,-0.264 -1.128,-0.732 -0.444,-0.468 -0.672,-1.104 -0.228,-0.636 -0.228,-1.392 v -5.22 h 1.872 v 5.148 q 0,0.396 0.12,0.732 0.132,0.336 0.36,0.588 0.228,0.24 0.54,0.384 0.324,0.132 0.696,0.132 0.372,0 0.684,-0.132 0.312,-0.144 0.54,-0.384 0.228,-0.252 0.348,-0.588 0.132,-0.336 0.132,-0.732 v -5.148 h 1.872 z" /><path
     d="m 124.11797,90.526314 1.91063,0.210572 -4.40897,17.912574 -1.99694,-0.30408 z"
     style="font-weight:bold;font-family:Avenir;-inkscape-font-specification:'Avenir Bold';text-align:center;text-anchor:middle;fill:#ffffff"
     id="path53793"
     inkscape:original-d="m 109.13504,103.33282 h 1.872 v 8.496 h -1.872 z" /><path
     d="m 127.76775,90.928559 3.35585,0.36985 c 0.44091,0.04859 0.83589,0.188764 1.1852,0.420809 0.36173,0.216175 0.64176,0.555732 0.84032,1.018903 0.2112,0.447562 0.32305,1.04333 0.33553,1.787299 0.0251,0.728364 -0.0797,1.627623 -0.31506,2.697267 -0.28468,1.293925 -0.68995,2.37714 -1.21689,3.248483 -0.52455,0.85256 -1.1282,1.35653 -1.81046,1.51244 l 0.56603,8.0498 -2.39377,-0.3645 -0.21513,-7.53831 -0.96864,-0.13164 -1.69643,7.23137 -1.99695,-0.30408 z m 0.15425,7.697467 1.14785,0.147005 c 0.17467,0.02237 0.35962,0.03725 0.55485,0.04464 0.20745,-0.0087 0.40385,-0.06289 0.58915,-0.162664 0.18911,-0.117013 0.36461,-0.306425 0.52647,-0.568256 0.17001,-0.260937 0.31123,-0.640297 0.42375,-1.137963 0.10477,-0.463344 0.14276,-0.837816 0.11408,-1.123318 -0.0286,-0.285369 -0.0973,-0.504977 -0.20626,-0.658848 -0.10495,-0.170901 -0.24212,-0.292751 -0.41156,-0.3656 -0.1694,-0.0728 -0.34053,-0.119412 -0.51344,-0.139874 l -1.25978,-0.14908 z"
     style="font-weight:bold;font-family:Avenir;-inkscape-font-specification:'Avenir Bold';text-align:center;text-anchor:middle;fill:#ffffff"
     id="path53795"
     inkscape:original-d="m 112.71103,103.33282 h 3.288 q 0.648,0 1.224,0.132 0.588,0.12 1.02,0.42 0.444,0.288 0.696,0.792 0.264,0.492 0.264,1.236 0,0.9 -0.468,1.536 -0.468,0.624 -1.368,0.792 l 2.16,3.588 h -2.244 l -1.776,-3.396 h -0.924 v 3.396 h -1.872 z m 1.872,3.516 h 1.104 q 0.252,0 0.528,-0.012 0.288,-0.024 0.516,-0.108 0.228,-0.096 0.372,-0.288 0.156,-0.192 0.156,-0.54 0,-0.324 -0.132,-0.516 -0.132,-0.192 -0.336,-0.288 -0.204,-0.108 -0.468,-0.144 -0.264,-0.036 -0.516,-0.036 h -1.224 z" /><path
     d="m 135.77768,91.81134 5.8911,0.649263 -0.75303,3.798919 -4.01705,-0.478313 -0.7238,3.446023 3.82624,0.486131 -0.75506,3.796727 -3.86079,-0.52356 -0.7896,3.7593 4.35212,0.62677 -0.75101,3.80111 -6.38766,-0.97266 z"
     style="font-weight:bold;font-family:Avenir;-inkscape-font-specification:'Avenir Bold';text-align:center;text-anchor:middle;fill:#ffffff"
     id="path53797"
     inkscape:original-d="m 120.55902,103.33282 h 5.772 v 1.728 h -3.9 v 1.584 h 3.684 v 1.728 h -3.684 v 1.728 h 4.116 v 1.728 h -5.988 z" /><path
     d="m 143.42018,92.653626 2.89044,0.318557 -0.22392,12.620217 0.0252,0.003 4.22817,-12.179606 2.87819,0.317207 -3.18064,19.243259 -1.99694,-0.30408 2.50558,-14.686884 -0.0247,-0.003 -4.88741,14.323414 -1.52331,-0.23196 0.42046,-14.812378 -0.0248,-0.003 -2.71267,14.462548 -1.99695,-0.30408 z"
     style="font-weight:bold;font-family:Avenir;-inkscape-font-specification:'Avenir Bold';text-align:center;text-anchor:middle;fill:#ffffff"
     id="path53799"
     inkscape:original-d="m 128.04701,103.33282 h 2.832 l 1.956,5.544 h 0.024 l 1.968,-5.544 h 2.82 v 8.496 h -1.872 v -6.516 h -0.024 l -2.232,6.516 h -1.428 l -2.148,-6.516 h -0.024 v 6.516 h -1.872 z" /><path
     d="m 155.0554,93.935952 5.8911,0.649263 -0.5759,3.990811 -4.01705,-0.478313 -0.56143,3.621927 3.82624,0.48613 -0.57793,3.98861 -3.86078,-0.52355 -0.61248,3.95119 4.35212,0.62676 -0.57388,3.99301 -6.38765,-0.97266 z"
     style="font-weight:bold;font-family:Avenir;-inkscape-font-specification:'Avenir Bold';text-align:center;text-anchor:middle;fill:#ffffff"
     id="path53801"
     inkscape:original-d="m 139.44699,103.33282 h 5.772 v 1.728 h -3.9 v 1.584 h 3.684 v 1.728 h -3.684 v 1.728 h 4.116 v 1.728 h -5.988 z" /><path
     d="m 162.6979,94.778238 2.5965,0.286162 1.9711,14.31482 0.0253,0.004 1.71466,-13.909355 1.91062,0.210572 -2.38112,20.109403 -2.61138,-0.39764 -2.05839,-14.69859 -0.0248,-0.003 -1.89788,14.09542 -1.99694,-0.30408 z"
     style="font-weight:bold;font-family:Avenir;-inkscape-font-specification:'Avenir Bold';text-align:center;text-anchor:middle;fill:#ffffff"
     id="path53803"
     inkscape:original-d="m 146.93498,103.33282 h 2.544 l 3.612,5.904 h 0.024 v -5.904 h 1.872 v 8.496 h -2.448 l -3.708,-6.048 h -0.024 v 6.048 h -1.872 z" /><path
     d="m 173.9238,100.01572 -2.4958,-0.29626 0.4556,-3.92886 6.85866,0.755899 -0.3952,3.994291 -2.49581,-0.29627 -1.72234,16.40066 -1.99694,-0.30408 z"
     style="font-weight:bold;font-family:Avenir;-inkscape-font-specification:'Avenir Bold';text-align:center;text-anchor:middle;fill:#ffffff"
     id="path53805"
     inkscape:original-d="m 158.35896,104.98882 h -2.424 v -1.656 h 6.72 v 1.656 h -2.424 v 6.84 h -1.872 z" /><path
     d="m 101.12991,120.65749 3.10464,0.57444 c 0.75183,0.13911 1.41987,0.42616 2.00487,0.86196 0.59486,0.43855 1.04741,1.05874 1.35815,1.86115 0.31696,0.78777 0.4701,1.77116 0.45933,2.95007 -2.4e-4,1.18237 -0.21654,2.57552 -0.65012,4.17815 -0.38441,1.42089 -0.87406,2.64524 -1.47007,3.67181 -0.5839,1.01039 -1.22939,1.83178 -1.93668,2.46396 -0.70446,0.61388 -1.44075,1.03648 -2.20849,1.26823 -0.76888,0.2305 -1.51771,0.26486 -2.245615,0.104 l -3.52435,-0.77885 z m -1.930835,14.12324 1.110385,0.23752 c 0.4935,0.10557 0.97603,0.11352 1.44731,0.0236 0.48006,-0.0884 0.93268,-0.30441 1.35768,-0.64826 0.42898,-0.36089 0.82341,-0.85985 1.18335,-1.49683 0.37302,-0.65211 0.69594,-1.47132 0.96919,-2.45715 0.23683,-0.85439 0.35184,-1.61173 0.34545,-2.27159 0.008,-0.67393 -0.0789,-1.24477 -0.25959,-1.71244 -0.18014,-0.46706 -0.4433,-0.8375 -0.7896,-1.11149 -0.33237,-0.28819 -0.71694,-0.47421 -1.15403,-0.55839 l -1.23098,-0.23707 z"
     style="font-weight:bold;font-family:Avenir;-inkscape-font-specification:'Avenir Bold';text-align:center;text-anchor:middle;fill:#ffffff"
     id="path53807"
     inkscape:original-d="m 95.839052,118.99602 h 2.808 q 1.02,0 1.931998,0.228 0.924,0.228 1.608,0.744 0.684,0.504 1.08,1.32 0.408,0.816 0.408,1.98 0,1.032 -0.396,1.824 -0.384,0.78 -1.044,1.32 -0.66,0.528 -1.524,0.804 -0.863998,0.276 -1.811998,0.276 h -3.06 z m 1.872,6.768 h 0.972 q 0.648,0 1.2,-0.132 0.563998,-0.132 0.971998,-0.432 0.408,-0.312 0.636,-0.804 0.24,-0.504 0.24,-1.224 0,-0.624 -0.24,-1.08 -0.228,-0.468 -0.624,-0.768 -0.396,-0.3 -0.935998,-0.444 -0.528,-0.156 -1.116,-0.156 h -1.104 z" /><path
     d="m 108.34119,131.22101 c 0.37693,-1.40763 0.84401,-2.65792 1.40023,-3.75197 0.56381,-1.09377 1.17799,-1.99605 1.8423,-2.7071 0.66697,-0.72953 1.36641,-1.25367 2.09869,-1.57204 0.73101,-0.31974 1.46273,-0.41262 2.19609,-0.27763 0.73337,0.135 1.35496,0.47829 1.86573,1.0309 0.51204,0.55398 0.89383,1.28804 1.14572,2.20255 0.25771,0.89945 0.37187,1.95909 0.34223,3.17864 -0.0193,1.22278 -0.20002,2.55687 -0.54312,4.00115 -0.3431,1.44429 -0.78565,2.72513 -1.32869,3.84139 -0.5353,1.11671 -1.13651,2.03975 -1.80392,2.76881 -0.66503,0.71026 -1.37376,1.21366 -2.12587,1.51055 -0.75337,0.29551 -1.5133,0.35784 -2.27883,0.18799 -0.76554,-0.16985 -1.41535,-0.5437 -1.94848,-1.12053 -0.53186,-0.57547 -0.92717,-1.31349 -1.1856,-2.21372 -0.25233,-0.91499 -0.35832,-1.97249 -0.31823,-3.17277 0.0506,-1.19688 0.26482,-2.49859 0.64175,-3.90622 z m 2.19418,0.44624 c -0.2175,0.83259 -0.34963,1.61262 -0.39606,2.34044 -0.0326,0.71353 0.0162,1.35665 0.1463,1.92951 0.13507,0.55683 0.34892,1.01645 0.64146,1.37873 0.30215,0.36475 0.68212,0.59646 1.13953,0.69471 0.45742,0.0983 0.90482,0.0438 1.34184,-0.1638 0.44568,-0.20614 0.86316,-0.53402 1.25236,-0.98374 0.39274,-0.46726 0.74187,-1.03295 1.04754,-1.69693 0.31844,-0.67947 0.5805,-1.44189 0.78654,-2.2869 0.20192,-0.82811 0.31744,-1.61147 0.34692,-2.34971 0.0389,-0.73596 -0.009,-1.38246 -0.1444,-1.93937 -0.13036,-0.5731 -0.34287,-1.03796 -0.63761,-1.39469 -0.28534,-0.35449 -0.6506,-0.57423 -1.09614,-0.65962 -0.44554,-0.0854 -0.88726,-0.0208 -1.32553,0.19338 -0.42983,0.21537 -0.84117,0.55662 -1.23414,1.02362 -0.38926,0.44966 -0.74687,1.01014 -1.07273,1.68156 -0.31732,0.67272 -0.58272,1.41687 -0.79588,2.23281 z"
     style="font-weight:bold;font-family:Avenir;-inkscape-font-specification:'Avenir Bold';text-align:center;text-anchor:middle;fill:#ffffff"
     id="path53809"
     inkscape:original-d="m 104.49104,123.24402 q 0,-1.02 0.336,-1.848 0.348,-0.828 0.96,-1.404 0.612,-0.588 1.452,-0.9 0.84,-0.312 1.836,-0.312 0.996,0 1.836,0.312 0.84,0.312 1.452,0.9 0.612,0.576 0.948,1.404 0.348,0.828 0.348,1.848 0,1.02 -0.348,1.848 -0.336,0.828 -0.948,1.416 -0.612,0.576 -1.452,0.888 -0.84,0.312 -1.836,0.312 -0.996,0 -1.836,-0.312 -0.84,-0.312 -1.452,-0.888 -0.612,-0.588 -0.96,-1.416 -0.336,-0.828 -0.336,-1.848 z m 1.944,0 q 0,0.6 0.18,1.104 0.192,0.492 0.54,0.864 0.348,0.36 0.828,0.564 0.492,0.204 1.092,0.204 0.6,0 1.08,-0.204 0.492,-0.204 0.84,-0.564 0.348,-0.372 0.528,-0.864 0.192,-0.504 0.192,-1.104 0,-0.588 -0.192,-1.092 -0.18,-0.504 -0.528,-0.864 -0.348,-0.372 -0.84,-0.576 -0.48,-0.204 -1.08,-0.204 -0.6,0 -1.092,0.204 -0.48,0.204 -0.828,0.576 -0.348,0.36 -0.54,0.864 -0.18,0.504 -0.18,1.092 z" /><path
     d="m 122.23875,124.5632 2.81275,0.52044 1.25269,13.53654 0.0273,0.006 2.74011,-12.79845 2.06976,0.38296 -3.85677,18.51079 -2.81948,-0.62308 -1.32313,-13.90205 -0.0269,-0.005 -2.94834,12.95742 -2.15607,-0.47647 z"
     style="font-weight:bold;font-family:Avenir;-inkscape-font-specification:'Avenir Bold';text-align:center;text-anchor:middle;fill:#ffffff"
     id="path53811"
     inkscape:original-d="m 114.93102,118.99602 h 2.544 l 3.612,5.904 h 0.024 v -5.904 h 1.872 v 8.496 h -2.448 l -3.708,-6.048 h -0.024 v 6.048 h -1.872 z" /><path
     d="m 130.64867,135.75781 c 0.30399,-1.48664 0.705,-2.80851 1.20202,-3.9667 0.5046,-1.15791 1.06857,-2.11458 1.6917,-2.87025 0.62492,-0.77507 1.29219,-1.33407 2.00215,-1.67661 0.70871,-0.34391 1.42927,-0.44888 2.16263,-0.31388 0.73337,0.13499 1.36612,0.49036 1.8992,1.06715 0.53434,0.57815 0.94831,1.34707 1.24225,2.30713 0.2989,0.94407 0.46326,2.05809 0.49282,3.34178 0.0399,1.28692 -0.0747,2.69259 -0.3449,4.21589 -0.27016,1.5233 -0.64664,2.87572 -1.13047,4.05612 -0.4761,1.18085 -1.02668,2.15874 -1.65204,2.93335 -0.62385,0.75488 -1.30083,1.29267 -2.03062,1.61373 -0.73106,0.31969 -1.47984,0.39409 -2.24538,0.22424 -0.76553,-0.16984 -1.4265,-0.55578 -1.98193,-1.15678 -0.55417,-0.59964 -0.98123,-1.37205 -1.28085,-2.3169 -0.29438,-0.96054 -0.451,-2.07289 -0.47011,-3.33731 -0.009,-1.26102 0.13954,-2.63431 0.44353,-4.12096 z m 2.19418,0.44625 c -0.1746,0.87906 -0.26726,1.70185 -0.27765,2.46871 0.003,0.75165 0.0822,1.42824 0.23897,2.02991 0.16082,0.58473 0.39484,1.06618 0.70196,1.44427 0.31674,0.38056 0.704,0.62016 1.16142,0.71841 0.45741,0.0983 0.89751,0.0359 1.31995,-0.1875 0.43109,-0.22194 0.82841,-0.57167 1.19187,-1.04928 0.36614,-0.49607 0.68438,-1.09523 0.95487,-1.79732 0.28239,-0.71851 0.50498,-1.5237 0.66812,-2.41518 0.15987,-0.87366 0.23635,-1.69932 0.22979,-2.4766 0.003,-0.77501 -0.0762,-1.45498 -0.23707,-2.03977 -0.15697,-0.60192 -0.39006,-1.08909 -0.69939,-1.46162 -0.29993,-0.37029 -0.67249,-0.59794 -1.11803,-0.68332 -0.44554,-0.0854 -0.87997,-0.0129 -1.30365,0.21708 -0.41524,0.23117 -0.80599,0.59473 -1.17235,1.09055 -0.36352,0.47755 -0.69024,1.07149 -0.98005,1.78196 -0.28129,0.71176 -0.50765,1.49821 -0.67876,2.3597 z"
     style="font-weight:bold;font-family:Avenir;-inkscape-font-specification:'Avenir Bold';text-align:center;text-anchor:middle;fill:#ffffff"
     id="path53813"
     inkscape:original-d="m 124.25501,123.24402 q 0,-1.02 0.336,-1.848 0.348,-0.828 0.96,-1.404 0.612,-0.588 1.452,-0.9 0.84,-0.312 1.836,-0.312 0.996,0 1.836,0.312 0.84,0.312 1.452,0.9 0.612,0.576 0.948,1.404 0.348,0.828 0.348,1.848 0,1.02 -0.348,1.848 -0.336,0.828 -0.948,1.416 -0.612,0.576 -1.452,0.888 -0.84,0.312 -1.836,0.312 -0.996,0 -1.836,-0.312 -0.84,-0.312 -1.452,-0.888 -0.612,-0.588 -0.96,-1.416 -0.336,-0.828 -0.336,-1.848 z m 1.944,0 q 0,0.6 0.18,1.104 0.192,0.492 0.54,0.864 0.348,0.36 0.828,0.564 0.492,0.204 1.092,0.204 0.6,0 1.08,-0.204 0.492,-0.204 0.84,-0.564 0.348,-0.372 0.528,-0.864 0.192,-0.504 0.192,-1.104 0,-0.588 -0.192,-1.092 -0.18,-0.504 -0.528,-0.864 -0.348,-0.372 -0.84,-0.576 -0.48,-0.204 -1.08,-0.204 -0.6,0 -1.092,0.204 -0.48,0.204 -0.828,0.576 -0.348,0.36 -0.54,0.864 -0.18,0.504 -0.18,1.092 z" /><path
     d="m 144.09059,128.6064 3.63534,0.67264 c 0.47764,0.0884 0.91255,0.2718 1.30501,0.55058 0.40459,0.26262 0.73023,0.65158 0.97713,1.16712 0.25927,0.49964 0.42234,1.15089 0.48919,1.95376 0.0792,0.78697 0.031,1.74758 -0.14516,2.88133 -0.21309,1.37148 -0.57054,2.5065 -1.07342,3.40391 -0.50143,0.87761 -1.11235,1.3737 -1.83225,1.48884 l 1.17773,8.71246 -2.58453,-0.57115 -0.77127,-8.14079 -1.04719,-0.21673 -1.29126,7.6703 -2.15607,-0.47647 z m 0.73287,8.3243 1.24169,0.24867 c 0.18895,0.0378 0.38839,0.0684 0.59831,0.0917 0.22186,0.007 0.42858,-0.0361 0.62013,-0.1291 0.19439,-0.11129 0.36897,-0.30169 0.52372,-0.57123 0.16359,-0.2679 0.28775,-0.66574 0.37259,-1.19339 0.079,-0.49126 0.0927,-0.89202 0.0413,-1.20217 -0.0513,-0.31001 -0.14103,-0.55234 -0.26918,-0.72701 -0.1251,-0.19273 -0.28126,-0.33515 -0.46852,-0.42731 -0.18722,-0.0921 -0.37441,-0.15611 -0.5616,-0.19204 l -1.36383,-0.2618 z"
     style="font-weight:bold;font-family:Avenir;-inkscape-font-specification:'Avenir Bold';text-align:center;text-anchor:middle;fill:#ffffff"
     id="path53815"
     inkscape:original-d="m 134.69499,118.99602 h 3.288 q 0.648,0 1.224,0.132 0.588,0.12 1.02,0.42 0.444,0.288 0.696,0.792 0.264,0.492 0.264,1.236 0,0.9 -0.468,1.536 -0.468,0.624 -1.368,0.792 l 2.16,3.588 h -2.244 l -1.776,-3.396 h -0.924 v 3.396 h -1.872 z m 1.872,3.516 h 1.104 q 0.252,0 0.528,-0.012 0.288,-0.024 0.516,-0.108 0.228,-0.096 0.372,-0.288 0.156,-0.192 0.156,-0.54 0,-0.324 -0.132,-0.516 -0.132,-0.192 -0.336,-0.288 -0.204,-0.108 -0.468,-0.144 -0.264,-0.036 -0.516,-0.036 h -1.224 z" /></g></svg>
