<?xml version="1.0" encoding="UTF-8" standalone="no"?>
<!-- Created with Inkscape (http://www.inkscape.org/) -->

<svg
   version="1.1"
   id="svg2"
   viewBox="0 0 579.66669 566.66669"
   sodipodi:docname="Odd-e_logo.ai"
   xmlns:inkscape="http://www.inkscape.org/namespaces/inkscape"
   xmlns:sodipodi="http://sodipodi.sourceforge.net/DTD/sodipodi-0.dtd"
   xmlns="http://www.w3.org/2000/svg"
   xmlns:svg="http://www.w3.org/2000/svg">
  <defs
     id="defs6">
    <clipPath
       clipPathUnits="userSpaceOnUse"
       id="clipPath16">
      <path
         d="M 0,425 H 425 V 0 H 0 Z"
         id="path14" />
    </clipPath>
    <clipPath
       clipPathUnits="userSpaceOnUse"
       id="clipPath24">
      <path
         d="m 143,286.176 c 41.331,41.33 108.338,41.329 149.668,-0.002 41.331,-41.331 41.331,-108.339 0,-149.669 C 251.338,95.176 184.331,95.177 143,136.508 c -41.33,41.331 -41.33,108.339 0,149.668"
         clip-rule="evenodd"
         id="path22" />
    </clipPath>
    <clipPath
       clipPathUnits="userSpaceOnUse"
       id="clipPath206">
      <path
         d="m 123.712,211.676 c 0,51.903 42.075,93.978 93.978,93.978 51.904,0 93.979,-42.075 93.979,-93.978 0,-51.903 -42.075,-93.978 -93.979,-93.978 -51.903,0 -93.978,42.075 -93.978,93.978"
         clip-rule="evenodd"
         id="path204" />
    </clipPath>
    <clipPath
       clipPathUnits="userSpaceOnUse"
       id="clipPath304">
      <path
         d="m 123.712,211.676 c 0,51.903 42.075,93.978 93.978,93.978 51.904,0 93.979,-42.075 93.979,-93.978 0,-51.903 -42.075,-93.978 -93.979,-93.978 -51.903,0 -93.978,42.075 -93.978,93.978"
         id="path302" />
    </clipPath>
    <clipPath
       clipPathUnits="userSpaceOnUse"
       id="clipPath312">
      <path
         d="m 213.353,299.96 c 16.651,16.651 51.388,8.911 77.587,-17.29 26.2,-26.199 33.939,-60.936 17.288,-77.587 -16.651,-16.651 -51.388,-8.911 -77.587,17.29 -26.199,26.199 -33.939,60.936 -17.288,77.587"
         id="path310" />
    </clipPath>
    <clipPath
       clipPathUnits="userSpaceOnUse"
       id="clipPath320">
      <path
         d="m 213.353,299.96 c 16.651,16.651 51.388,8.911 77.587,-17.29 26.2,-26.199 33.939,-60.936 17.288,-77.587 -16.651,-16.651 -51.388,-8.911 -77.587,17.29 -26.199,26.199 -33.939,60.936 -17.288,77.587"
         id="path318" />
    </clipPath>
  </defs>
  <sodipodi:namedview
     id="namedview4"
     pagecolor="#ffffff"
     bordercolor="#000000"
     borderopacity="0.25"
     inkscape:showpageshadow="2"
     inkscape:pageopacity="0.0"
     inkscape:pagecheckerboard="0"
     inkscape:deskcolor="#d1d1d1" />
  <g
     id="g8"
     inkscape:groupmode="layer"
     inkscape:label="Odd-e_logo"
     transform="matrix(1.3333333,0,0,-1.3333333,0,566.66667)">
    <g
       id="g10">
      <g
         id="g12"
         clip-path="url(#clipPath16)">

        <g
           id="g200">
          <g
             id="g202"
             clip-path="url(#clipPath206)">
            <path
               d="m 110.339,211.676 c 0,59.289 48.062,107.351 107.351,107.351 59.29,0 107.352,-48.062 107.352,-107.351 0,-59.289 -48.062,-107.352 -107.352,-107.352 -59.289,0 -107.351,48.063 -107.351,107.352"
               style="fill:#403c3d;fill-opacity:1;fill-rule:nonzero;stroke:none"
               id="path208" />
            <path
               d="m 117.03,211.676 c 0,55.594 45.067,100.66 100.66,100.66 55.594,0 100.661,-45.066 100.661,-100.66 0,-55.594 -45.067,-100.66 -100.661,-100.66 -55.593,0 -100.66,45.066 -100.66,100.66"
               style="fill:#403c3d;fill-opacity:1;fill-rule:nonzero;stroke:none"
               id="path210" />
            <path
               d="m 123.722,211.676 c 0,51.898 42.07,93.969 93.968,93.969 51.899,0 93.969,-42.071 93.969,-93.969 0,-51.898 -42.07,-93.968 -93.969,-93.968 -51.898,0 -93.968,42.07 -93.968,93.968"
               style="fill:#403c3d;fill-opacity:1;fill-rule:nonzero;stroke:none"
               id="path212" />
            <path
               d="m 125.909,211.676 c 0,50.69 41.091,91.782 91.781,91.782 50.691,0 91.783,-41.092 91.783,-91.782 0,-50.691 -41.092,-91.782 -91.783,-91.782 -50.69,0 -91.781,41.091 -91.781,91.782"
               style="fill:#403d3e;fill-opacity:1;fill-rule:nonzero;stroke:none"
               id="path214" />
            <path
               d="m 128.094,211.676 c 0,49.484 40.113,89.597 89.596,89.597 49.484,0 89.598,-40.113 89.598,-89.597 0,-49.484 -40.114,-89.597 -89.598,-89.597 -49.483,0 -89.596,40.113 -89.596,89.597"
               style="fill:#413e3f;fill-opacity:1;fill-rule:nonzero;stroke:none"
               id="path216" />
            <path
               d="m 130.279,211.676 c 0,48.277 39.135,87.412 87.411,87.412 48.277,0 87.413,-39.135 87.413,-87.412 0,-48.277 -39.136,-87.412 -87.413,-87.412 -48.276,0 -87.411,39.135 -87.411,87.412"
               style="fill:#423f40;fill-opacity:1;fill-rule:nonzero;stroke:none"
               id="path218" />
            <path
               d="m 132.464,211.676 c 0,47.07 38.157,85.226 85.226,85.226 47.071,0 85.227,-38.156 85.227,-85.226 0,-47.07 -38.156,-85.226 -85.227,-85.226 -47.069,0 -85.226,38.156 -85.226,85.226"
               style="fill:#434041;fill-opacity:1;fill-rule:nonzero;stroke:none"
               id="path220" />
            <path
               d="m 134.649,211.676 c 0,45.863 37.179,83.041 83.041,83.041 45.864,0 83.042,-37.178 83.042,-83.041 0,-45.863 -37.178,-83.041 -83.042,-83.041 -45.862,0 -83.041,37.178 -83.041,83.041"
               style="fill:#444141;fill-opacity:1;fill-rule:nonzero;stroke:none"
               id="path222" />
            <path
               d="m 136.834,211.676 c 0,44.656 36.201,80.856 80.856,80.856 44.657,0 80.857,-36.2 80.857,-80.856 0,-44.656 -36.2,-80.856 -80.857,-80.856 -44.655,0 -80.856,36.2 -80.856,80.856"
               style="fill:#454242;fill-opacity:1;fill-rule:nonzero;stroke:none"
               id="path224" />
            <path
               d="m 139.02,211.676 c 0,43.449 35.221,78.671 78.67,78.671 43.45,0 78.672,-35.222 78.672,-78.671 0,-43.449 -35.222,-78.671 -78.672,-78.671 -43.449,0 -78.67,35.222 -78.67,78.671"
               style="fill:#464243;fill-opacity:1;fill-rule:nonzero;stroke:none"
               id="path226" />
            <path
               d="m 141.205,211.676 c 0,42.242 34.243,76.486 76.485,76.486 42.243,0 76.486,-34.244 76.486,-76.486 0,-42.242 -34.243,-76.486 -76.486,-76.486 -42.242,0 -76.485,34.244 -76.485,76.486"
               style="fill:#474344;fill-opacity:1;fill-rule:nonzero;stroke:none"
               id="path228" />
            <path
               d="m 143.39,211.676 c 0,41.035 33.265,74.301 74.3,74.301 41.036,0 74.301,-33.266 74.301,-74.301 0,-41.035 -33.265,-74.301 -74.301,-74.301 -41.035,0 -74.3,33.266 -74.3,74.301"
               style="fill:#484445;fill-opacity:1;fill-rule:nonzero;stroke:none"
               id="path230" />
            <path
               d="m 145.575,211.676 c 0,39.829 32.287,72.116 72.115,72.116 39.83,0 72.116,-32.287 72.116,-72.116 0,-39.829 -32.286,-72.115 -72.116,-72.115 -39.828,0 -72.115,32.286 -72.115,72.115"
               style="fill:#494546;fill-opacity:1;fill-rule:nonzero;stroke:none"
               id="path232" />
            <path
               d="m 147.762,211.676 c 0,38.621 31.308,69.929 69.928,69.929 38.622,0 69.929,-31.308 69.929,-69.929 0,-38.621 -31.307,-69.929 -69.929,-69.929 -38.62,0 -69.928,31.308 -69.928,69.929"
               style="fill:#4a4647;fill-opacity:1;fill-rule:nonzero;stroke:none"
               id="path234" />
            <path
               d="m 149.947,211.676 c 0,37.414 30.329,67.743 67.743,67.743 37.415,0 67.744,-30.329 67.744,-67.743 0,-37.414 -30.329,-67.743 -67.744,-67.743 -37.414,0 -67.743,30.329 -67.743,67.743"
               style="fill:#4a4748;fill-opacity:1;fill-rule:nonzero;stroke:none"
               id="path236" />
            <path
               d="m 152.132,211.676 c 0,36.207 29.351,65.558 65.558,65.558 36.208,0 65.559,-29.351 65.559,-65.558 0,-36.207 -29.351,-65.558 -65.559,-65.558 -36.207,0 -65.558,29.351 -65.558,65.558"
               style="fill:#4b4849;fill-opacity:1;fill-rule:nonzero;stroke:none"
               id="path238" />
            <path
               d="m 154.317,211.676 c 0,35 28.373,63.373 63.373,63.373 35.001,0 63.374,-28.373 63.374,-63.373 0,-35.001 -28.373,-63.373 -63.374,-63.373 -35,0 -63.373,28.372 -63.373,63.373"
               style="fill:#4c494a;fill-opacity:1;fill-rule:nonzero;stroke:none"
               id="path240" />
            <path
               d="m 156.502,211.676 c 0,33.794 27.395,61.188 61.188,61.188 33.794,0 61.188,-27.394 61.188,-61.188 0,-33.794 -27.394,-61.188 -61.188,-61.188 -33.793,0 -61.188,27.394 -61.188,61.188"
               style="fill:#4d4a4b;fill-opacity:1;fill-rule:nonzero;stroke:none"
               id="path242" />
            <path
               d="m 158.688,211.676 c 0,32.587 26.416,59.003 59.002,59.003 32.587,0 59.003,-26.416 59.003,-59.003 0,-32.587 -26.416,-59.003 -59.003,-59.003 -32.586,0 -59.002,26.416 -59.002,59.003"
               style="fill:#4e4b4b;fill-opacity:1;fill-rule:nonzero;stroke:none"
               id="path244" />
            <path
               d="m 160.873,211.676 c 0,31.38 25.438,56.818 56.817,56.818 31.38,0 56.818,-25.438 56.818,-56.818 0,-31.38 -25.438,-56.818 -56.818,-56.818 -31.379,0 -56.817,25.438 -56.817,56.818"
               style="fill:#4f4c4c;fill-opacity:1;fill-rule:nonzero;stroke:none"
               id="path246" />
            <path
               d="m 163.058,211.676 c 0,30.173 24.46,54.633 54.632,54.633 30.174,0 54.633,-24.46 54.633,-54.633 0,-30.173 -24.459,-54.633 -54.633,-54.633 -30.172,0 -54.632,24.46 -54.632,54.633"
               style="fill:#504c4d;fill-opacity:1;fill-rule:nonzero;stroke:none"
               id="path248" />
            <path
               d="m 165.243,211.676 c 0,28.966 23.482,52.447 52.447,52.447 28.967,0 52.448,-23.481 52.448,-52.447 0,-28.966 -23.481,-52.447 -52.448,-52.447 -28.965,0 -52.447,23.481 -52.447,52.447"
               style="fill:#514d4e;fill-opacity:1;fill-rule:nonzero;stroke:none"
               id="path250" />
            <path
               d="m 167.429,211.676 c 0,27.759 22.502,50.262 50.261,50.262 27.76,0 50.263,-22.503 50.263,-50.262 0,-27.759 -22.503,-50.262 -50.263,-50.262 -27.759,0 -50.261,22.503 -50.261,50.262"
               style="fill:#514e4f;fill-opacity:1;fill-rule:nonzero;stroke:none"
               id="path252" />
            <path
               d="m 169.614,211.676 c 0,26.553 21.524,48.077 48.076,48.077 26.553,0 48.078,-21.524 48.078,-48.077 0,-26.552 -21.525,-48.077 -48.078,-48.077 -26.552,0 -48.076,21.525 -48.076,48.077"
               style="fill:#524f50;fill-opacity:1;fill-rule:nonzero;stroke:none"
               id="path254" />
            <path
               d="m 171.8,211.676 c 0,25.345 20.546,45.89 45.89,45.89 25.346,0 45.891,-20.545 45.891,-45.89 0,-25.345 -20.545,-45.89 -45.891,-45.89 -25.344,0 -45.89,20.545 -45.89,45.89"
               style="fill:#535051;fill-opacity:1;fill-rule:nonzero;stroke:none"
               id="path256" />
            <path
               d="m 173.985,211.676 c 0,24.138 19.568,43.705 43.705,43.705 24.139,0 43.706,-19.567 43.706,-43.705 0,-24.138 -19.567,-43.705 -43.706,-43.705 -24.137,0 -43.705,19.567 -43.705,43.705"
               style="fill:#545152;fill-opacity:1;fill-rule:nonzero;stroke:none"
               id="path258" />
            <path
               d="m 176.171,211.676 c 0,22.931 18.588,41.52 41.519,41.52 22.932,0 41.52,-18.589 41.52,-41.52 0,-22.931 -18.588,-41.52 -41.52,-41.52 -22.931,0 -41.519,18.589 -41.519,41.52"
               style="fill:#555253;fill-opacity:1;fill-rule:nonzero;stroke:none"
               id="path260" />
            <path
               d="m 178.356,211.676 c 0,21.724 17.61,39.335 39.334,39.335 21.725,0 39.335,-17.611 39.335,-39.335 0,-21.724 -17.61,-39.335 -39.335,-39.335 -21.724,0 -39.334,17.611 -39.334,39.335"
               style="fill:#565354;fill-opacity:1;fill-rule:nonzero;stroke:none"
               id="path262" />
            <path
               d="m 180.541,211.676 c 0,20.517 16.632,37.15 37.149,37.15 20.518,0 37.15,-16.633 37.15,-37.15 0,-20.517 -16.632,-37.15 -37.15,-37.15 -20.517,0 -37.149,16.633 -37.149,37.15"
               style="fill:#575454;fill-opacity:1;fill-rule:nonzero;stroke:none"
               id="path264" />
            <path
               d="m 182.726,211.676 c 0,19.31 15.654,34.965 34.964,34.965 19.311,0 34.965,-15.655 34.965,-34.965 0,-19.31 -15.654,-34.965 -34.965,-34.965 -19.31,0 -34.964,15.655 -34.964,34.965"
               style="fill:#585555;fill-opacity:1;fill-rule:nonzero;stroke:none"
               id="path266" />
            <path
               d="m 184.912,211.676 c 0,18.104 14.675,32.779 32.778,32.779 18.104,0 32.78,-14.675 32.78,-32.779 0,-18.104 -14.676,-32.779 -32.78,-32.779 -18.103,0 -32.778,14.675 -32.778,32.779"
               style="fill:#585556;fill-opacity:1;fill-rule:nonzero;stroke:none"
               id="path268" />
            <path
               d="m 187.097,211.676 c 0,16.897 13.697,30.594 30.593,30.594 16.897,0 30.595,-13.697 30.595,-30.594 0,-16.897 -13.698,-30.594 -30.595,-30.594 -16.896,0 -30.593,13.697 -30.593,30.594"
               style="fill:#595657;fill-opacity:1;fill-rule:nonzero;stroke:none"
               id="path270" />
            <path
               d="m 189.282,211.676 c 0,15.69 12.718,28.409 28.408,28.409 15.69,0 28.41,-12.719 28.41,-28.409 0,-15.69 -12.72,-28.409 -28.41,-28.409 -15.69,0 -28.408,12.719 -28.408,28.409"
               style="fill:#5a5758;fill-opacity:1;fill-rule:nonzero;stroke:none"
               id="path272" />
            <path
               d="m 191.467,211.676 c 0,14.483 11.741,26.223 26.223,26.223 14.484,0 26.224,-11.74 26.224,-26.223 0,-14.483 -11.74,-26.224 -26.224,-26.224 -14.482,0 -26.223,11.741 -26.223,26.224"
               style="fill:#5b5859;fill-opacity:1;fill-rule:nonzero;stroke:none"
               id="path274" />
            <path
               d="m 193.652,211.676 c 0,13.276 10.763,24.038 24.038,24.038 13.277,0 24.039,-10.762 24.039,-24.038 0,-13.276 -10.762,-24.038 -24.039,-24.038 -13.275,0 -24.038,10.762 -24.038,24.038"
               style="fill:#5c595a;fill-opacity:1;fill-rule:nonzero;stroke:none"
               id="path276" />
            <path
               d="m 195.839,211.676 c 0,12.069 9.783,21.852 21.851,21.852 12.069,0 21.852,-9.783 21.852,-21.852 0,-12.069 -9.783,-21.852 -21.852,-21.852 -12.068,0 -21.851,9.783 -21.851,21.852"
               style="fill:#5d5a5b;fill-opacity:1;fill-rule:nonzero;stroke:none"
               id="path278" />
            <path
               d="m 198.024,211.676 c 0,10.862 8.805,19.667 19.666,19.667 10.862,0 19.667,-8.805 19.667,-19.667 0,-10.862 -8.805,-19.667 -19.667,-19.667 -10.861,0 -19.666,8.805 -19.666,19.667"
               style="fill:#5e5b5c;fill-opacity:1;fill-rule:nonzero;stroke:none"
               id="path280" />
            <path
               d="m 200.209,211.676 c 0,9.655 7.827,17.482 17.481,17.482 9.656,0 17.482,-7.827 17.482,-17.482 0,-9.655 -7.826,-17.482 -17.482,-17.482 -9.654,0 -17.481,7.827 -17.481,17.482"
               style="fill:#5f5c5d;fill-opacity:1;fill-rule:nonzero;stroke:none"
               id="path282" />
            <path
               d="m 202.395,211.676 c 0,8.448 6.848,15.296 15.295,15.296 8.449,0 15.297,-6.848 15.297,-15.296 0,-8.448 -6.848,-15.296 -15.297,-15.296 -8.447,0 -15.295,6.848 -15.295,15.296"
               style="fill:#605d5e;fill-opacity:1;fill-rule:nonzero;stroke:none"
               id="path284" />
            <path
               d="m 204.58,211.676 c 0,7.241 5.87,13.111 13.11,13.111 7.242,0 13.112,-5.87 13.112,-13.111 0,-7.241 -5.87,-13.111 -13.112,-13.111 -7.24,0 -13.11,5.87 -13.11,13.111"
               style="fill:#615e5e;fill-opacity:1;fill-rule:nonzero;stroke:none"
               id="path286" />
            <path
               d="m 206.765,211.676 c 0,6.034 4.891,10.926 10.925,10.926 6.035,0 10.927,-4.892 10.927,-10.926 0,-6.034 -4.892,-10.926 -10.927,-10.926 -6.034,0 -10.925,4.892 -10.925,10.926"
               style="fill:#615f5f;fill-opacity:1;fill-rule:nonzero;stroke:none"
               id="path288" />
            <path
               d="m 208.95,211.676 c 0,4.827 3.913,8.741 8.74,8.741 4.828,0 8.742,-3.914 8.742,-8.741 0,-4.827 -3.914,-8.741 -8.742,-8.741 -4.827,0 -8.74,3.914 -8.74,8.741"
               style="fill:#626060;fill-opacity:1;fill-rule:nonzero;stroke:none"
               id="path290" />
            <path
               d="m 211.135,211.676 c 0,3.62 2.935,6.555 6.555,6.555 3.621,0 6.556,-2.935 6.556,-6.555 0,-3.621 -2.935,-6.555 -6.556,-6.555 -3.62,0 -6.555,2.934 -6.555,6.555"
               style="fill:#636061;fill-opacity:1;fill-rule:nonzero;stroke:none"
               id="path292" />
            <path
               d="m 213.32,211.676 c 0,2.414 1.957,4.37 4.37,4.37 2.414,0 4.371,-1.956 4.371,-4.37 0,-2.414 -1.957,-4.37 -4.371,-4.37 -2.413,0 -4.37,1.956 -4.37,4.37"
               style="fill:#646162;fill-opacity:1;fill-rule:nonzero;stroke:none"
               id="path294" />
            <path
               d="m 215.505,211.676 c 0,1.207 0.979,2.185 2.185,2.185 1.207,0 2.186,-0.978 2.186,-2.185 0,-1.207 -0.979,-2.185 -2.186,-2.185 -1.206,0 -2.185,0.978 -2.185,2.185"
               style="fill:#656263;fill-opacity:1;fill-rule:nonzero;stroke:none"
               id="path296" />
          </g>
        </g>
        <g
           id="g298">
          <g
             id="g300"
             clip-path="url(#clipPath304)">
            <g
               id="g306">
              <g
                 id="g308"
                 clip-path="url(#clipPath312)">
                <g
                   id="g314">
                  <g
                     id="g316"
                     clip-path="url(#clipPath320)">
                    <path
                       d="m 204.576,308.737 h 112.43 V 196.305 h -112.43 z"
                       style="fill:#bdbcbc;fill-opacity:1;fill-rule:nonzero;stroke:none"
                       id="path322" />
                    <path
                       d="m 181.431,300.325 c 26.333,26.333 76.141,19.217 111.251,-15.895 35.11,-35.111 42.226,-84.92 15.893,-111.253 -26.332,-26.332 -76.141,-19.216 -111.251,15.895 -35.111,35.111 -42.226,84.92 -15.893,111.253"
                       style="fill:#bdbcbc;fill-opacity:1;fill-rule:nonzero;stroke:none"
                       id="path324" />
                    <path
                       d="m 182.182,299.604 c 26.037,26.038 75.286,19.001 110.003,-15.716 34.716,-34.717 41.751,-83.967 15.714,-110.004 -26.037,-26.037 -75.286,-19.001 -110.003,15.716 -34.716,34.717 -41.751,83.967 -15.714,110.004"
                       style="fill:#bcbbbb;fill-opacity:1;fill-rule:nonzero;stroke:none"
                       id="path326" />
                    <path
                       d="m 182.876,298.885 c 25.741,25.74 74.43,18.784 108.752,-15.538 34.322,-34.323 41.277,-83.013 15.536,-108.754 -25.741,-25.741 -74.43,-18.784 -108.752,15.538 -34.321,34.323 -41.277,83.013 -15.536,108.754"
                       style="fill:#bbbaba;fill-opacity:1;fill-rule:nonzero;stroke:none"
                       id="path328" />
                    <path
                       d="m 183.598,298.193 c 25.446,25.445 73.575,18.569 107.502,-15.359 33.927,-33.928 40.802,-82.058 15.357,-107.503 -25.445,-25.446 -73.575,-18.57 -107.502,15.358 -33.927,33.928 -40.802,82.059 -15.357,107.504"
                       style="fill:#bab9b9;fill-opacity:1;fill-rule:nonzero;stroke:none"
                       id="path330" />
                    <path
                       d="m 184.292,297.473 c 25.15,25.15 72.719,18.353 106.252,-15.18 33.532,-33.533 40.328,-81.104 15.178,-106.253 -25.149,-25.149 -72.719,-18.353 -106.251,15.18 -33.533,33.533 -40.328,81.104 -15.179,106.253"
                       style="fill:#b9b8b8;fill-opacity:1;fill-rule:nonzero;stroke:none"
                       id="path332" />
                    <path
                       d="m 185.043,296.752 c 24.854,24.854 71.865,18.138 105.003,-15.002 33.138,-33.138 39.854,-80.149 15,-105.003 -24.854,-24.854 -71.864,-18.138 -105.003,15.002 -33.138,33.139 -39.854,80.15 -15,105.003"
                       style="fill:#b8b7b7;fill-opacity:1;fill-rule:nonzero;stroke:none"
                       id="path334" />
                    <path
                       d="m 185.738,296.033 c 24.557,24.557 71.008,17.921 103.751,-14.824 32.744,-32.744 39.38,-79.195 14.822,-103.753 -24.558,-24.558 -71.008,-17.921 -103.752,14.823 -32.743,32.745 -39.379,79.196 -14.821,103.754"
                       style="fill:#b7b6b6;fill-opacity:1;fill-rule:nonzero;stroke:none"
                       id="path336" />
                    <path
                       d="m 186.459,295.341 c 24.263,24.262 70.154,17.706 102.503,-14.644 32.349,-32.35 38.904,-78.241 14.642,-102.504 -24.262,-24.262 -70.153,-17.705 -102.502,14.644 -32.349,32.351 -38.904,78.242 -14.643,102.504"
                       style="fill:#b6b5b5;fill-opacity:1;fill-rule:nonzero;stroke:none"
                       id="path338" />
                    <path
                       d="m 187.154,294.622 c 23.966,23.965 69.297,17.489 101.251,-14.466 31.954,-31.956 38.43,-77.287 14.464,-101.254 -23.966,-23.965 -69.297,-17.489 -101.251,14.466 -31.954,31.956 -38.43,77.287 -14.464,101.254"
                       style="fill:#b5b4b4;fill-opacity:1;fill-rule:nonzero;stroke:none"
                       id="path340" />
                    <path
                       d="m 187.877,293.873 c 23.67,23.669 68.441,17.273 100.001,-14.289 31.56,-31.561 37.956,-76.333 14.287,-100.003 -23.67,-23.669 -68.441,-17.273 -100.002,14.289 -31.56,31.561 -37.956,76.333 -14.286,100.003"
                       style="fill:#b4b3b3;fill-opacity:1;fill-rule:nonzero;stroke:none"
                       id="path342" />
                    <path
                       d="m 188.599,293.181 c 23.374,23.374 67.586,17.058 98.752,-14.109 31.165,-31.166 37.481,-75.379 14.107,-98.754 -23.375,-23.374 -67.586,-17.057 -98.752,14.11 -31.165,31.166 -37.481,75.379 -14.107,98.753"
                       style="fill:#b3b2b2;fill-opacity:1;fill-rule:nonzero;stroke:none"
                       id="path344" />
                    <path
                       d="m 189.293,292.461 c 23.078,23.079 66.73,16.842 97.501,-13.93 30.771,-30.772 37.007,-74.425 13.929,-97.503 -23.078,-23.078 -66.73,-16.841 -97.501,13.93 -30.771,30.772 -37.007,74.425 -13.929,97.503"
                       style="fill:#b2b1b1;fill-opacity:1;fill-rule:nonzero;stroke:none"
                       id="path346" />
                    <path
                       d="m 190.015,291.77 c 22.783,22.782 65.875,16.626 96.252,-13.752 30.376,-30.377 36.532,-73.47 13.749,-96.253 -22.783,-22.782 -65.875,-16.626 -96.251,13.752 -30.376,30.377 -36.532,73.47 -13.75,96.253"
                       style="fill:#b1b0b0;fill-opacity:1;fill-rule:nonzero;stroke:none"
                       id="path348" />
                    <path
                       d="m 190.738,291.021 c 22.487,22.486 65.02,16.409 95.002,-13.574 29.982,-29.983 36.058,-72.517 13.572,-95.003 -22.487,-22.486 -65.02,-16.409 -95.002,13.574 -29.982,29.982 -36.058,72.516 -13.572,95.003"
                       style="fill:#b0afaf;fill-opacity:1;fill-rule:nonzero;stroke:none"
                       id="path350" />
                    <path
                       d="m 191.46,290.329 c 22.191,22.191 64.165,16.194 93.752,-13.394 29.588,-29.589 35.584,-71.563 13.393,-93.754 -22.191,-22.191 -64.164,-16.194 -93.752,13.395 -29.587,29.588 -35.583,71.562 -13.393,93.753"
                       style="fill:#afaeae;fill-opacity:1;fill-rule:nonzero;stroke:none"
                       id="path352" />
                    <path
                       d="m 192.154,289.609 c 21.895,21.895 63.309,15.978 92.502,-13.215 29.193,-29.194 35.109,-70.609 13.214,-92.503 -21.895,-21.895 -63.308,-15.978 -92.501,13.215 -29.193,29.194 -35.109,70.609 -13.215,92.503"
                       style="fill:#aeadad;fill-opacity:1;fill-rule:nonzero;stroke:none"
                       id="path354" />
                    <path
                       d="m 192.876,288.917 c 21.6,21.6 62.454,15.763 91.252,-13.036 28.798,-28.799 34.634,-69.654 13.035,-91.253 -21.599,-21.599 -62.453,-15.762 -91.251,13.037 -28.799,28.799 -34.634,69.653 -13.036,91.252"
                       style="fill:#adacac;fill-opacity:1;fill-rule:nonzero;stroke:none"
                       id="path356" />
                    <path
                       d="m 193.6,288.169 c 21.303,21.303 61.597,15.546 90.001,-12.859 28.404,-28.405 34.161,-68.701 12.858,-90.003 -21.303,-21.304 -61.598,-15.546 -90.002,12.859 -28.404,28.405 -34.16,68.7 -12.857,90.003"
                       style="fill:#acabab;fill-opacity:1;fill-rule:nonzero;stroke:none"
                       id="path358" />
                    <path
                       d="m 194.294,287.449 c 21.007,21.007 60.741,15.33 88.751,-12.68 28.009,-28.011 33.686,-67.746 12.679,-88.753 -21.007,-21.007 -60.742,-15.33 -88.751,12.681 -28.01,28.01 -33.686,67.745 -12.679,88.752"
                       style="fill:#abaaaa;fill-opacity:1;fill-rule:nonzero;stroke:none"
                       id="path360" />
                    <path
                       d="m 195.016,286.758 c 20.712,20.711 59.886,15.114 87.501,-12.502 27.615,-27.616 33.211,-66.792 12.5,-87.503 -20.711,-20.711 -59.886,-15.114 -87.501,12.502 -27.615,27.616 -33.211,66.791 -12.5,87.503"
                       style="fill:#aaa9a9;fill-opacity:1;fill-rule:nonzero;stroke:none"
                       id="path362" />
                    <path
                       d="m 195.739,286.038 c 20.415,20.415 59.031,14.898 86.251,-12.323 27.221,-27.221 32.738,-65.837 12.323,-86.253 -20.416,-20.415 -59.031,-14.898 -86.251,12.324 -27.221,27.221 -32.738,65.837 -12.323,86.252"
                       style="fill:#a9a8a8;fill-opacity:1;fill-rule:nonzero;stroke:none"
                       id="path364" />
                    <path
                       d="m 196.461,285.317 c 20.12,20.12 58.176,14.683 85.002,-12.145 26.826,-26.826 32.262,-64.883 12.142,-85.003 -20.119,-20.119 -58.175,-14.682 -85.001,12.145 -26.826,26.827 -32.262,64.884 -12.143,85.003"
                       style="fill:#a8a7a7;fill-opacity:1;fill-rule:nonzero;stroke:none"
                       id="path366" />
                    <path
                       d="m 197.155,284.598 c 19.824,19.823 57.32,14.465 83.751,-11.967 26.432,-26.432 31.788,-63.929 11.965,-83.753 -19.824,-19.823 -57.32,-14.465 -83.751,11.967 -26.432,26.432 -31.788,63.929 -11.965,83.753"
                       style="fill:#a7a6a6;fill-opacity:1;fill-rule:nonzero;stroke:none"
                       id="path368" />
                    <path
                       d="m 197.877,283.906 c 19.528,19.528 56.465,14.25 82.501,-11.787 26.038,-26.038 31.314,-62.975 11.786,-82.503 -19.528,-19.528 -56.464,-14.251 -82.501,11.787 -26.037,26.038 -31.313,62.975 -11.786,82.503"
                       style="fill:#a6a5a5;fill-opacity:1;fill-rule:nonzero;stroke:none"
                       id="path370" />
                    <path
                       d="m 198.601,283.186 c 19.232,19.232 55.608,14.035 81.251,-11.609 25.643,-25.643 30.839,-62.02 11.607,-81.252 -19.231,-19.232 -55.608,-14.034 -81.251,11.609 -25.643,25.643 -30.839,62.02 -11.607,81.252"
                       style="fill:#a5a4a4;fill-opacity:1;fill-rule:nonzero;stroke:none"
                       id="path372" />
                    <path
                       d="m 199.323,282.465 c 18.936,18.936 54.753,13.819 80.001,-11.43 25.248,-25.249 30.365,-61.067 11.429,-80.003 -18.937,-18.936 -54.754,-13.819 -80.002,11.43 -25.248,25.249 -30.365,61.067 -11.428,80.003"
                       style="fill:#a4a2a3;fill-opacity:1;fill-rule:nonzero;stroke:none"
                       id="path374" />
                    <path
                       d="m 200.017,281.746 c 18.64,18.64 53.897,13.602 78.751,-11.252 24.853,-24.854 29.89,-60.113 11.25,-78.753 -18.64,-18.64 -53.898,-13.602 -78.751,11.252 -24.853,24.854 -29.891,60.112 -11.25,78.753"
                       style="fill:#a3a2a2;fill-opacity:1;fill-rule:nonzero;stroke:none"
                       id="path376" />
                    <path
                       d="m 200.739,281.054 c 18.344,18.344 53.042,13.387 77.501,-11.073 24.459,-24.46 29.415,-59.158 11.071,-77.502 -18.345,-18.345 -53.042,-13.388 -77.501,11.072 -24.459,24.46 -29.415,59.158 -11.071,77.503"
                       style="fill:#a2a1a1;fill-opacity:1;fill-rule:nonzero;stroke:none"
                       id="path378" />
                    <path
                       d="m 201.462,280.334 c 18.048,18.049 52.187,13.171 76.251,-10.894 24.065,-24.065 28.942,-58.204 10.893,-76.252 -18.048,-18.048 -52.186,-13.171 -76.251,10.894 -24.064,24.065 -28.941,58.204 -10.893,76.252"
                       style="fill:#a1a0a0;fill-opacity:1;fill-rule:nonzero;stroke:none"
                       id="path380" />
                    <path
                       d="m 202.156,279.585 c 17.752,17.753 51.331,12.955 75.001,-10.716 23.67,-23.671 28.467,-57.25 10.715,-75.002 -17.753,-17.753 -51.331,-12.955 -75.001,10.716 -23.67,23.671 -28.467,57.25 -10.715,75.002"
                       style="fill:#a09f9f;fill-opacity:1;fill-rule:nonzero;stroke:none"
                       id="path382" />
                    <path
                       d="m 202.878,278.894 c 17.457,17.457 50.476,12.739 73.751,-10.538 23.275,-23.276 27.993,-56.295 10.536,-73.752 -17.457,-17.457 -50.476,-12.739 -73.751,10.537 -23.276,23.276 -27.993,56.296 -10.536,73.753"
                       style="fill:#9f9e9e;fill-opacity:1;fill-rule:nonzero;stroke:none"
                       id="path384" />
                    <path
                       d="m 203.572,278.174 c 17.161,17.16 49.62,12.523 72.501,-10.359 22.88,-22.881 27.517,-55.341 10.357,-72.502 -17.161,-17.161 -49.62,-12.522 -72.501,10.359 -22.88,22.882 -27.517,55.342 -10.357,72.502"
                       style="fill:#9e9d9d;fill-opacity:1;fill-rule:nonzero;stroke:none"
                       id="path386" />
                    <path
                       d="m 204.323,277.482 c 16.865,16.865 48.765,12.308 71.252,-10.179 22.487,-22.487 27.044,-54.387 10.178,-71.253 -16.864,-16.864 -48.764,-12.307 -71.251,10.18 -22.486,22.487 -27.044,54.387 -10.179,71.252"
                       style="fill:#9d9c9c;fill-opacity:1;fill-rule:nonzero;stroke:none"
                       id="path388" />
                    <path
                       d="m 205.018,276.734 c 16.568,16.569 47.908,12.091 70,-10.003 22.092,-22.092 26.569,-53.433 10.001,-70.002 -16.569,-16.569 -47.909,-12.091 -70.001,10.002 -22.092,22.093 -26.569,53.434 -10,70.003"
                       style="fill:#9c9b9b;fill-opacity:1;fill-rule:nonzero;stroke:none"
                       id="path390" />
                    <path
                       d="m 205.74,276.042 c 16.273,16.273 47.053,11.875 68.751,-9.823 21.697,-21.698 26.094,-52.479 9.821,-68.753 -16.273,-16.273 -47.054,-11.875 -68.751,9.823 -21.698,21.699 -26.095,52.48 -9.821,68.753"
                       style="fill:#9b9a9a;fill-opacity:1;fill-rule:nonzero;stroke:none"
                       id="path392" />
                    <path
                       d="m 206.434,275.322 c 15.977,15.977 46.197,11.659 67.5,-9.644 21.303,-21.304 25.62,-51.525 9.643,-67.502 -15.977,-15.977 -46.198,-11.659 -67.501,9.644 -21.302,21.304 -25.619,51.525 -9.642,67.502"
                       style="fill:#9a9999;fill-opacity:1;fill-rule:nonzero;stroke:none"
                       id="path394" />
                    <path
                       d="m 207.185,274.63 c 15.681,15.682 45.342,11.445 66.251,-9.464 20.909,-20.91 25.146,-50.571 9.464,-66.253 -15.681,-15.682 -45.342,-11.444 -66.251,9.465 -20.908,20.91 -25.146,50.571 -9.464,66.252"
                       style="fill:#999898;fill-opacity:1;fill-rule:nonzero;stroke:none"
                       id="path396" />
                    <path
                       d="m 207.879,273.882 c 15.385,15.385 44.487,11.227 65,-9.288 20.515,-20.514 24.672,-49.616 9.287,-65.002 -15.386,-15.385 -44.487,-11.228 -65.001,9.287 -20.514,20.516 -24.671,49.618 -9.286,65.003"
                       style="fill:#989797;fill-opacity:1;fill-rule:nonzero;stroke:none"
                       id="path398" />
                    <path
                       d="m 208.573,273.162 c 15.09,15.089 43.631,11.011 63.75,-9.109 20.119,-20.12 24.197,-48.662 9.108,-63.752 -15.09,-15.089 -43.631,-11.011 -63.75,9.109 -20.12,20.121 -24.197,48.663 -9.108,63.752"
                       style="fill:#979696;fill-opacity:1;fill-rule:nonzero;stroke:none"
                       id="path400" />
                    <path
                       d="m 209.295,272.47 c 14.794,14.794 42.776,10.796 62.5,-8.929 19.725,-19.726 23.723,-47.709 8.929,-62.502 -14.794,-14.794 -42.776,-10.796 -62.501,8.929 -19.724,19.726 -23.722,47.709 -8.928,62.502"
                       style="fill:#979595;fill-opacity:1;fill-rule:nonzero;stroke:none"
                       id="path402" />
                    <path
                       d="m 210.018,271.75 c 14.498,14.498 41.92,10.58 61.251,-8.751 19.33,-19.331 23.248,-46.753 8.751,-61.251 -14.499,-14.498 -41.92,-10.58 -61.251,8.752 -19.331,19.33 -23.248,46.753 -8.751,61.25"
                       style="fill:#959394;fill-opacity:1;fill-rule:nonzero;stroke:none"
                       id="path404" />
                    <path
                       d="m 210.74,271.03 c 14.202,14.202 41.065,10.364 60.001,-8.573 18.936,-18.937 22.774,-45.801 8.572,-60.002 -14.203,-14.203 -41.065,-10.364 -60.001,8.572 -18.936,18.937 -22.774,45.801 -8.572,60.003"
                       style="fill:#959393;fill-opacity:1;fill-rule:nonzero;stroke:none"
                       id="path406" />
                    <path
                       d="m 211.435,270.311 c 13.905,13.905 40.208,10.147 58.75,-8.395 18.541,-18.542 22.298,-44.846 8.393,-58.752 -13.907,-13.906 -40.209,-10.148 -58.751,8.395 -18.541,18.542 -22.299,44.845 -8.392,58.752"
                       style="fill:#939192;fill-opacity:1;fill-rule:nonzero;stroke:none"
                       id="path408" />
                    <path
                       d="m 212.186,269.619 c 13.61,13.61 39.354,9.932 57.501,-8.216 18.147,-18.148 21.825,-43.891 8.214,-57.502 -13.61,-13.61 -39.354,-9.932 -57.501,8.216 -18.147,18.147 -21.825,43.891 -8.214,57.502"
                       style="fill:#939191;fill-opacity:1;fill-rule:nonzero;stroke:none"
                       id="path410" />
                    <path
                       d="m 212.879,268.899 c 13.315,13.314 38.499,9.716 56.251,-8.037 17.753,-17.753 21.35,-42.937 8.037,-56.252 -13.315,-13.314 -38.499,-9.715 -56.251,8.037 -17.753,17.753 -21.351,42.937 -8.037,56.252"
                       style="fill:#918f90;fill-opacity:1;fill-rule:nonzero;stroke:none"
                       id="path412" />
                    <path
                       d="m 213.602,268.178 c 13.019,13.019 37.643,9.501 55.001,-7.859 17.357,-17.358 20.875,-41.983 7.856,-55.002 -13.018,-13.018 -37.643,-9.5 -55.001,7.859 -17.357,17.359 -20.875,41.984 -7.856,55.002"
                       style="fill:#918f8f;fill-opacity:1;fill-rule:nonzero;stroke:none"
                       id="path414" />
                    <path
                       d="m 214.296,267.458 c 12.723,12.723 36.787,9.285 53.75,-7.68 16.963,-16.964 20.401,-41.029 7.679,-53.752 -12.723,-12.722 -36.787,-9.284 -53.751,7.681 -16.963,16.964 -20.401,41.029 -7.678,53.751"
                       style="fill:#8f8d8e;fill-opacity:1;fill-rule:nonzero;stroke:none"
                       id="path416" />
                    <path
                       d="m 215.047,266.767 c 12.427,12.427 35.932,9.068 52.501,-7.501 16.569,-16.57 19.927,-40.075 7.5,-52.502 -12.427,-12.427 -35.932,-9.069 -52.501,7.501 -16.569,16.569 -19.927,40.075 -7.5,52.502"
                       style="fill:#8f8d8d;fill-opacity:1;fill-rule:nonzero;stroke:none"
                       id="path418" />
                    <path
                       d="m 215.741,266.047 c 12.131,12.131 35.076,8.852 51.251,-7.322 16.174,-16.175 19.452,-39.121 7.321,-51.252 -12.13,-12.131 -35.076,-8.852 -51.25,7.322 -16.175,16.176 -19.453,39.122 -7.322,51.252"
                       style="fill:#8d8b8c;fill-opacity:1;fill-rule:nonzero;stroke:none"
                       id="path420" />
                    <path
                       d="m 216.435,265.298 c 11.835,11.835 34.22,8.636 50,-7.145 15.78,-15.78 18.978,-38.167 7.143,-50.001 -11.834,-11.835 -34.22,-8.636 -49.999,7.145 -15.78,15.781 -18.978,38.167 -7.144,50.001"
                       style="fill:#8d8b8b;fill-opacity:1;fill-rule:nonzero;stroke:none"
                       id="path422" />
                    <path
                       d="m 217.157,264.606 c 11.539,11.54 33.365,8.421 48.75,-6.965 15.385,-15.386 18.504,-37.213 6.965,-48.752 -11.539,-11.539 -33.366,-8.42 -48.751,6.966 -15.385,15.386 -18.503,37.212 -6.964,48.751"
                       style="fill:#8c898a;fill-opacity:1;fill-rule:nonzero;stroke:none"
                       id="path424" />
                    <path
                       d="m 217.88,263.887 c 11.244,11.243 32.51,8.204 47.501,-6.787 14.991,-14.992 18.029,-36.259 6.786,-47.501 -11.243,-11.244 -32.509,-8.205 -47.5,6.787 -14.991,14.991 -18.03,36.258 -6.787,47.501"
                       style="fill:#8b8989;fill-opacity:1;fill-rule:nonzero;stroke:none"
                       id="path426" />
                    <path
                       d="m 218.603,263.195 c 10.947,10.948 31.654,7.989 46.25,-6.608 14.597,-14.597 17.555,-35.304 6.607,-46.251 -10.947,-10.948 -31.654,-7.989 -46.251,6.608 -14.596,14.597 -17.554,35.304 -6.606,46.251"
                       style="fill:#8a8788;fill-opacity:1;fill-rule:nonzero;stroke:none"
                       id="path428" />
                    <path
                       d="m 219.296,262.446 c 10.652,10.652 30.799,7.773 45,-6.43 14.203,-14.203 17.08,-34.35 6.429,-45.002 -10.651,-10.651 -30.798,-7.772 -44.999,6.431 -14.203,14.202 -17.08,34.35 -6.43,45.001"
                       style="fill:#898687;fill-opacity:1;fill-rule:nonzero;stroke:none"
                       id="path430" />
                    <path
                       d="m 220.019,261.755 c 10.356,10.355 29.943,7.557 43.75,-6.251 13.807,-13.809 16.605,-33.397 6.25,-43.752 -10.356,-10.356 -29.944,-7.557 -43.751,6.251 -13.807,13.808 -16.605,33.396 -6.249,43.752"
                       style="fill:#888586;fill-opacity:1;fill-rule:nonzero;stroke:none"
                       id="path432" />
                    <path
                       d="m 220.742,261.035 c 10.059,10.06 29.087,7.341 42.5,-6.073 13.413,-13.413 16.132,-32.441 6.072,-42.501 -10.06,-10.06 -29.087,-7.34 -42.501,6.073 -13.412,13.413 -16.131,32.442 -6.071,42.501"
                       style="fill:#878485;fill-opacity:1;fill-rule:nonzero;stroke:none"
                       id="path434" />
                    <path
                       d="m 221.464,260.343 c 9.764,9.764 28.232,7.126 41.25,-5.893 13.019,-13.019 15.657,-31.488 5.893,-41.251 -9.764,-9.764 -28.232,-7.126 -41.251,5.893 -13.018,13.019 -15.656,31.488 -5.892,41.251"
                       style="fill:#868384;fill-opacity:1;fill-rule:nonzero;stroke:none"
                       id="path436" />
                    <path
                       d="m 222.158,259.595 c 9.468,9.468 27.376,6.908 40,-5.716 12.624,-12.625 15.182,-30.534 5.714,-40.002 -9.468,-9.468 -27.376,-6.909 -40,5.716 -12.623,12.625 -15.182,30.534 -5.714,40.002"
                       style="fill:#858283;fill-opacity:1;fill-rule:nonzero;stroke:none"
                       id="path438" />
                    <path
                       d="m 222.88,258.903 c 9.172,9.172 26.521,6.693 38.75,-5.537 12.229,-12.23 14.707,-29.579 5.535,-38.752 -9.172,-9.172 -26.52,-6.693 -38.75,5.537 -12.229,12.23 -14.707,29.58 -5.535,38.752"
                       style="fill:#848182;fill-opacity:1;fill-rule:nonzero;stroke:none"
                       id="path440" />
                    <path
                       d="m 223.603,258.183 c 8.876,8.877 25.666,6.477 37.501,-5.358 11.834,-11.836 14.233,-28.625 5.357,-37.501 -8.876,-8.876 -25.665,-6.477 -37.5,5.358 -11.836,11.836 -14.234,28.625 -5.358,37.501"
                       style="fill:#838081;fill-opacity:1;fill-rule:nonzero;stroke:none"
                       id="path442" />
                    <path
                       d="m 224.297,257.463 c 8.58,8.58 24.809,6.262 36.25,-5.179 11.44,-11.441 13.759,-27.671 5.179,-36.251 -8.58,-8.58 -24.809,-6.261 -36.249,5.18 -11.441,11.441 -13.76,27.67 -5.18,36.25"
                       style="fill:#827f80;fill-opacity:1;fill-rule:nonzero;stroke:none"
                       id="path444" />
                    <path
                       d="m 225.02,256.743 c 8.284,8.284 23.954,6.045 35,-5.002 11.045,-11.046 13.284,-26.717 4.999,-35.001 -8.284,-8.285 -23.954,-6.046 -35,5.001 -11.045,11.047 -13.284,26.717 -4.999,35.002"
                       style="fill:#817e7f;fill-opacity:1;fill-rule:nonzero;stroke:none"
                       id="path446" />
                    <path
                       d="m 225.713,256.023 c 7.989,7.989 23.099,5.829 33.75,-4.823 10.651,-10.652 12.809,-25.762 4.821,-33.751 -7.988,-7.988 -23.098,-5.829 -33.749,4.823 -10.651,10.652 -12.81,25.763 -4.822,33.751"
                       style="fill:#807d7e;fill-opacity:1;fill-rule:nonzero;stroke:none"
                       id="path448" />
                    <path
                       d="m 226.465,255.332 c 7.692,7.692 22.243,5.613 32.5,-4.644 10.257,-10.258 12.336,-24.809 4.643,-32.501 -7.692,-7.693 -22.243,-5.614 -32.501,4.643 -10.256,10.257 -12.335,24.809 -4.642,32.502"
                       style="fill:#7f7c7d;fill-opacity:1;fill-rule:nonzero;stroke:none"
                       id="path450" />
                    <path
                       d="m 227.159,254.612 c 7.396,7.396 21.387,5.397 31.25,-4.466 9.862,-9.862 11.861,-23.854 4.464,-31.25 -7.396,-7.397 -21.387,-5.398 -31.25,4.465 -9.862,9.863 -11.861,23.854 -4.464,31.251"
                       style="fill:#7e7b7c;fill-opacity:1;fill-rule:nonzero;stroke:none"
                       id="path452" />
                    <path
                       d="m 227.881,253.891 c 7.101,7.101 20.532,5.182 30,-4.287 9.468,-9.469 11.386,-22.9 4.285,-30.001 -7.101,-7.102 -20.532,-5.182 -30,4.286 -9.467,9.469 -11.386,22.901 -4.285,30.002"
                       style="fill:#7d7a7b;fill-opacity:1;fill-rule:nonzero;stroke:none"
                       id="path454" />
                    <path
                       d="m 228.604,253.171 c 6.805,6.805 19.677,4.966 28.75,-4.108 9.074,-9.074 10.913,-21.946 4.108,-28.751 -6.805,-6.805 -19.677,-4.966 -28.75,4.108 -9.074,9.074 -10.913,21.946 -4.108,28.751"
                       style="fill:#7c797a;fill-opacity:1;fill-rule:nonzero;stroke:none"
                       id="path456" />
                    <path
                       d="m 229.326,252.479 c 6.509,6.51 18.821,4.75 27.501,-3.929 8.678,-8.679 10.437,-20.991 3.928,-27.501 -6.509,-6.509 -18.821,-4.75 -27.501,3.93 -8.678,8.679 -10.437,20.991 -3.928,27.5"
                       style="fill:#7b7879;fill-opacity:1;fill-rule:nonzero;stroke:none"
                       id="path458" />
                    <path
                       d="m 230.02,251.76 c 6.213,6.213 17.966,4.534 26.25,-3.751 8.284,-8.285 9.963,-20.037 3.75,-26.251 -6.213,-6.213 -17.965,-4.533 -26.249,3.751 -8.285,8.285 -9.964,20.038 -3.751,26.251"
                       style="fill:#7a7778;fill-opacity:1;fill-rule:nonzero;stroke:none"
                       id="path460" />
                    <path
                       d="m 230.714,251.011 c 5.917,5.917 17.11,4.318 24.999,-3.573 7.89,-7.891 9.489,-19.084 3.572,-25.001 -5.917,-5.917 -17.109,-4.317 -24.999,3.573 -7.89,7.891 -9.489,19.084 -3.572,25.001"
                       style="fill:#797677;fill-opacity:1;fill-rule:nonzero;stroke:none"
                       id="path462" />
                    <path
                       d="m 231.465,250.319 c 5.622,5.622 16.255,4.102 23.751,-3.394 7.495,-7.496 9.014,-18.129 3.393,-23.751 -5.622,-5.621 -16.255,-4.102 -23.751,3.394 -7.495,7.496 -9.014,18.13 -3.393,23.751"
                       style="fill:#787576;fill-opacity:1;fill-rule:nonzero;stroke:none"
                       id="path464" />
                    <path
                       d="m 232.16,249.6 c 5.325,5.325 15.398,3.885 22.499,-3.216 7.101,-7.101 8.54,-17.175 3.215,-22.5 -5.326,-5.326 -15.399,-3.886 -22.499,3.216 -7.102,7.101 -8.541,17.174 -3.215,22.5"
                       style="fill:#777475;fill-opacity:1;fill-rule:nonzero;stroke:none"
                       id="path466" />
                    <path
                       d="m 232.882,248.908 c 5.03,5.03 14.543,3.671 21.249,-3.036 6.707,-6.707 8.066,-16.221 3.036,-21.251 -5.03,-5.03 -14.543,-3.67 -21.25,3.036 -6.706,6.707 -8.065,16.221 -3.035,21.251"
                       style="fill:#767374;fill-opacity:1;fill-rule:nonzero;stroke:none"
                       id="path468" />
                    <path
                       d="m 233.576,248.159 c 4.734,4.734 13.687,3.454 19.999,-2.859 6.312,-6.312 7.591,-15.267 2.857,-20 -4.734,-4.734 -13.687,-3.454 -19.999,2.859 -6.312,6.312 -7.591,15.267 -2.857,20"
                       style="fill:#757273;fill-opacity:1;fill-rule:nonzero;stroke:none"
                       id="path470" />
                    <path
                       d="m 234.327,247.468 c 4.438,4.438 12.833,3.238 18.75,-2.68 5.918,-5.918 7.117,-14.313 2.679,-18.751 -4.438,-4.438 -12.833,-3.238 -18.751,2.68 -5.917,5.918 -7.116,14.313 -2.678,18.751"
                       style="fill:#747172;fill-opacity:1;fill-rule:nonzero;stroke:none"
                       id="path472" />
                    <path
                       d="m 235.021,246.748 c 4.142,4.142 11.977,3.022 17.5,-2.501 5.522,-5.523 6.642,-13.359 2.5,-17.5 -4.142,-4.143 -11.977,-3.023 -17.5,2.501 -5.522,5.523 -6.642,13.358 -2.5,17.5"
                       style="fill:#737071;fill-opacity:1;fill-rule:nonzero;stroke:none"
                       id="path474" />
                    <path
                       d="m 235.743,246.056 c 3.846,3.846 11.122,2.807 16.25,-2.322 5.128,-5.129 6.167,-12.404 2.321,-16.25 -3.847,-3.847 -11.122,-2.807 -16.25,2.322 -5.128,5.128 -6.168,12.404 -2.321,16.25"
                       style="fill:#726f70;fill-opacity:1;fill-rule:nonzero;stroke:none"
                       id="path476" />
                    <path
                       d="m 236.437,245.308 c 3.55,3.55 10.266,2.59 15,-2.145 4.733,-4.734 5.692,-11.451 2.142,-15 -3.55,-3.551 -10.266,-2.591 -14.999,2.144 -4.734,4.735 -5.693,11.45 -2.143,15.001"
                       style="fill:#716e6f;fill-opacity:1;fill-rule:nonzero;stroke:none"
                       id="path478" />
                    <path
                       d="m 237.188,244.616 c 3.255,3.255 9.411,2.375 13.75,-1.965 4.34,-4.34 5.219,-10.497 1.965,-13.751 -3.255,-3.255 -9.411,-2.375 -13.751,1.965 -4.339,4.34 -5.218,10.496 -1.964,13.751"
                       style="fill:#706d6e;fill-opacity:1;fill-rule:nonzero;stroke:none"
                       id="path480" />
                    <path
                       d="m 237.882,243.896 c 2.959,2.958 8.555,2.159 12.5,-1.787 3.945,-3.945 4.744,-9.542 1.786,-12.5 -2.959,-2.959 -8.555,-2.159 -12.5,1.787 -3.944,3.945 -4.744,9.542 -1.786,12.5"
                       style="fill:#6f6c6d;fill-opacity:1;fill-rule:nonzero;stroke:none"
                       id="path482" />
                    <path
                       d="m 238.577,243.176 c 2.662,2.663 7.698,1.943 11.248,-1.608 3.55,-3.55 4.27,-8.587 1.608,-11.25 -2.662,-2.662 -7.699,-1.942 -11.249,1.609 -3.55,3.551 -4.27,8.587 -1.607,11.249"
                       style="fill:#6e6b6c;fill-opacity:1;fill-rule:nonzero;stroke:none"
                       id="path484" />
                    <path
                       d="m 239.299,242.456 c 2.367,2.367 6.843,1.727 9.999,-1.43 3.156,-3.157 3.795,-7.634 1.428,-10.001 -2.367,-2.367 -6.844,-1.727 -9.999,1.43 -3.156,3.156 -3.795,7.634 -1.428,10.001"
                       style="fill:#6d6a6b;fill-opacity:1;fill-rule:nonzero;stroke:none"
                       id="path486" />
                    <path
                       d="m 240.021,241.736 c 2.071,2.071 5.989,1.511 8.75,-1.252 2.762,-2.761 3.321,-6.679 1.25,-8.75 -2.07,-2.07 -5.987,-1.51 -8.749,1.252 -2.761,2.762 -3.321,6.679 -1.251,8.75"
                       style="fill:#6c696a;fill-opacity:1;fill-rule:nonzero;stroke:none"
                       id="path488" />
                    <path
                       d="m 240.744,241.044 c 1.775,1.775 5.132,1.295 7.499,-1.072 2.367,-2.367 2.847,-5.725 1.071,-7.5 -1.774,-1.776 -5.132,-1.295 -7.499,1.072 -2.367,2.367 -2.846,5.725 -1.071,7.5"
                       style="fill:#6b6869;fill-opacity:1;fill-rule:nonzero;stroke:none"
                       id="path490" />
                    <path
                       d="m 241.438,240.325 c 1.479,1.479 4.277,1.078 6.249,-0.894 1.972,-1.973 2.372,-4.771 0.893,-6.25 -1.479,-1.479 -4.277,-1.079 -6.249,0.894 -1.972,1.972 -2.372,4.771 -0.893,6.25"
                       style="fill:#6a6768;fill-opacity:1;fill-rule:nonzero;stroke:none"
                       id="path492" />
                    <path
                       d="m 242.16,239.604 c 1.183,1.183 3.422,0.863 4.999,-0.715 1.578,-1.579 1.897,-3.818 0.714,-5.001 -1.184,-1.184 -3.422,-0.864 -4.999,0.715 -1.578,1.579 -1.897,3.817 -0.714,5.001"
                       style="fill:#696667;fill-opacity:1;fill-rule:nonzero;stroke:none"
                       id="path494" />
                    <path
                       d="m 242.883,238.884 c 0.888,0.887 2.566,0.647 3.749,-0.537 1.184,-1.184 1.424,-2.863 0.536,-3.75 -0.887,-0.888 -2.565,-0.647 -3.749,0.537 -1.183,1.184 -1.423,2.863 -0.536,3.75"
                       style="fill:#686566;fill-opacity:1;fill-rule:nonzero;stroke:none"
                       id="path496" />
                    <path
                       d="m 243.605,238.192 c 0.592,0.592 1.711,0.432 2.5,-0.357 0.789,-0.79 0.948,-1.909 0.357,-2.501 -0.592,-0.591 -1.711,-0.431 -2.5,0.358 -0.789,0.789 -0.948,1.909 -0.357,2.5"
                       style="fill:#676465;fill-opacity:1;fill-rule:nonzero;stroke:none"
                       id="path498" />
                    <path
                       d="m 244.299,237.473 c 0.296,0.295 0.855,0.215 1.249,-0.18 0.394,-0.394 0.474,-0.954 0.179,-1.249 -0.296,-0.296 -0.855,-0.216 -1.249,0.179 -0.395,0.395 -0.474,0.954 -0.179,1.25"
                       style="fill:#666364;fill-opacity:1;fill-rule:nonzero;stroke:none"
                       id="path500" />
                  </g>
                </g>
              </g>
            </g>
          </g>
        </g>
        <path
           d="m 150.698,209.334 v 15.63 c 0,1.816 0.281,3.331 0.844,4.548 0.562,1.216 1.298,2.187 2.206,2.913 0.907,0.726 1.924,1.244 3.049,1.553 1.125,0.308 2.251,0.444 3.377,0.408 1.125,0.036 2.26,-0.091 3.403,-0.382 1.144,-0.29 2.17,-0.798 3.077,-1.525 0.908,-0.726 1.643,-1.706 2.206,-2.94 0.562,-1.234 0.844,-2.759 0.844,-4.575 v -15.63 c 0,-1.814 -0.282,-3.339 -0.844,-4.574 -0.563,-1.235 -1.298,-2.215 -2.206,-2.941 -0.907,-0.726 -1.933,-1.234 -3.077,-1.525 -1.143,-0.29 -2.278,-0.417 -3.403,-0.381 -1.126,-0.036 -2.252,0.1 -3.377,0.409 -1.125,0.308 -2.142,0.825 -3.049,1.552 -0.908,0.726 -1.644,1.697 -2.206,2.913 -0.563,1.216 -0.844,2.733 -0.844,4.547 m 25.268,13.942 c 0,2.215 -0.344,4.203 -1.034,5.963 -0.69,1.761 -1.706,3.259 -3.05,4.493 -1.343,1.235 -2.977,2.188 -4.901,2.859 -1.924,0.672 -4.103,1.008 -6.535,1.008 -5.192,0 -9.158,-1.28 -11.899,-3.84 -2.741,-2.559 -4.112,-6.053 -4.112,-10.483 v -12.253 c 0,-4.43 1.371,-7.924 4.112,-10.483 2.741,-2.56 6.707,-3.84 11.899,-3.84 2.432,0 4.611,0.336 6.535,1.008 1.924,0.671 3.558,1.625 4.901,2.859 1.344,1.234 2.36,2.732 3.05,4.493 0.69,1.76 1.034,3.748 1.034,5.963 z"
           style="fill:#ffffff;fill-opacity:1;fill-rule:evenodd;stroke:none"
           id="path502" />
        <path
           d="m 202.072,211.241 v -1.907 c 0,-1.814 -0.182,-3.331 -0.545,-4.547 -0.363,-1.216 -0.881,-2.187 -1.552,-2.913 -0.672,-0.727 -1.479,-1.244 -2.423,-1.552 -0.945,-0.309 -1.979,-0.445 -3.105,-0.409 -1.125,-0.036 -2.16,0.091 -3.104,0.381 -0.944,0.291 -1.751,0.799 -2.423,1.525 -0.672,0.726 -1.189,1.706 -1.552,2.941 -0.363,1.235 -0.545,2.76 -0.545,4.574 v 1.907 c 0,1.815 0.182,3.358 0.545,4.629 0.363,1.271 0.88,2.296 1.552,3.077 0.672,0.78 1.479,1.334 2.423,1.66 0.944,0.328 1.979,0.473 3.104,0.436 1.126,0.037 2.16,-0.118 3.105,-0.462 0.944,-0.346 1.751,-0.908 2.423,-1.689 0.671,-0.78 1.189,-1.797 1.552,-3.05 0.363,-1.252 0.545,-2.786 0.545,-4.601 m 6.262,-0.926 v 1.252 3.213 4.63 5.663 6.209 6.317 h -6.262 l -0.109,-15.249 c -1.053,0.508 -2.206,0.953 -3.459,1.335 -1.252,0.381 -2.695,0.571 -4.329,0.571 -2.396,0 -4.429,-0.336 -6.099,-1.007 -1.67,-0.672 -3.05,-1.616 -4.139,-2.832 -1.089,-1.216 -1.906,-2.678 -2.451,-4.384 -0.544,-1.706 -0.853,-3.613 -0.925,-5.718 0.072,-2.106 0.381,-3.994 0.925,-5.664 0.545,-1.67 1.362,-3.095 2.451,-4.275 1.089,-1.18 2.469,-2.087 4.139,-2.723 1.67,-0.635 3.703,-0.953 6.099,-0.953 2.505,0 4.638,0.318 6.399,0.953 1.761,0.636 3.204,1.543 4.329,2.723 1.126,1.18 1.961,2.605 2.506,4.275 0.544,1.67 0.853,3.558 0.925,5.664"
           style="fill:#ffffff;fill-opacity:1;fill-rule:evenodd;stroke:none"
           id="path504" />
        <path
           d="m 234.558,211.241 v -1.907 c 0,-1.814 -0.182,-3.331 -0.545,-4.547 -0.363,-1.216 -0.881,-2.187 -1.552,-2.913 -0.672,-0.727 -1.48,-1.244 -2.423,-1.552 -0.945,-0.309 -1.979,-0.445 -3.105,-0.409 -1.125,-0.036 -2.16,0.091 -3.104,0.381 -0.944,0.291 -1.752,0.799 -2.423,1.525 -0.672,0.726 -1.189,1.706 -1.552,2.941 -0.363,1.235 -0.545,2.76 -0.545,4.574 v 1.907 c 0,1.815 0.182,3.358 0.545,4.629 0.363,1.271 0.88,2.296 1.552,3.077 0.671,0.78 1.479,1.334 2.423,1.66 0.944,0.328 1.979,0.473 3.104,0.436 1.126,0.037 2.16,-0.118 3.105,-0.462 0.943,-0.346 1.751,-0.908 2.423,-1.689 0.671,-0.78 1.189,-1.797 1.552,-3.05 0.363,-1.252 0.545,-2.786 0.545,-4.601 m 6.262,-0.926 v 1.252 3.213 4.63 5.663 6.209 6.317 h -6.262 l -0.109,-15.249 c -1.053,0.508 -2.206,0.953 -3.458,1.335 -1.253,0.381 -2.696,0.571 -4.33,0.571 -2.396,0 -4.429,-0.336 -6.099,-1.007 -1.67,-0.672 -3.05,-1.616 -4.139,-2.832 -1.09,-1.216 -1.906,-2.678 -2.451,-4.384 -0.544,-1.706 -0.853,-3.613 -0.926,-5.718 0.073,-2.106 0.382,-3.994 0.926,-5.664 0.545,-1.67 1.361,-3.095 2.451,-4.275 1.089,-1.18 2.469,-2.087 4.139,-2.723 1.67,-0.635 3.703,-0.953 6.099,-0.953 2.505,0 4.638,0.318 6.399,0.953 1.761,0.636 3.204,1.543 4.329,2.723 1.126,1.18 1.961,2.605 2.506,4.275 0.544,1.67 0.853,3.558 0.925,5.664"
           style="fill:#ffffff;fill-opacity:1;fill-rule:evenodd;stroke:none"
           id="path506" />
        <path
           d="m 246.513,209.171 h 13.614 v 4.084 h -13.614 z"
           style="fill:#ffffff;fill-opacity:1;fill-rule:evenodd;stroke:none"
           id="path508" />
        <path
           d="m 278.928,220.444 h 0.109 c 1.997,0 3.63,-0.672 4.901,-2.015 1.271,-1.343 2.051,-3.503 2.342,-6.48 h -14.268 c 0.109,1.089 0.326,2.142 0.654,3.158 0.326,1.017 0.771,1.915 1.334,2.696 0.563,0.78 1.252,1.416 2.069,1.906 0.817,0.49 1.77,0.735 2.859,0.735 m 13.288,-11.872 c 0,0.218 0.009,0.499 0.027,0.845 0.018,0.344 0.028,0.607 0.028,0.789 0.072,1.779 -0.2,3.476 -0.817,5.092 -0.618,1.616 -1.507,3.032 -2.669,4.248 -1.162,1.216 -2.559,2.178 -4.193,2.886 -1.634,0.708 -3.449,1.08 -5.446,1.116 -1.888,-0.072 -3.63,-0.472 -5.228,-1.198 -1.598,-0.726 -2.986,-1.697 -4.166,-2.913 -1.18,-1.216 -2.097,-2.624 -2.751,-4.221 -0.653,-1.597 -0.98,-3.304 -0.98,-5.119 0.073,-1.96 0.463,-3.758 1.171,-5.391 0.708,-1.634 1.662,-3.041 2.859,-4.221 1.199,-1.18 2.605,-2.097 4.221,-2.75 1.616,-0.654 3.385,-0.981 5.31,-0.981 1.271,-0.072 2.486,0.109 3.648,0.545 1.162,0.436 2.306,0.908 3.431,1.416 l -0.435,1.797 c -2.288,-0.617 -4.103,-0.926 -5.446,-0.926 -1.634,0 -2.995,0.291 -4.085,0.872 -1.089,0.581 -1.969,1.307 -2.641,2.178 -0.672,0.871 -1.162,1.834 -1.471,2.886 -0.308,1.053 -0.517,2.07 -0.625,3.05 z"
           style="fill:#ffffff;fill-opacity:1;fill-rule:evenodd;stroke:none"
           id="path510" />
      </g>
    </g>
  </g>
</svg>
