<?xml version="1.0" encoding="UTF-8" standalone="no"?>
<!-- Uploaded to: SVG Repo, www.svgrepo.com, Generator: SVG Repo Mixer Tools -->

<svg
   fill="#000000"
   height="800px"
   width="800px"
   version="1.1"
   id="Layer_1"
   viewBox="0 0 512 512"
   xml:space="preserve"
   sodipodi:docname="profile-svgrepo-com.svg"
   inkscape:version="1.2.2 (b0a84865, 2022-12-01)"
   xmlns:inkscape="http://www.inkscape.org/namespaces/inkscape"
   xmlns:sodipodi="http://sodipodi.sourceforge.net/DTD/sodipodi-0.dtd"
   xmlns="http://www.w3.org/2000/svg"
   xmlns:svg="http://www.w3.org/2000/svg"><defs
   id="defs57213" /><sodipodi:namedview
   id="namedview57211"
   pagecolor="#ffffff"
   bordercolor="#000000"
   borderopacity="0.25"
   inkscape:showpageshadow="2"
   inkscape:pageopacity="0.0"
   inkscape:pagecheckerboard="0"
   inkscape:deskcolor="#d1d1d1"
   showgrid="false"
   showguides="true"
   inkscape:zoom="1.28375"
   inkscape:cx="280.03895"
   inkscape:cy="401.94742"
   inkscape:window-width="1980"
   inkscape:window-height="1268"
   inkscape:window-x="3810"
   inkscape:window-y="376"
   inkscape:window-maximized="0"
   inkscape:current-layer="Layer_1"><sodipodi:guide
     position="-40.381694,417.77605"
     orientation="0,-1"
     id="guide64495"
     inkscape:locked="false" /><sodipodi:guide
     position="9.9707887,249.26972"
     orientation="0,-1"
     id="guide64497"
     inkscape:locked="false" /></sodipodi:namedview>
<g
   id="g57208">
	<g
   id="g57206">
		<path
   d="M480,309.333c0-15.125-31.168-70.912-46.72-97.813c1.451-7.68,4.053-25.237,4.053-51.52c0-45.547-60.288-160-202.667-160    C94.869,0,32,106.048,32,181.333c0,53.248,31.445,107.819,56.725,151.616c14.72,25.515,28.608,49.621,28.608,61.717    c0,27.157-44.16,80.981-61.184,99.435c-2.859,3.115-3.627,7.616-1.92,11.499c1.707,3.904,5.525,6.4,9.771,6.4h234.667    c5.888,0,10.368-3.115,10.368-9.003c3.776-7.616,41.664-28.075,76.672-33.813c26.283-4.288,62.272-10.197,62.272-42.517    c0-14.059-4.864-21.312-8.085-26.112c-2.155-3.221-2.581-4.011-3.904-5.973c5.909,0.832,11.179-3.413,11.904-9.259    c0.277-2.261-0.171-4.459-1.173-6.336l8.789-8.789c2.859-2.859,3.861-7.083,2.581-10.923l-7.125-21.376    C463.253,333.675,480,324.971,480,309.333z"
   id="path57204" />
	</g>
</g>
<path
   d="m 227.16028,77.072428 a 48.16582,50.164189 0 0 1 65.50552,-2.531363 48.16582,50.164189 0 0 1 68.01014,70.646625 l -57.53964,60.11985 a 14.820253,15.435135 0 0 1 -20.14813,0.78719 l -0.81511,-0.77948 -57.53223,-60.12756 a 48.16582,50.164189 0 0 1 2.51945,-68.115262 z m 10.47791,10.912642 a 33.345569,34.729055 0 0 0 -1.08187,47.9261 l 1.08187,1.18851 55.0202,57.30293 39.2959,-40.93397 -26.1948,-27.28161 -7.85473,8.18062 a 22.232265,23.154666 0 1 1 -31.44858,-32.73792 l 15.57609,-16.230047 a 33.35298,34.736772 0 0 0 -43.25291,1.458623 z m 62.88234,21.82529 a 7.4101265,7.7175677 0 0 1 10.47792,0 l 31.43376,32.73792 5.24636,-5.4486 a 33.345569,34.729055 0 0 0 -46.0243,-50.241374 l -1.13374,1.126764 -23.57902,24.55731 a 7.4101265,7.7175677 0 0 0 -0.57799,10.24121 l 0.57799,0.67143 a 7.4101265,7.7175677 0 0 0 9.83323,0.60197 l 0.64468,-0.60197 z"
   id="path57246"
   style="fill:#b3b3b3;fill-opacity:1;stroke-width:7.5622;stroke-dasharray:none"
   inkscape:label="path57246" /><path
   d="M 108.77511,110.04909 96.002558,88.937492 106.54733,78.455511 127.78541,91.15199 c 3.86147,-2.214498 8.1685,-3.986099 12.62403,-5.167169 l 5.94073,-23.916653 h 14.8518 l 5.94072,23.916653 c 4.45554,1.18107 8.76256,2.952671 12.62404,5.167169 l 21.23807,-12.696479 10.54479,10.481981 -12.77256,21.111598 c 2.22777,3.83849 4.00999,8.11987 5.19813,12.54888 l 24.05992,5.90534 v 14.76337 l -24.05992,5.90535 c -1.18814,4.429 -2.97036,8.71037 -5.19813,12.54885 l 12.77256,21.1116 -10.54479,10.482 -21.23807,-12.69649 c -3.86148,2.21449 -8.1685,3.9861 -12.62404,5.16718 l -5.94072,23.91664 h -14.8518 l -5.94073,-23.91664 c -4.45553,-1.18108 -8.76256,-2.95269 -12.62403,-5.16718 l -21.23808,12.69649 -10.544772,-10.482 12.772552,-21.1116 c -2.22778,-3.83848 -4.00999,-8.11985 -5.19813,-12.54885 l -24.059932,-5.90535 v -14.76337 l 24.059932,-5.90534 c 1.18814,-4.42901 2.97035,-8.71039 5.19813,-12.54888 z m 45.00095,47.98094 a 22.277708,22.145046 0 1 0 0,-44.29008 22.277708,22.145046 0 0 0 0,44.29008 z"
   id="path64102"
   style="fill:#b3b3b3;stroke-width:7.40377" /><path
   d="m 278.10768,241.41722 c -1.15939,-18.83093 -11.04872,-36.03966 -26.6388,-46.465 0.10903,-1.10111 0.16707,-2.21741 0.16707,-3.34706 0,-18.45128 -14.91154,-33.46179 -33.23921,-33.46179 -18.3281,0 -33.2392,15.01095 -33.2392,33.46179 0,1.12965 0.0571,2.24595 0.16619,3.34706 -15.58654,10.42267 -25.47453,27.62603 -26.63747,46.45161 -11.74142,5.33649 -19.58675,17.24353 -19.58675,30.51 0,18.45082 14.9111,33.46177 33.23921,33.46177 7.05735,0 13.79339,-2.21117 19.41569,-6.29885 8.24067,4.12829 17.35618,6.29885 26.64233,6.29885 9.29369,0 18.41852,-2.17502 26.66584,-6.31045 5.46231,3.96501 12.15847,6.31045 19.3922,6.31045 18.32766,0 33.23922,-15.01095 33.23922,-33.46177 0,-13.55336 -8.05054,-25.24177 -19.58632,-30.49661 z m -59.71094,-69.88869 c 10.99686,0 19.94354,9.00657 19.94354,20.07705 0,11.0705 -8.94711,20.07707 -19.94354,20.07707 -10.99729,0 -19.94352,-9.00657 -19.94352,-20.07707 0,-11.07048 8.94623,-20.07705 19.94352,-20.07705 z m -66.00155,100.3853 c 0,-8.99541 6.00477,-16.95307 14.60221,-19.35116 h 4.4e-4 c 1.7271,-0.48141 3.52424,-0.7259 5.34087,-0.7259 10.99686,0 19.94353,9.00612 19.94353,20.07706 0,5.43374 -2.12155,10.52216 -5.97508,14.32966 -3.75116,3.70623 -8.71222,5.74739 -13.96845,5.74739 -10.99686,0 -19.94353,-9.00656 -19.94353,-20.07705 z m 48.73312,16.73802 c 2.89802,-5.02997 4.44964,-10.7564 4.44964,-16.73846 0,-18.44949 -14.90847,-33.45909 -33.23392,-33.46178 1.70718,-11.89543 7.90917,-22.69198 17.27952,-30.12495 5.75482,9.99659 16.49287,16.74026 28.77319,16.74026 12.27946,0 23.0175,-6.74367 28.77276,-16.74026 9.37125,7.43297 15.57279,18.22952 17.27996,30.12495 -18.32589,0.003 -33.23389,15.01229 -33.23389,33.46178 0,6.09182 1.63359,11.80397 4.47088,16.72953 -5.46629,2.20001 -11.33235,3.34752 -17.28971,3.34752 -5.95025,3.1e-4 -11.80877,-1.14439 -17.26843,-3.33859 z m 63.32647,3.33903 c -10.99686,0 -19.94353,-9.00611 -19.94353,-20.07705 0,-11.07094 8.94667,-20.07706 19.94353,-20.07706 10.99686,0 19.94352,9.00612 19.94352,20.07706 0,11.07094 -8.9471,20.07705 -19.94352,20.07705 z"
   id="path64872"
   style="fill:#b3b3b3;stroke-width:0.444672" /></svg>
