<svg viewBox="-132.51 0 417.594 417.594" xmlns="http://www.w3.org/2000/svg" fill="#000000">
<g id="SVGRepo_bgCarrier" stroke-width="0"></g><g id="SVGRepo_tracerCarrier" stroke-linecap="round" stroke-linejoin="round"></g><g id="SVGRepo_iconCarrier"><defs><style>.a{fill:#ffffff;}.b{fill:#957f6e;}.c{fill:#7a7473;}.d{fill:#211715;}.e{fill:#b3b3b3;}</style></defs><path class="a" d="M109.384,398.3a11.75,11.75,0,0,1-2.344-1.2,97.168,97.168,0,0,1-13.751-11.225l-1.324-1.4h-3.9a11.749,11.749,0,0,0-.851,1.4A97.186,97.186,0,0,1,73.465,397.1a11.041,11.041,0,0,1-9.814,1.306c-3.023-1.1-5.71-3.323-5.326-7.019l.267-2.573a59.1,59.1,0,0,0,6.895-8.34,14.551,14.551,0,0,0,2.778-7.98c-.411-17.753-1.651-37.361-2.886-57.512,7.433,0,17.785-.119,24.67-.264,9.558,0,16.979-.035,25.11-.251-1.246,20.332-2.5,40.123-2.919,58.027a14.561,14.561,0,0,0,2.779,7.98,59.1,59.1,0,0,0,6.895,8.34c.134,1.287.267,2.573.267,2.573.384,3.7-2.3,5.918-5.326,7.019A10.763,10.763,0,0,1,109.384,398.3Z"></path><path class="a" d="M89.621,141.541c-3.074-7.214-4.555-10.4-7.211-17.838-2.109-5.91-4.542-12.2-6.708-18.48l.371.123A59.21,59.21,0,0,0,89.6,107.29c4.313.011,10.451-.671,14.664-2.347l.54-.213c-2.207,6.444-4.712,12.909-6.877,18.973-2.656,7.441-4.136,10.624-7.21,17.838"></path><path class="b" d="M60.365,97.509c-7.307.176-12.06-5.2-12.02-10.158a57.971,57.971,0,0,1,1.768-12.364c1.374-4.91,2.355-13.543,2.355-25.515C51.882,31.808,56.528,19,63.854,11.984A39.76,39.76,0,0,1,89.4,2a40.6,40.6,0,0,1,16.229,3.108l.837.474,4.565,2.586a34.451,34.451,0,0,1,4.75,3.978c5.59,5.393,9.475,15.1,10.094,23.785a100.336,100.336,0,0,1,.194,13.543c.2,14.916,2.948,23.265,4.368,27.375a27.309,27.309,0,0,1,1.724,9.344c.05,5.583-6.889,12.813-14.866,9.952Z"></path><path class="a" d="M101.494,24.766c-3.908,6.175-30.847,21.994-39.2,23.879A4.342,4.342,0,0,0,59.15,47.5a4.03,4.03,0,0,0-3.621,2.012c-1.23,2.133-1.178,6.065-.353,8.5a13.136,13.136,0,0,0,3.853,6.249,4.7,4.7,0,0,0,3.995,1,33.029,33.029,0,0,0,6.268,11.826,24.46,24.46,0,0,0,8.851,7.068c-.094,1.1-.248,2.148-.443,3.286-.355,1.964-.237,3.716-2.97,4.7-.062.022-1.144.524-2.552,1.178,1,3.838,2.257,7.777,3.617,11.72l.362.1a59.265,59.265,0,0,0,13.527,1.944c4.313.01,10.451-.671,14.665-2.347l.54-.215c1.329-3.876,2.549-7.745,3.521-11.514-1.031-.488-1.786-.842-1.84-.862-2.733-.988-2.627-2.74-2.97-4.7-.22-1.254-.383-2.5-.48-3.76,6.563-3.484,11.751-12.419,12.689-14.967a28.075,28.075,0,0,0,1.271-3.448l.354.06a4.791,4.791,0,0,0,3.692-1.065,13.125,13.125,0,0,0,3.852-6.249c.826-2.433.878-6.365-.352-8.5a4.03,4.03,0,0,0-3.621-2.012,4.485,4.485,0,0,0-2.134.454l-2.819-2.192c-2.081-1.618-5.622-3.953-8.379-7.669a34.916,34.916,0,0,1-6.033-12.423"></path><path class="c" d="M102.209,405.105c-2.88-2.007-5.425-3.77-6.24-4.279-5.236-3.271-4.651-7.72-4.536-10.77a55.561,55.561,0,0,1,.532-5.58l1.324,1.4A97.168,97.168,0,0,0,107.04,397.1a11.043,11.043,0,0,0,9.815,1.306c3.022-1.1,5.71-3.323,5.326-7.019l-.267-2.573.5.508c3.395,3.481,7.132,6.906,10.527,10.285,2.2,2.195,3.935,5.112,3.857,8.311-.053,2.189-1.587,4.072-3.378,5.33a13.663,13.663,0,0,1-6.133,2.16,23.189,23.189,0,0,1-14.434-2.962C112.056,411.993,106.721,408.25,102.209,405.105Z"></path><path class="c" d="M78.3,405.105c2.88-2.007,5.425-3.77,6.24-4.279,5.236-3.271,4.651-7.72,4.536-10.77a61.452,61.452,0,0,0-.4-6.321,10.431,10.431,0,0,0-1.453,2.144A97.186,97.186,0,0,1,73.465,397.1a11.041,11.041,0,0,1-9.814,1.306c-3.023-1.1-5.71-3.323-5.326-7.019l.267-2.573-.495.508c-3.4,3.481-7.132,6.906-10.527,10.285-2.2,2.195-3.935,5.112-3.857,8.311.053,2.189,1.587,4.072,3.378,5.33a13.659,13.659,0,0,0,6.133,2.16,23.189,23.189,0,0,0,14.434-2.962C68.45,411.993,73.785,408.25,78.3,405.105Z"></path><path class="d" d="M103.218,403.378c-1.9-1.324-3.79-2.667-5.723-3.943a8.53,8.53,0,0,1-3.617-3.792,10.7,10.7,0,0,1-.5-4.443,58.311,58.311,0,0,1,.51-6.192l-3.343.883a78.974,78.974,0,0,0,6.987,6.539q2.556,2.124,5.229,4.105a26.705,26.705,0,0,0,5.563,3.483,12.832,12.832,0,0,0,12.171-1.24,8.624,8.624,0,0,0,3.389-4.431c.567-1.811.216-3.691.025-5.529l-3.414,1.415c3.157,3.237,6.458,6.323,9.692,9.482,2.345,2.292,6.195,6.311,4.042,9.887-2.084,3.46-6.923,4.11-10.586,3.974a20.542,20.542,0,0,1-10.435-3.267c-3.379-2.238-6.671-4.614-9.995-6.931-2.116-1.475-4.118,1.991-2.019,3.454,3.348,2.333,6.66,4.732,10.068,6.979a24.491,24.491,0,0,0,12.6,3.773c4.748.127,10.046-1.066,13.12-4.97,3.19-4.051,1.613-9.254-1.328-12.955a64.414,64.414,0,0,0-6.05-6.069c-2.119-2.036-4.224-4.082-6.276-6.186-1.123-1.152-3.6-.362-3.414,1.414.143,1.372.586,3.112.118,4.465a5.183,5.183,0,0,1-2.667,2.729c-3.185,1.692-6.726,1.087-9.635-.848a83.083,83.083,0,0,1-14.351-12.1c-.947-1-3.122-.63-3.343.883a68.071,68.071,0,0,0-.653,7.255,14.131,14.131,0,0,0,.743,5.778,11.96,11.96,0,0,0,4.894,5.613c2.095,1.359,4.131,2.813,6.179,4.241C103.316,408.307,105.318,404.841,103.218,403.378Z"></path><path class="d" d="M113.709,305.406c-.8,13.285-1.662,26.567-2.367,39.857-.326,6.134-.617,12.269-.838,18.407-.193,5.372-.914,10.758,1.508,15.752a36.879,36.879,0,0,0,5.606,7.678c2.393,2.742,4.991,5.3,7.605,7.824,1.852,1.79,4.684-1.035,2.829-2.828-4.283-4.142-8.684-8.392-11.9-13.451-2.694-4.24-1.847-9.323-1.682-14.08.431-12.35,1.142-24.689,1.887-37.024q.669-11.069,1.35-22.135c.154-2.571-3.847-2.562-4,0Z"></path><path class="d" d="M88.253,315.473v68.262c0,2.573,4,2.578,4,0V315.473c0-2.574-4-2.579-4,0Z"></path><path class="d" d="M79.307,406.832c2.069-1.442,4.129-2.9,6.24-4.279a11.751,11.751,0,0,0,5.033-6.119,16.5,16.5,0,0,0,.512-5.933c-.106-2.443-.149-4.873-.493-7.3-.211-1.483-2.421-1.925-3.343-.883a12.7,12.7,0,0,0-1.489,2.043c-.07.121-.5.725-.114.258-.149.179-.338.346-.5.51-1.047,1.039-2.149,2.024-3.263,2.99a94.4,94.4,0,0,1-8.789,6.826c-3.011,2.045-6.6,2.849-9.956,1.065a5.176,5.176,0,0,1-2.667-2.729c-.464-1.35-.024-3.1.118-4.465.184-1.772-2.284-2.574-3.415-1.414-3.636,3.729-7.525,7.2-11.158,10.932-3.147,3.231-5.7,8.363-3.477,12.785,2.243,4.467,7.527,6.153,12.176,6.431a24.8,24.8,0,0,0,14.017-3.416c3.649-2.207,7.075-4.867,10.572-7.3,2.1-1.462.1-4.931-2.019-3.454-3.089,2.153-6.164,4.329-9.278,6.447a21.368,21.368,0,0,1-9.444,3.622c-3.8.46-8.546.124-11.4-2.735-3-3-.647-7.182,1.823-9.687,3.611-3.661,7.431-7.11,11.022-10.792l-3.414-1.415c-.325,3.13-.525,5.926,1.706,8.469a12.13,12.13,0,0,0,8.365,3.725c3.706.183,6.827-1.434,9.757-3.518,2.769-1.97,5.44-4.087,8.015-6.3,1.178-1.014,2.342-2.05,3.45-3.14.9-.887,1.374-1.97,2.2-2.9l-3.342-.883c.287,2.023.258,4.086.345,6.123a14.341,14.341,0,0,1-.279,4.709,7.7,7.7,0,0,1-3.545,4.17c-2.022,1.323-3.993,2.729-5.975,4.11C75.19,404.839,77.188,408.308,79.307,406.832Z"></path><path class="d" d="M62.8,305.406c.767,12.814,1.6,25.624,2.292,38.442.332,6.156.631,12.314.863,18.475q.164,4.325.276,8.651a13.678,13.678,0,0,1-1.035,6.1,29.776,29.776,0,0,1-5.134,7.2c-2.392,2.741-4.991,5.3-7.6,7.824-1.854,1.792.976,4.619,2.828,2.828A92.945,92.945,0,0,0,67.616,380.95a16.034,16.034,0,0,0,2.488-6.609,47.566,47.566,0,0,0-.025-8.438c-.418-12.635-1.141-25.258-1.9-37.876-.455-7.541-.928-15.08-1.379-22.621-.153-2.558-4.154-2.576-4,0Z"></path><path class="e" d="M57.125,307.8C55.33,287.7,53.4,259.336,53,240.121c-.385-18.64-.928-26.538,1.154-47.424h73.2c.754,17.947.591,28.123-.032,44.11-.772,19.813-2.34,53.282-5.185,77.439-11.167.419-19.888.476-32.1.476-9.92.208-27.034.372-32.263.176C57.569,312.684,57.348,310.308,57.125,307.8Z"></path><path class="d" d="M51.724,197.282c-1.4,15.785-1.082,31.544-.6,47.365.469,15.5,1.463,30.994,2.633,46.458.6,7.937,1.261,15.87,2.033,23.793a2.054,2.054,0,0,0,2,2c6.914.248,13.858.084,20.774,0,9.033-.1,18.066-.143,27.1-.251q8.246-.1,16.486-.405a2.064,2.064,0,0,0,2-2c1.764-15.034,2.8-30.153,3.66-45.262.819-14.317,1.509-28.653,1.891-42.989q.369-13.83-.118-27.655c-.086-2.567-4.086-2.578-4,0,.52,15.487.089,30.933-.572,46.407-.634,14.832-1.414,29.66-2.526,44.464-.627,8.358-1.358,16.71-2.335,25.035l2-2c-9.886.368-19.775.467-29.668.475-8.224.006-16.449.24-24.675.262-3.337.009-6.681.035-10.016-.085l2,2c-1.448-14.865-2.557-29.767-3.456-44.675q-1.389-23.042-1.662-46.126a265.821,265.821,0,0,1,1.056-26.815,2.016,2.016,0,0,0-2-2,2.043,2.043,0,0,0-2,2Z"></path><path class="e" d="M111.877,208.07a40.451,40.451,0,0,1-4.677-.425c-4.218-.688-7.1-1.485-9.77-3.73a16.984,16.984,0,0,1-5.641-8.2,86.537,86.537,0,0,1-1.866-8.955.627.627,0,0,0-1.24,0,79.443,79.443,0,0,1-1.746,8.586,15.724,15.724,0,0,1-5.974,8.339c-2.054,1.522-6.209,3.185-10.917,3.912a95.029,95.029,0,0,1-20.453.339,1.2,1.2,0,0,1-1.073-1.3c.652-7.885,1.2-13.754,2.46-25.024.2-2.446.372-5.1.519-8.222l-1.442,3.45c-1.517,3.63-6.283,5.676-10.344,4.961a18.343,18.343,0,0,1-11.851-7.7c-4.737-7.1-11.9-25.934-15.463-36.973l3.582-1.184,15.585-14.7,11.876-13.81a60.8,60.8,0,0,1,7.366-5.287,141.583,141.583,0,0,1,21.344-8.958c2.59,9.984,6.9,20.647,10.343,30.3,2.655,7.441,4.136,10.624,7.21,17.838h1.1c3.074-7.214,4.555-10.4,7.21-17.838,3.594-10.068,8.128-21.239,10.677-31.588a25.735,25.735,0,0,1,3.734,2.592c4.032,1.482,8.924,3.285,12.192,4.473a32.182,32.182,0,0,1,8.4,4.572c3.506,2.7,5.619,6.261,7.28,10.349a74.317,74.317,0,0,1,2.775,8.162c4.214,16.9,5.889,23.864,7.333,37.8a27.306,27.306,0,0,1-.93,11.441c-.684,2.71-3.243,6.491-6.458,9.125a58.8,58.8,0,0,1-12.7,7.343c.708,6.931,1.258,12.883,1.68,18.511a1.1,1.1,0,0,1-1.012,1.181A180.417,180.417,0,0,1,111.877,208.07Z"></path><path class="d" d="M128.069,49.472A82.478,82.478,0,0,0,128,37.867a49.561,49.561,0,0,0-1.772-11.041,36.879,36.879,0,0,0-13.621-19.99,2.015,2.015,0,0,0-2.736.717,2.046,2.046,0,0,0,.717,2.737c6.178,4.5,10.015,11.084,12,18.377a46.7,46.7,0,0,1,1.443,9.8,80.341,80.341,0,0,1,.033,11c-.211,2.566,3.79,2.552,4,0Z"></path><path class="d" d="M65.913,98.351c.871-.3,1.717-.743,2.555-1.127q1.927-.883,3.851-1.778,1.51-.7,3.022-1.4c.1-.048.211-.093.314-.143s.268-.118-.163.067c-.514.22-.069.036.064-.017.252-.1.506-.2.751-.322a5.424,5.424,0,0,0,2.41-2.23,8.582,8.582,0,0,0,.816-2.852c.226-1.464.477-2.921.611-4.4a2.008,2.008,0,0,0-2-2,2.052,2.052,0,0,0-2,2,37.493,37.493,0,0,1-.891,5.286c-.059.247.2-.312.041-.114a1.88,1.88,0,0,0-.132.232c-.223.395.18-.131-.067.089a2.4,2.4,0,0,0-.212.2c.215-.252.157-.1.028-.023-.1.059-.192.123-.293.181-.037.02-.454.23-.275.149s-.145.054-.145.054c-.153.062-.333.138-.484.2l-.066.029-.3.137c-2.145.986-4.282,1.988-6.427,2.974q-.836.382-1.672.762l-.532.236c-.445.2.5-.187.133-.058a2,2,0,0,0,1.063,3.857Z"></path><path class="d" d="M101.144,83.992c.125,1.378.325,2.746.551,4.111a15.973,15.973,0,0,0,.394,2.119,5.4,5.4,0,0,0,1.472,2.432,6.073,6.073,0,0,0,1.308.917c.319.16.651.3.983.426.638.244-.463-.225-.219-.1,1.905.976,3.883,1.833,5.818,2.748.925.437,1.844.89,2.788,1.286a2,2,0,0,0,2.46-1.4,2.062,2.062,0,0,0-1.4-2.46c.994.416.083.02-.15-.089L113.91,93.4l-3.362-1.591c-.867-.41-1.733-.822-2.6-1.228-.094-.044-.187-.088-.282-.131l-.072-.032c-.144-.063-.338-.145-.483-.2-.06-.024-.365-.17-.061-.019-.179-.089-.351-.18-.524-.281-.057-.033-.342-.221-.112-.062.2.142.015.012-.023-.025-.062-.063-.13-.132-.2-.192-.291-.26.1.076.063.1a4.779,4.779,0,0,1-.288-.483c-.111-.167.088.174.079.2a2.609,2.609,0,0,0-.119-.352c-.047-.16-.086-.324-.121-.488-.081-.385-.133-.776-.192-1.165-.085-.564-.187-1.125-.272-1.689-.036-.241-.041-.277-.08-.615-.046-.383-.084-.766-.119-1.15a2,2,0,0,0-4,0Z"></path><path class="d" d="M63.705,47.231a6.739,6.739,0,0,0-7.344-1.094,6.406,6.406,0,0,0-3.349,4.309,16,16,0,0,0,2.321,12.63c1.644,2.446,4.242,4.652,7.388,4.244a2.066,2.066,0,0,0,2-2,2.011,2.011,0,0,0-2-2c-2.177.283-3.594-1.52-4.538-3.262a12.9,12.9,0,0,1-1.551-4.819,8.267,8.267,0,0,1,.825-5.038c-.326.523.511-.437.2-.211a1.832,1.832,0,0,1,.919-.419,2.5,2.5,0,0,1,2.3.489c1.916,1.709,4.754-1.111,2.829-2.829Z"></path><path class="d" d="M119.279,50.06a2.475,2.475,0,0,1,2.172-.517,1.929,1.929,0,0,1,1.045.447c-.3-.221.52.72.2.211a8.252,8.252,0,0,1,.825,5.038,12.946,12.946,0,0,1-1.551,4.819c-.944,1.742-2.36,3.545-4.538,3.262a2.01,2.01,0,0,0-2,2,2.051,2.051,0,0,0,2,2c5.117.664,8.263-4.857,9.542-8.994,1.149-3.717,1.09-9.467-2.542-11.844a6.7,6.7,0,0,0-7.984.749c-1.924,1.718.913,4.538,2.829,2.829Z"></path><path class="d" d="M115.675,62.689a28.069,28.069,0,0,1-1.265,4.218c-.193.507-.324.765-.565,1.363-.2.5.145-.292-.027.067-.061.128-.118.257-.179.384a35.861,35.861,0,0,1-3.091,5.145c-2.681,3.8-6.35,7.948-11.062,9.056-2.5.588-1.444,4.446,1.064,3.857,5.6-1.316,9.906-5.99,13.15-10.473a36.685,36.685,0,0,0,3.359-5.5c.2-.418.383-.844.562-1.273.215-.512-.164.356.072-.164.153-.337.291-.682.428-1.026a28.057,28.057,0,0,0,1.411-4.594c.524-2.512-3.331-3.586-3.857-1.063Z"></path><path class="d" d="M60.543,63.653c2.4,10.535,10.334,22.02,21.718,23.737a2.064,2.064,0,0,0,2.46-1.4,2.014,2.014,0,0,0-1.4-2.46C73.232,82.011,66.523,71.9,64.4,62.59c-.572-2.509-4.43-1.447-3.857,1.063Z"></path><path class="d" d="M84.624,72.619a11.941,11.941,0,0,0,5.747,1.342,9.483,9.483,0,0,0,5.916-1.794,2,2,0,0,0,0-2.829,2.064,2.064,0,0,0-2.829,0c.693-.539-.015-.018-.233.1-.169.088-.618.229.016.012-.157.054-.308.119-.466.169-.422.136-.888.157-1.3.3.211-.072.331-.04.031-.01-.128.013-.256.024-.384.032-.308.02-.616.027-.925.026-.276,0-.552-.011-.828-.03-.127-.009-.253-.019-.38-.032q-.108-.011-.216-.024c-.157-.019-.094-.01.188.025a8.067,8.067,0,0,1-1.216-.27c-.17-.051-.336-.112-.5-.169-.446-.153.425.2.021.012-.209-.1-.414-.2-.618-.308a2,2,0,1,0-2.019,3.454Z"></path><path class="d" d="M89.089,59.423a25.493,25.493,0,0,1,.6,2.756l-.071-.532a1.667,1.667,0,0,1,.01.38L89.7,61.5a1.013,1.013,0,0,1-.041.171l.2-.478a.651.651,0,0,1-.06.11l.313-.405a.63.63,0,0,1-.09.089l.4-.313a1.747,1.747,0,0,1-.218.116l.478-.2a1.569,1.569,0,0,1-.368.107l.532-.071a1.43,1.43,0,0,1-.346,0l.532.072c-.13-.018-.258-.05-.388-.068a1.515,1.515,0,0,0-.8-.035,1.486,1.486,0,0,0-.743.237,2,2,0,0,0-.718,2.736l.313.405a2,2,0,0,0,.883.515c.348.047.686.134,1.041.149a3.43,3.43,0,0,0,1.6-.39,2.442,2.442,0,0,0,1.314-1.593A3.746,3.746,0,0,0,93.529,61c-.15-.888-.355-1.767-.583-2.638a2,2,0,0,0-2.46-1.4,2.03,2.03,0,0,0-1.2.919,2.1,2.1,0,0,0-.2,1.541Z"></path><path class="d" d="M75.086,51.464c-.46,1.5-.16,4.935,2.673,5.228,3.744-.022,3.943-4.181,2.683-6.137C79.41,48.954,76.375,48.289,75.086,51.464Z"></path><path class="d" d="M105.069,51.464c.46,1.5.16,4.935-2.672,5.228-3.745-.023-3.944-4.181-2.684-6.137C100.745,48.954,103.78,48.289,105.069,51.464Z"></path><path class="d" d="M54.468,49.472c-.333-10.846,1-22.611,7.221-31.823C67.248,9.412,77.92,4.56,87.646,4.044a40.022,40.022,0,0,1,10.348.774,28.157,28.157,0,0,1,7.463,2.489c2.243,1.271,4.261-2.184,2.018-3.454C102.456,1.011,96.015.1,90.339.006a41.128,41.128,0,0,0-19.3,4.641,33.258,33.258,0,0,0-11.328,8.961A40.823,40.823,0,0,0,52.91,27.365a71.254,71.254,0,0,0-2.442,22.107c.079,2.568,4.079,2.579,4,0Z"></path><path class="d" d="M50.469,49.472c-.009,7.857-.131,16.01-1.954,23.7a79.59,79.59,0,0,0-2,11.192c-.325,3.574-.029,6.82,2.215,9.767a14.234,14.234,0,0,0,11.638,5.381c2.572-.027,2.579-4.027,0-4A10.259,10.259,0,0,1,51.91,91.75c-1.942-2.562-1.619-5.478-1.285-8.5a93.122,93.122,0,0,1,1.906-9.717,76.2,76.2,0,0,0,1.326-9.186c.459-4.944.607-9.912.612-14.875,0-2.574-4-2.578-4,0Z"></path><path class="d" d="M124.069,49.472a92.43,92.43,0,0,0,3,23.354c1.582,5.691,5.419,12.776,1.24,18.135a9.3,9.3,0,0,1-10.488,3.253c-2.442-.831-3.491,3.032-1.063,3.857a12.948,12.948,0,0,0,12.389-2.324,12.808,12.808,0,0,0,5.005-9.786c-.033-4.153-1.278-7.924-2.518-11.825a70.1,70.1,0,0,1-2.144-8.651,97.314,97.314,0,0,1-1.426-16.013c-.039-2.572-4.039-2.579-4,0Z"></path><path class="d" d="M99.767,23.756c-.04.062-.385.552-.206.311s-.226.27-.294.348c-.328.376-.677.733-1.035,1.08-.893.866-1.847,1.669-2.819,2.444-2.376,1.895-5.084,3.733-7.71,5.437A162,162,0,0,1,69.2,43.832a35.581,35.581,0,0,1-7.441,2.885c-2.507.581-1.446,4.438,1.063,3.857a38.284,38.284,0,0,0,7.142-2.7c3.123-1.428,6.17-3.023,9.171-4.69A142.976,142.976,0,0,0,97.5,31.352a24.179,24.179,0,0,0,5.724-5.577c1.4-2.167-2.059-4.175-3.454-2.019Z"></path><path class="d" d="M117.466,44.343c-3.48-2.689-6.773-5.257-9.264-8.954a37.682,37.682,0,0,1-4.633-10.254c-.762-2.451-4.625-1.405-3.857,1.063a41.72,41.72,0,0,0,5.036,11.21,31.674,31.674,0,0,0,5.145,6.017c.856.765,1.756,1.478,2.665,2.178.41.316.822.627,1.236.937l.564.423c.044.033.514.389.28.209a2.067,2.067,0,0,0,2.828,0,2.014,2.014,0,0,0,0-2.829Z"></path><path class="d" d="M44.856,108.853a53.591,53.591,0,0,1,13.01-7.939A117.717,117.717,0,0,1,73.8,94.786c2.466-.722,1.416-4.583-1.063-3.857A124.982,124.982,0,0,0,55.847,97.46a55.627,55.627,0,0,0-7.67,3.964,61.952,61.952,0,0,0-6.149,4.6c-1.953,1.684.887,4.5,2.828,2.829Z"></path><path class="d" d="M108.467,95.176c4.919,1.79,9.827,3.609,14.744,5.4,5.356,1.953,10.27,4.9,13.219,9.92,3.218,5.476,4.657,11.834,6.16,17.937,1.249,5.069,2.476,10.148,3.473,15.274,1.04,5.342,1.772,10.727,2.336,16.139a2.058,2.058,0,0,0,2,2,2.013,2.013,0,0,0,2-2,230.974,230.974,0,0,0-5.6-31.032c-1.595-6.519-3.123-13.168-6.263-19.158-2.984-5.692-7.927-9.53-13.792-11.986-5.627-2.356-11.484-4.267-17.217-6.353-2.423-.882-3.467,2.983-1.063,3.857Z"></path><path class="d" d="M15.45,134.019,11.868,135.2a2.029,2.029,0,0,0-1.4,2.46A276.949,276.949,0,0,0,20.577,164.3a77.478,77.478,0,0,0,5.2,10.267A20.564,20.564,0,0,0,37.7,183.408c5.175,1.392,11.732-.3,14.085-5.554a2.062,2.062,0,0,0-.717-2.736,2.016,2.016,0,0,0-2.737.717c-1.75,3.908-6.377,4.692-10.116,3.557a16.662,16.662,0,0,1-9.409-7.54c-4.135-6.885-7.026-14.615-9.85-22.1-1.64-4.347-3.2-8.727-4.627-13.148l-1.4,2.46,3.582-1.184c2.432-.8,1.39-4.668-1.063-3.857Z"></path><path class="a" d="M35.27,113.285c.148,3.138-1.45,7.2-2.278,8.937a13.188,13.188,0,0,1-1.129,1.979c-.94,1.321-.5,2.772-.391,4.5.058.94.314,1.755.389,2.425-3.01,1.762-11.841,4.3-15.935,5.527a65.48,65.48,0,0,0-4.865-6.941c-3.083-2.056-7.254-7.746-8.712-13.727l-.321-2.253c-.116-.809.091-3.164,1.627-3.9a3.176,3.176,0,0,1,3.591.645c.017-.991.036-2.066.036-2.066A3.634,3.634,0,0,1,9.7,105.348c1.314-.475,2.008.28,2.869,1.067a3.524,3.524,0,0,1,.943-3.352c1.452-1.164,4.616-1.805,5.27,1.85-2.059-6.041-4.474-13.433-4.823-15.121a4.1,4.1,0,0,1,2.653-4.458c1.836-.585,4.329,1.8,4.78,2.969,2.157,5.621,3.58,9.719,5.752,16.62,1.133.054,2.221.149,3.436.244a4.426,4.426,0,0,1,2.588,1.384,9.719,9.719,0,0,1,2.105,6.734"></path><path class="d" d="M28.9,103.852c-1.488-4.7-3.054-9.379-4.79-14-.782-2.078-1.447-3.777-3.251-5.17-1.778-1.372-3.949-1.931-5.987-.743A6.156,6.156,0,0,0,11.911,89.5a14.921,14.921,0,0,0,.733,3.063c.953,3.176,2,6.325,3.053,9.47,1.142,3.416,2.289,6.832,3.526,10.215.877,2.4,4.744,1.362,3.857-1.064-1.99-5.443-3.814-10.956-5.579-16.477-.381-1.191-.758-2.384-1.112-3.583a6.918,6.918,0,0,1-.492-2.069,2.169,2.169,0,0,1,.762-1.5c.5-.421.75-.349,1.313-.027,1.439.824,1.8,2.1,2.35,3.57,1.71,4.558,3.252,9.171,4.721,13.812.773,2.445,4.636,1.4,3.857-1.063Z"></path><path class="d" d="M.284,115.959A27.771,27.771,0,0,0,8.353,130.1a15.462,15.462,0,0,0,1.278,1.033c.461.331-.146-.2.234.216.036.039.328.405.085.1.11.139.215.283.321.425q.384.515.758,1.037a54.126,54.126,0,0,1,3.17,4.747,2.032,2.032,0,0,0,2.259.919c2.852-.855,5.709-1.693,8.539-2.618a42.447,42.447,0,0,0,7.874-3.111,2.077,2.077,0,0,0,.919-2.259c-.124-.848-.291-1.67-.371-2.525a7.4,7.4,0,0,1-.118-2.224,9.206,9.206,0,0,1,1.053-1.881c.286-.534.537-1.085.776-1.641a21.836,21.836,0,0,0,2.14-9.033c-.068-2.569-4.068-2.579-4,0a18.069,18.069,0,0,1-2.187,8.3c-.814,1.609-1.8,2.813-1.808,4.713a36.02,36.02,0,0,0,.658,5.354l.919-2.258a38.5,38.5,0,0,1-7.25,2.816c-2.722.883-5.467,1.688-8.208,2.51l2.259.919a52.922,52.922,0,0,0-3.006-4.517,15.465,15.465,0,0,0-3-3.44c-3.845-3-6.451-8.121-7.509-12.786-.569-2.509-4.426-1.447-3.857,1.063Z"></path><path class="d" d="M8.649,109.05a5.16,5.16,0,0,0-6.82-.377A6.122,6.122,0,0,0,0,113.367a13.7,13.7,0,0,0,1.443,5.317,7.886,7.886,0,0,0,1.761,2.668A5.081,5.081,0,0,0,6.34,122.6c2.485.111,4.451-2,5.081-4.236A2,2,0,0,0,7.564,117.3c-.043.151-.11.3-.142.457-.042.2.059-.173.085-.184-.024.01-.067.141-.081.166s-.221.37-.222.369c-.018-.021.278-.3.115-.151-.067.06-.123.138-.186.2-.125.128-.259.245-.394.363-.054.047-.257.147-.046.041.277-.139-.037-.016-.016,0,.062.038-.42.068.026.006.292-.041.049-.016-.041,0-.058.014-.119.029-.176.046-.3.087.131-.063.167-.021a2.67,2.67,0,0,0-.439,0c-.213,0,.212.006.217.026a1.73,1.73,0,0,0-.187-.044c-.059-.022-.125-.039-.185-.056-.369-.1.132.027.118.053,0,0-.16-.087-.171-.094a1.151,1.151,0,0,1-.112-.068c-.088-.06-.074-.046.043.042.149.028.1.1,0-.009a2.1,2.1,0,0,1-.186-.189c.012-.022.215.344.108.139-.041-.078-.1-.153-.147-.229-.236-.379-.455-.771-.655-1.171-.093-.185-.175-.374-.265-.56-.1-.209.025.061.036.088-.03-.077-.061-.153-.091-.23q-.195-.508-.347-1.032a16.728,16.728,0,0,1-.395-1.81c-.068-.393.019.468.018.119,0-.079-.009-.158-.01-.237,0-.107,0-.214.008-.321,0-.091.055-.51,0-.147-.055.382.02-.091.038-.177.024-.114.052-.229.083-.342.038-.133.1-.264.132-.4.045-.193-.067.192-.085.2.033-.015.089-.18.109-.215.039-.071.085-.137.124-.207.143-.258-.039.117-.1.117a.968.968,0,0,0,.121-.132c.125-.283.244.13-.087.039,0,0,.5-.255.223-.146-.294.117.595-.14.241-.069-.257.052-.024,0,.036,0l.3,0c.329,0-.084.04-.083-.011,0,0,.271.07.294.076.041.011.287.1.048.007s.063.04.109.066c.092.052.177.115.268.167.238.135-.335-.293.033.04a2,2,0,1,0,2.829-2.829Z"></path><path class="d" d="M13.979,105a5.647,5.647,0,0,0-3.048-1.752,4.934,4.934,0,0,0-3.766,1.325c-1.729,1.486-2.029,3.555-1.793,5.7a20.444,20.444,0,0,0,1.918,6.765,7.179,7.179,0,0,0,1.4,2.085,5.352,5.352,0,0,0,3.455,1.379,5.145,5.145,0,0,0,3.621-1.474,4.458,4.458,0,0,0,1.72-3.31,2,2,0,0,0-4,0q.009.315.045-.178c-.064.2-.049.169.047-.09-.049.091-.1.18-.161.266.152-.182.154-.185.006-.007-.117.128-.233.254-.359.374-.082.079-.167.154-.254.228q.285-.211.021-.022c-.052.032-.5.349-.255.161l-.191.052c.211-.014.2-.013-.047,0a3.067,3.067,0,0,1-.384-.013c.217.026.209.016-.026-.031-.116-.046-.5-.228-.2-.06a3,3,0,0,1-.3-.172q.273.231.029.016c-.263-.336.21.387-.08-.089-.171-.28-.343-.555-.494-.847-.1-.2-.2-.394-.29-.594-.034-.076-.229-.552-.084-.187-.184-.464-.353-.933-.5-1.409-.161-.519-.3-1.044-.416-1.574-.048-.221-.093-.442-.133-.664-.026-.15-.051-.3-.074-.451q.024.228-.019-.155a14.8,14.8,0,0,1-.092-1.63c0-.112,0-.224.007-.336-.055.353-.063.419-.022.2a2.636,2.636,0,0,0,.128-.428c.052-.137.03-.084-.064.158.043-.089.09-.175.14-.26s.108-.174.167-.258q-.231.29-.01.03c.125-.115.235-.243.367-.349-.327.263.273-.138.356-.175-.19.076-.159.071.093-.017q.381-.088.047-.008c-.408-.053.192.134-.2-.066a2.58,2.58,0,0,1,.29.173q-.258-.212.012.013c.186.169.372.337.557.507A2,2,0,0,0,13.979,105Z"></path><path class="d" d="M18.669,100.981c-1.959-1.5-4.822-.8-6.574.668-1.785,1.494-1.864,4.159-1.2,6.206.627,1.944,1.358,3.86,2.141,5.746a5.227,5.227,0,0,0,1.821,2.738,5.717,5.717,0,0,0,3.226.886,5.165,5.165,0,0,0,3.637-1.638,7.545,7.545,0,0,0,1.328-2.75,2.013,2.013,0,0,0-1.4-2.46,2.049,2.049,0,0,0-2.46,1.4c-.1.3-.212.6-.289.9-.075.2-.055.156.062-.129-.036.078-.075.155-.117.23s-.091.152-.142.225c.177-.22.191-.247.044-.082-.16.143-.143.139.05-.014a2.9,2.9,0,0,1-.291.182c-.2.1-.22.112-.055.04a2.574,2.574,0,0,1-.355.1c.4-.1-.255-.007-.381-.01.434.012-.228-.055-.341-.088s-.214-.068-.318-.109q.348.15.055.007c-.081-.044-.161-.092-.238-.144.233.192.277.221.13.087.328.367.178.267.09.037-.028-.072-.306-.721-.132-.305q-.6-1.429-1.14-2.879c-.358-.95-.7-1.906-1.018-2.871-.117-.36-.223-.715-.311-1.083.119.5,0-.153,0-.286s.129-.767.008-.306c.027-.1.26-.739.053-.312a2.944,2.944,0,0,1,.155-.287q.189-.279-.018.019.252-.233-.049,0c.083-.061.167-.119.254-.173s.693-.338.249-.163c.211-.083.428-.133.645-.2q.347-.065-.03,0c.112-.009.224-.012.336-.01q.352.024-.033-.018a2.52,2.52,0,0,1,.323.087c-.409-.128.161.13.27.214a2,2,0,0,0,2.737-.717,2.063,2.063,0,0,0-.718-2.737Z"></path><path class="d" d="M37.27,113.285a11.788,11.788,0,0,0-2.047-7.262,6.341,6.341,0,0,0-3.137-2.517,13.047,13.047,0,0,0-3.853-.519c-2.6-.176-5.374-.338-7.433,1.551a5.065,5.065,0,0,0-.7,6.488,6.638,6.638,0,0,0,3.614,2.754,31.65,31.65,0,0,0,4.17.972,2.054,2.054,0,0,0,2.46-1.4,2.017,2.017,0,0,0-1.4-2.46c-.966-.179-1.931-.365-2.884-.6-.432-.109-.862-.227-1.285-.367-.1-.033-.2-.067-.3-.1-.317-.111.221.133-.063-.024-.087-.048-.173-.1-.257-.15.171.108-.027-.013-.089-.07a4.908,4.908,0,0,1-.449-.463c.129.157-.145-.223-.181-.283-.065-.11-.22-.526-.12-.212-.034-.107-.059-.219-.094-.325-.077-.228,0-.119,0,.051.006-.151,0-.314,0-.466.007.324,0,.167.045-.063.068-.323-.158.194.037-.074a1.257,1.257,0,0,0,.121-.194c.077-.175-.279.24.027-.017.119-.1.358-.3.082-.107.139-.1.288-.175.431-.266.288-.184-.167.022.175-.079.214-.063.424-.121.642-.168.322-.069-.277.015.065-.011.105-.008.209-.016.313-.019.252-.009.505,0,.756,0,.561.009,1.121.032,1.68.064s1.1.072,1.651.115l.785.062c.134.011.269.025.4.032.367.02-.208-.114-.016.006.059.037.5.161.36.1-.19-.075.1.051.113.058.114.062.23.12.342.187s.432.338.194.114a1.86,1.86,0,0,1,.174.17c.172.212-.175-.26.032.055a16.106,16.106,0,0,1,.868,1.436c.074.141.261.536.259.533s.144.4.191.547c.074.232.137.468.191.706.023.1.042.206.065.309.018.084.051.318.023.1a9.7,9.7,0,0,1,.033,1.8,2,2,0,0,0,4,0Z"></path><path class="d" d="M127.878,159.47c.242-5.515.176-11.039.395-16.555s.344-11,.346-16.509c0-2.574-4-2.578-4,0q0,8.259-.346,16.509c-.221,5.516-.153,11.04-.395,16.555-.113,2.574,3.888,2.568,4,0Z"></path><path class="d" d="M47.844,126.859c.02,8.154.863,16.261,1.214,24.4.15,3.471.438,6.931.617,10.4.2,3.894.009,7.8-.174,11.689q-.243,5.184-.694,10.355c-.22,2.564,3.781,2.549,4,0a173.946,173.946,0,0,0,.932-20.559c-.118-3.565-.545-7.113-.646-10.678-.109-3.82-.423-7.635-.67-11.448-.306-4.715-.567-9.434-.579-14.16-.007-2.574-4.007-2.579-4,0Z"></path><path class="d" d="M75.626,107.062a55.524,55.524,0,0,0,14.91,2.008,42.226,42.226,0,0,0,14.344-2.411,2.059,2.059,0,0,0,1.4-2.461,2.015,2.015,0,0,0-2.46-1.4c-8.546,3.309-18.424,2.694-27.128.4-2.492-.656-3.555,3.2-1.063,3.857Z"></path><path class="d" d="M127.994,184.7c.61,5.878,1.194,11.759,1.683,17.648q.081.988.16,1.977a6.8,6.8,0,0,0,.136,1.752c.194.488,1.2-.478.457-.585a3.2,3.2,0,0,0-.57.042q-.919.067-1.841.129c-2.367.158-4.737.288-7.108.375a69,69,0,0,1-13.179-.32,21.983,21.983,0,0,1-7.011-1.973,14.963,14.963,0,0,1-5.234-4.862,17.576,17.576,0,0,1-2.347-5.974c-.269-1.177-.511-2.36-.737-3.545-.263-1.38-.208-3.386-1.292-4.417a2.69,2.69,0,0,0-3.213-.31c-1.371.857-1.32,2.755-1.575,4.171a42.6,42.6,0,0,1-1.55,6.718c-3.6,10.092-16.308,10.709-25.338,10.8-2.829.028-5.664-.036-8.485-.263a3.355,3.355,0,0,0-.689-.059q-.9-.2.259.638c.015-.178.029-.356.044-.535q.079-.96.161-1.919.157-1.854.322-3.709c.518-5.812,1.126-11.615,1.771-17.415a2.012,2.012,0,0,0-2-2,2.047,2.047,0,0,0-2,2c-.614,5.522-1.2,11.047-1.7,16.579q-.159,1.761-.31,3.522a26.021,26.021,0,0,0-.277,3.8c.22,3.347,4.152,3.12,6.6,3.245a89.323,89.323,0,0,0,16-.474c5.42-.7,11.048-2.3,15.083-6.169a17.875,17.875,0,0,0,4.657-7.682c.361-1.18.606-2.4.853-3.61a42.662,42.662,0,0,1,.973-5.208l-.514.882-.345.213H88.77l-.343-.217-.514-.882a34.046,34.046,0,0,1,.841,4.434c.257,1.279.526,2.558.85,3.822A19.32,19.32,0,0,0,99,207.354a25.668,25.668,0,0,0,7.668,2.219,76.26,76.26,0,0,0,14.993.434c2.436-.1,4.87-.24,7.3-.411a8.789,8.789,0,0,0,3.311-.482c1.436-.731,1.768-2.133,1.654-3.621-.532-6.941-1.215-13.87-1.934-20.795a2.059,2.059,0,0,0-2-2,2.013,2.013,0,0,0-2,2Z"></path><path class="d" d="M92.528,142.337c1.575-3.694,3.2-7.37,4.691-11.1,1.6-3.978,3-8.029,4.478-12.051,3.247-8.819,6.648-17.621,8.92-26.756l-2.938,1.2a26.724,26.724,0,0,1,5.2,3.918,16.276,16.276,0,0,1,3.926,4.835l-.273-1.009.011.224.273-1.009-.152.208.718-.717c-1.63,1.031-3.264,2.065-4.906,3.078a2.027,2.027,0,0,0,0,3.453c.9.628,1.819,1.217,2.719,1.838.372.256.74.515,1.09.8q.327.269.636.556.547.445.2.239V108.98a6.412,6.412,0,0,1-.961,1.907q-.588,1.03-1.186,2.056-1.113,1.913-2.255,3.81-2.534,4.218-5.162,8.379c-3.445,5.471-6.976,10.887-10.526,16.29-1.418,2.158,2.044,4.164,3.453,2.019,4.6-7.008,9.182-14.036,13.57-21.182,2.084-3.392,4.126-6.811,6.085-10.276a4.274,4.274,0,0,0,.839-3,4.172,4.172,0,0,0-1.544-2.289,56.961,56.961,0,0,0-4.939-3.534v3.453c.971-.6,1.923-1.225,2.886-1.837a8.685,8.685,0,0,0,2.737-1.958c1.2-1.78-.573-3.782-1.663-5.145a30.8,30.8,0,0,0-8.753-7.5,2.022,2.022,0,0,0-2.938,1.2C104.525,100.357,101.2,109.023,98,117.7c-1.473,4-2.863,8.022-4.436,11.979-1.422,3.577-2.977,7.1-4.487,10.64a2.069,2.069,0,0,0,.718,2.737,2.015,2.015,0,0,0,2.736-.718Z"></path><path class="d" d="M91.432,140.318c-1.487-3.485-3.017-6.953-4.421-10.473-1.6-4.011-3.009-8.095-4.5-12.146-3.2-8.676-6.528-17.342-8.763-26.329a2.022,2.022,0,0,0-2.938-1.2,30.821,30.821,0,0,0-8.754,7.5c-1.089,1.363-2.861,3.365-1.662,5.145a8.685,8.685,0,0,0,2.737,1.958c.963.612,1.915,1.239,2.886,1.837v-3.453a55.674,55.674,0,0,0-4.939,3.534,4.193,4.193,0,0,0-1.545,2.289,4.324,4.324,0,0,0,.84,3c1.959,3.465,4,6.884,6.084,10.276,4.389,7.146,8.966,14.174,13.57,21.182,1.408,2.143,4.873.141,3.454-2.019-3.55-5.4-7.081-10.819-10.526-16.29q-2.562-4.07-5.047-8.186-1.2-1.993-2.371-4-.543-.933-1.08-1.87a7.207,7.207,0,0,1-1.066-2.093v1.063q-.348.207.2-.239.309-.288.635-.556c.351-.285.719-.544,1.09-.8.9-.621,1.823-1.21,2.72-1.838a2.027,2.027,0,0,0,0-3.453c-1.642-1.013-3.276-2.047-4.906-3.078l.717.717-.151-.208.273,1.009.01-.224-.273,1.009a16.3,16.3,0,0,1,3.927-4.835,26.724,26.724,0,0,1,5.2-3.918l-2.938-1.2c2.271,9.135,5.673,17.937,8.92,26.756,1.481,4.022,2.882,8.073,4.478,12.051,1.495,3.727,3.116,7.4,4.691,11.1a2.012,2.012,0,0,0,2.736.718,2.055,2.055,0,0,0,.718-2.737Z"></path><path class="a" d="M62.512,161.3c2.532-2.09,27.38-20.705,32.329-23.894,10.672,13.818,29.235,40.489,32.373,45.165-4.22,3.4-27.732,21.227-32.787,24.8-4.511-6.262-26.773-37.855-31.915-46.072"></path><path class="d" d="M63.926,162.713c.171-.14.343-.276.516-.413s.932-.724.5-.389q1.224-.945,2.457-1.879,3.433-2.609,6.89-5.189c5.268-3.944,10.55-7.871,15.883-11.726,1.873-1.354,3.74-2.73,5.681-3.985l-2.737-.718c9.847,12.762,19.1,26,28.3,39.237,1.368,1.97,2.739,3.938,4.076,5.929l.313-2.424c-3.677,2.96-7.31,5.668-11.229,8.649q-7.76,5.9-15.57,11.739c-1.851,1.38-3.7,2.766-5.584,4.1l2.737.718Q82.69,187.66,69.742,168.58c-1.866-2.741-3.741-5.481-5.5-8.29-1.364-2.176-4.827-.171-3.454,2.018,3.743,5.969,7.837,11.731,11.848,17.52Q80.027,190.5,87.522,201.1c1.719,2.433,3.437,4.867,5.178,7.285a2.029,2.029,0,0,0,2.736.717c9.429-6.679,18.563-13.818,27.723-20.858,1.831-1.407,3.67-2.807,5.469-4.255a2,2,0,0,0,.313-2.424c-7.854-11.694-16.095-23.156-24.412-34.523-2.616-3.575-5.255-7.135-7.961-10.643a2.043,2.043,0,0,0-2.736-.717c-4.3,2.78-8.379,5.933-12.495,8.969q-7.775,5.736-15.477,11.566c-1.6,1.21-3.215,2.4-4.762,3.672-1.99,1.635.854,4.451,2.828,2.828Z"></path><path class="a" d="M99.6,174.151c-1.5-1.507-2.881-1.97-5.424-3.015a32.921,32.921,0,0,0-3.733-.8c-1.628-.246-2.828-.5-4.47-.625-2.173-.169-3.433-.374-4.321.525a2.5,2.5,0,0,0-.666,2.006c.167,3,5.465,4.749,7.936,6.5a28.511,28.511,0,0,1-7.21,2.236,40.768,40.768,0,0,1-4.493-1.428,3.125,3.125,0,0,0-3.349,1.308,2.83,2.83,0,0,0,.687,3.534,11.436,11.436,0,0,0,1.7,1.065,5.8,5.8,0,0,0,.329,4.334,7.121,7.121,0,0,0,2.576,2.987,14.857,14.857,0,0,0,3.663,7.009,6.919,6.919,0,0,0,4.3,1.379c7.124-1.61,12.761-5.46,18.407-10.092"></path><path class="d" d="M87.91,177.012a27.022,27.022,0,0,1-6.733,2.035h1.064a36.987,36.987,0,0,1-4.359-1.377,5.032,5.032,0,0,0-5.605,1.973,4.851,4.851,0,0,0,.581,5.907,12.9,12.9,0,0,0,5.837,2.957c2.489.67,3.551-3.188,1.064-3.858a12.322,12.322,0,0,1-2.882-1.128q-.343-.192-.672-.406s-.527-.35-.382-.26a.648.648,0,0,1-.278-.465c-.053-.241-.06-.268-.02-.083.015-.227.01-.278-.014-.155-.083.289.148-.556.091-.325-.024.088,0,.055.077-.1q-.2.271.045,0c-.3.139.23-.145.26-.161.189-.1.456-.233.627-.153-.292-.136.123.078.208.108.184.068.367.138.551.2q1.21.436,2.445.805c.354.106.71.214,1.07.3a4.708,4.708,0,0,0,1.991-.031,32.331,32.331,0,0,0,7.053-2.338,2.012,2.012,0,0,0,.717-2.736,2.052,2.052,0,0,0-2.736-.718Z"></path><path class="d" d="M74.321,184.924a8.647,8.647,0,0,0,3.824,9.578l-.919-1.2a16.764,16.764,0,0,0,4.322,8.032c2.011,1.868,5.052,2.077,7.545,1.39,6.75-1.861,12.489-5.865,17.843-10.243,1.994-1.631-.85-4.446-2.828-2.829a61.3,61.3,0,0,1-8.777,6.171,33.1,33.1,0,0,1-4.717,2.213q-1.174.434-2.381.775c-.409.116-.82.218-1.232.322-.953.24.084.112-.419.054a4.162,4.162,0,0,1-2.623-1.134,11.881,11.881,0,0,1-2.209-3.644c-.263-.711-.414-1.458-.667-2.17-.35-.988-1.264-1.259-1.877-2.027a4.518,4.518,0,0,1-1.028-4.229c.668-2.489-3.19-3.551-3.857-1.063Z"></path><path class="d" d="M101.011,172.737a15.848,15.848,0,0,0-6.657-3.628A45.685,45.685,0,0,0,85.8,167.7a10.727,10.727,0,0,0-3.715.052,4.235,4.235,0,0,0-2.9,2.822c-.765,2.524.632,4.7,2.562,6.186,1.914,1.472,4.185,2.34,6.162,3.709a2.019,2.019,0,0,0,2.736-.717,2.041,2.041,0,0,0-.717-2.737c-1.783-1.234-3.83-2.032-5.6-3.289a6.574,6.574,0,0,1-.9-.789c-.09-.1-.177-.195-.26-.3q.18.225-.016-.057a3.317,3.317,0,0,1-.174-.321q.129.3.017-.023c-.1-.489.015.531-.017-.307,0-.093.095-.355.085-.28-.164.1-.148.085.046-.035l-.14.048a2.688,2.688,0,0,1,.372-.1q-.292.036.1,0a34.3,34.3,0,0,1,8.348,1.044,13.279,13.279,0,0,1,6.4,2.955c1.842,1.8,4.673-1.025,2.828-2.828Z"></path><path class="e" d="M150.4,159.848a27.306,27.306,0,0,1-.93,11.441c-.684,2.71-3.243,6.491-6.458,9.125a60.682,60.682,0,0,1-13.6,7.734,175.761,175.761,0,0,1-19.79,7.11.88.88,0,0,1-1.06-.54c-.51-1.41-1.21-3.24-2.01-5.25-2.47-6.25-5.85-14.29-7.11-17.37a.846.846,0,0,1,.47-1.12c2.07-.86,4.24-1.78,6.47-2.71,6.68-2.83,13.8-5.9,19.75-8.42"></path><path class="d" d="M148.4,159.848a28.88,28.88,0,0,1-.61,9.913,17.084,17.084,0,0,1-5.4,8.557,42.788,42.788,0,0,1-9.961,6.253,123.421,123.421,0,0,1-11.513,4.829q-3.224,1.2-6.491,2.279-1.374.451-2.754.879-.63.195-1.261.384l-.453.135-.439.128c-.264.059-.19.082.225.068l.717.718a19.709,19.709,0,0,1-1.189-3.044q-.636-1.639-1.291-3.271-1.281-3.21-2.6-6.405Q104.2,178.4,103,175.526q-.467-1.125-.932-2.25a5.926,5.926,0,0,1-.677-1.714l-.273,1.01q-.6.339.151-.013l.843-.353,1.715-.719c1.185-.5,2.373-.992,3.557-1.492q3.351-1.417,6.694-2.85,6.526-2.789,13.056-5.57a2.013,2.013,0,0,0,.717-2.737,2.053,2.053,0,0,0-2.736-.717c-8.446,3.578-16.864,7.22-25.327,10.755-1.852.774-2.922,2.2-2.09,4.223q.816,1.983,1.64,3.961c1.51,3.641,3.015,7.284,4.483,10.943.8,2,1.6,4,2.352,6.019a5.828,5.828,0,0,0,1.341,2.549,3.03,3.03,0,0,0,2.915.533,107.277,107.277,0,0,0,10.706-3.537c7.922-2.907,16.156-6.1,22.84-11.381,3.271-2.583,6.307-6.278,7.419-10.365a32.7,32.7,0,0,0,1-11.973,2.055,2.055,0,0,0-2-2,2.014,2.014,0,0,0-2,2Z"></path></g></svg>