<?xml version="1.0" encoding="UTF-8" standalone="no"?>
<!-- Created with Inkscape (http://www.inkscape.org/) -->

<svg
   version="1.1"
   id="svg2"
   width="52.080147"
   height="92.397339"
   viewBox="0 0 52.080146 92.397337"
   sodipodi:docname="g1245.svg"
   inkscape:export-filename="g1245.png"
   inkscape:export-xdpi="96"
   inkscape:export-ydpi="96"
   inkscape:version="1.2.2 (b0a84865, 2022-12-01)"
   xmlns:inkscape="http://www.inkscape.org/namespaces/inkscape"
   xmlns:sodipodi="http://sodipodi.sourceforge.net/DTD/sodipodi-0.dtd"
   xmlns="http://www.w3.org/2000/svg"
   xmlns:svg="http://www.w3.org/2000/svg">
  <sodipodi:namedview
     id="namedview30465"
     pagecolor="#ffffff"
     bordercolor="#000000"
     borderopacity="0.25"
     inkscape:showpageshadow="2"
     inkscape:pageopacity="0.0"
     inkscape:pagecheckerboard="0"
     inkscape:deskcolor="#d1d1d1"
     showgrid="false"
     inkscape:zoom="11.115039"
     inkscape:cx="7.1974556"
     inkscape:cy="46.288637"
     inkscape:window-width="1390"
     inkscape:window-height="1205"
     inkscape:window-x="1400"
     inkscape:window-y="25"
     inkscape:window-maximized="0"
     inkscape:current-layer="svg2" />
  <defs
     id="defs6">
    <clipPath
       clipPathUnits="userSpaceOnUse"
       id="clipPath3839">
      <g
         id="g3843"
         transform="translate(-101.9311,-178.0575)">
        <path
           d="M 0,841.89 H 595.276 V 0 H 0 Z"
           id="path3841" />
      </g>
    </clipPath>
    <clipPath
       clipPathUnits="userSpaceOnUse"
       id="clipPath3845">
      <g
         id="g3849"
         transform="translate(-98.4321,-166.0976)">
        <path
           d="M 0,841.89 H 595.276 V 0 H 0 Z"
           id="path3847" />
      </g>
    </clipPath>
  </defs>
  <g
     id="g874"
     transform="matrix(1.3333333,0,0,-1.3333333,784.28818,1088.1776)">
    <g
       id="g1244"
       transform="translate(-569.66955,766.9792)"
       clip-path="url(#clipPath3845)">
      <path
         d="M 0,0 C 0.034,-0.075 1.832,0.494 2.662,0.923 2.842,1.017 2.988,1.437 2.941,1.662 2.669,2.95 2.355,4.231 2.004,5.501 1.932,5.761 1.663,6.115 1.436,6.157 0.275,6.375 -0.898,6.519 -2.072,6.65 -2.273,6.673 -2.673,6.528 -2.682,6.434 -2.817,4.995 -3.139,3.519 -2.937,2.12 -2.718,0.602 -1.627,0.019 0,0 m 18.279,27.261 c -0.228,1.341 -0.358,2.385 -0.592,3.407 -0.235,1.018 -1.037,1.429 -1.998,1.478 -0.921,0.046 -1.512,-0.521 -1.847,-1.316 -1.029,-2.44 -1.323,-4.972 -0.734,-7.561 0.297,-1.301 1.053,-1.853 2.248,-1.746 1.017,0.093 1.653,0.789 1.926,1.67 0.437,1.407 0.71,2.864 0.997,4.068 M 5.118,26.706 4.881,26.756 c 0,0.247 0.008,0.495 -0.001,0.743 -0.089,2.478 -1.245,4.281 -3.421,5.457 -0.688,0.373 -1.277,0.243 -1.735,-0.336 -0.323,-0.407 -0.648,-0.861 -0.796,-1.349 -0.56,-1.828 -0.835,-3.71 -0.418,-5.599 0.217,-0.984 0.561,-1.978 1.053,-2.852 0.584,-1.042 1.684,-1.31 2.826,-1.26 1.052,0.045 1.619,0.746 1.884,1.665 0.331,1.146 0.568,2.319 0.845,3.481 m 1.213,1.136 c 0.443,0.167 0.702,0.252 0.95,0.361 1.214,0.532 2.458,0.719 3.704,0.177 0.665,-0.289 0.825,-0.076 0.985,0.56 0.491,1.956 1.301,3.7 3.401,4.462 0.188,0.068 0.41,0.487 0.363,0.682 -0.442,1.833 -1.209,3.532 -2.42,4.986 -0.2,0.241 -0.775,0.36 -1.103,0.269 C 9.86,38.692 7.499,38.207 5.041,38.45 3.62,38.592 2.2,38.766 0.774,38.852 c -0.422,0.025 -0.9,-0.122 -1.283,-0.321 -0.926,-0.483 -1.799,-1.067 -2.718,-1.566 -0.731,-0.399 -1.556,-0.646 -2.238,-1.109 -3.138,-2.13 -4.181,-5.211 -3.842,-8.917 1.671,0.274 3.374,0.573 5.084,0.822 0.892,0.13 1.362,0.525 1.452,1.48 0.147,1.548 0.714,2.951 1.792,4.113 1.192,1.287 2.345,1.501 3.811,0.573 0.668,-0.424 1.276,-0.988 1.797,-1.588 1.063,-1.228 1.583,-2.714 1.702,-4.497 m 12.788,19.444 c -0.085,0.086 -0.17,0.173 -0.255,0.259 -2.315,-1.436 -4.839,-1.248 -7.351,-1.041 -1.115,0.091 -2.214,0.373 -3.327,0.439 -2.29,0.137 -4.593,0.334 -6.877,0.229 -2.013,-0.094 -3.988,-0.629 -5.671,-1.873 -0.513,-0.379 -0.871,-0.797 -0.839,-1.545 0.014,-0.358 -0.364,-0.843 -0.699,-1.078 -0.388,-0.273 -0.921,-0.345 -1.397,-0.485 -2.704,-0.795 -4.206,-2.742 -4.712,-5.367 -0.415,-2.155 -0.512,-4.377 -0.679,-6.575 -0.125,-1.635 0.167,-1.922 1.94,-2.187 0.036,0.3 0.073,0.598 0.107,0.897 0.517,4.54 3.135,7.425 7.23,9.119 1.013,0.42 1.97,0.824 2.629,1.808 0.208,0.309 0.928,0.461 1.373,0.397 3.741,-0.538 7.454,-0.933 11.184,0.166 2.76,0.814 4.975,2.299 6.488,4.747 0.39,0.632 0.576,1.391 0.856,2.09 M -3.135,26.772 c -1.251,-0.268 -2.389,-0.573 -3.548,-0.748 -1.984,-0.3 -4.13,-1.473 -5.713,0.889 -0.063,0.092 -0.218,0.191 -0.315,0.179 -0.51,-0.07 -1.149,-0.012 -1.489,-0.3 -0.578,-0.489 -0.586,-1.827 -0.205,-2.447 0.513,-0.838 1.365,-1.225 2.305,-1.046 1.316,0.25 1.345,0.164 1.382,-1.235 0.087,-3.226 0.21,-6.454 0.386,-9.676 0.069,-1.271 0.697,-2.29 1.985,-2.666 C -6.441,9.167 -4.532,8.593 -2.588,8.22 -0.704,7.859 1.224,7.709 3.139,7.528 4.791,7.372 6.451,7.28 8.109,7.2 c 1.155,-0.055 1.859,0.625 2.26,1.618 0.848,2.095 1.689,4.194 2.468,6.315 0.585,1.592 1.07,3.22 1.632,4.928 -2.157,0.317 -2.616,1.846 -2.856,3.517 -0.088,0.612 -0.066,1.239 -0.122,1.857 -0.023,0.262 -0.03,0.603 -0.19,0.764 -0.666,0.672 -1.425,1.166 -2.446,1.169 C 7.313,27.372 6.447,26.619 6.096,25.177 5.843,24.139 5.452,23.091 4.907,22.176 3.834,20.373 2.272,19.883 0.263,20.437 c -1.633,0.45 -2.304,1.718 -2.737,3.151 -0.3,1 -0.432,2.051 -0.661,3.184 M -18.406,-12.18 c 1.167,5.167 5.667,11.167 10.437,13.484 0.972,0.396 2.013,0.625 2.987,1.019 0.27,0.111 0.545,0.52 0.587,0.823 0.135,0.951 0.171,1.916 0.222,2.877 0.036,0.679 -0.237,1.003 -0.976,1.182 -1.475,0.359 -2.922,0.858 -4.347,1.391 -1.01,0.377 -1.741,1.138 -1.95,2.223 -0.24,1.249 -0.436,2.516 -0.522,3.784 -0.151,2.232 -0.19,4.473 -0.326,6.708 -0.014,0.213 -0.38,0.585 -0.573,0.58 -1.43,-0.042 -2.465,0.619 -2.941,1.879 -0.536,1.421 -0.082,2.788 0.933,3.869 0.502,0.535 0.76,1.028 0.818,1.77 0.201,2.508 0.241,5.07 0.827,7.494 0.729,3.019 2.616,5.311 5.666,6.451 0.373,0.138 0.836,0.377 0.992,0.699 1.021,2.109 2.845,3.097 4.95,3.77 4.177,1.336 8.359,0.796 12.564,0.16 1.529,-0.231 3.118,-0.352 4.646,-0.2 1.224,0.122 2.396,0.746 3.599,1.123 0.391,0.122 0.807,0.167 1.21,0.248 0.037,-0.385 0.171,-0.793 0.092,-1.153 -0.66,-3.023 -2.243,-5.414 -4.918,-7.041 -1.106,-0.674 -0.998,-0.636 -0.407,-1.815 0.788,-1.578 1.398,-3.244 2.093,-4.868 0.144,-0.338 0.258,-0.73 0.507,-0.974 1.064,-1.042 1.521,-2.321 1.612,-3.766 0.133,-2.095 0.189,-4.221 -0.811,-6.119 -0.544,-1.032 -1.499,-1.845 -2.241,-2.777 -0.33,-0.415 -0.691,-0.847 -0.87,-1.333 C 14.245,16.02 13.088,12.713 11.896,9.418 11.76,9.043 11.505,8.712 11.324,8.352 10.435,6.571 8.939,5.804 7.01,5.778 6.14,5.767 5.266,5.756 4.397,5.813 3.729,5.858 3.54,5.577 3.688,4.99 3.853,4.328 3.985,3.646 4.259,3.028 4.413,2.678 4.769,2.313 5.121,2.169 c 4.951,-2.008 7.807,-5.182 10.307,-10.682 2.5,-7.167 4.676,-11.348 -16.691,-11.631 -12.19,0 -18.309,2.798 -17.143,7.964"
         style="fill:#231f20;fill-opacity:1;fill-rule:nonzero;stroke:none"
         id="path1246" />
    </g>
    <g
       id="g1248"
       transform="translate(-566.17055,778.9391)"
       clip-path="url(#clipPath3839)">
      <path
         d="M 0,0 C -2.005,0.481 -4.063,1.04 -5.186,3.194 -5.476,3.751 -5.46,4.23 -4.914,4.57 -4.28,4.964 -4.091,4.361 -3.879,3.993 -2.912,2.317 -1.284,1.718 0.456,1.408 1.696,1.187 1.979,1.632 1.84,2.848 1.741,3.724 1.817,4.624 1.863,5.511 c 0.028,0.546 0.414,0.677 0.918,0.683 0.777,0.008 1.552,0.089 2.328,0.12 0.585,0.023 0.745,0.28 0.61,0.848 -0.453,1.905 -0.873,3.818 -1.305,5.729 -0.027,0.12 -0.118,0.288 -0.07,0.355 0.237,0.329 0.511,0.633 0.772,0.945 C 5.34,13.956 5.698,13.754 5.766,13.48 6.14,11.973 6.438,10.447 6.77,8.929 6.889,8.383 7.05,7.846 7.147,7.296 7.361,6.089 6.761,5.236 5.557,5.023 5.284,4.975 4.999,4.98 4.72,4.978 2.868,4.959 2.786,4.941 3.213,3.151 3.664,1.264 3.147,0.83 1.324,0.217 0.946,0.09 0.528,0.083 0,0"
         style="fill:#231f20;fill-opacity:1;fill-rule:nonzero;stroke:none"
         id="path1250" />
    </g>
  </g>
  <path
     style="fill:#000000;stroke-width:0.0899682"
     d="M 18.623416,92.25229 C 10.292512,91.841909 4.5033159,90.208042 1.8660853,87.522923 1.1494735,86.793297 0.8762815,86.409144 0.54239992,85.661604 0.18981574,84.872189 0.07952385,84.336229 0.07847136,83.407161 0.0773595,82.425692 0.25224896,81.528947 0.73775009,80.02671 2.5231257,74.502403 6.8667297,68.638878 11.616882,65.340732 c 1.556335,-1.0806 2.376567,-1.479942 4.381367,-2.133133 1.023241,-0.333385 1.988824,-0.672699 2.145741,-0.754031 0.370259,-0.191911 0.630437,-0.56473 0.742229,-1.063567 0.120213,-0.536415 0.276449,-2.523181 0.288415,-3.667618 0.0145,-1.386546 -0.112124,-1.506327 -2.196485,-2.077839 C 15.385111,55.20775 12.699614,54.294386 11.807275,53.885882 10.993503,53.513343 10.200244,52.779627 9.8600086,52.084776 9.5899223,51.533187 9.373654,50.531368 9.0943136,48.537841 8.8595749,46.862612 8.757843,45.447037 8.593226,41.565306 8.3962534,36.920617 8.3989339,36.94563 8.0622198,36.610176 7.8089132,36.357817 7.7125594,36.325928 7.0505207,36.275352 5.390786,36.148557 4.2301096,35.275917 3.6757513,33.738073 c -0.2903469,-0.80545 -0.328561,-1.93642 -0.091742,-2.715161 0.2177991,-0.716196 0.708391,-1.562794 1.2855538,-2.218435 0.5646563,-0.641434 0.8535753,-1.123817 1.0127283,-1.690865 0.074564,-0.265664 0.2003749,-1.454683 0.2795798,-2.642263 0.367097,-5.504163 0.729393,-7.822783 1.5463785,-9.896501 1.2286212,-3.118555 3.5694793,-5.454342 6.7100013,-6.6954616 1.126945,-0.4453639 1.327786,-0.6109101 1.873242,-1.5440453 1.224032,-2.0940065 3.087179,-3.4429324 6.138006,-4.4439427 2.823588,-0.92644992 5.713037,-1.27327795 9.301768,-1.11651545 2.100359,0.0917476 2.944541,0.1814562 6.460232,0.68650885 2.822196,0.4054276 2.926008,0.4137253 5.263139,0.420692 2.755899,0.00822 2.801421,1.08e-4 5.336612,-0.95037254 1.342884,-0.50346745 3.000852,-0.94629496 3.115127,-0.83202094 0.02648,0.02648269 0.04632,0.46022877 0.04408,0.96388008 -0.0037,0.8288284 -0.03903,1.0190652 -0.372484,2.0046325 -1.149033,3.3961002 -2.881699,5.6652285 -5.784164,7.5750371 -1.338279,0.880582 -1.439491,0.973731 -1.439491,1.324821 0,0.170792 0.268366,0.843362 0.666843,1.671222 0.366763,0.761973 1.159501,2.579733 1.76164,4.039467 1.31911,3.19785 1.353267,3.267848 1.843861,3.778665 0.502645,0.523363 1.045236,1.376141 1.333087,2.095179 0.350195,0.874771 0.512134,1.833217 0.601573,3.560444 0.142172,2.745595 -0.101332,4.737068 -0.782565,6.400115 -0.415014,1.013146 -0.893403,1.71318 -2.059661,3.013934 -1.216652,1.356962 -1.96869,2.300051 -2.20771,2.768569 -0.209412,0.410482 -0.733827,1.841847 -3.270728,8.927297 -1.493763,4.172011 -1.856579,5.096442 -2.312824,5.892916 -0.965213,1.684988 -1.557056,2.327111 -2.697016,2.926143 -1.203623,0.632486 -1.68167,0.707177 -4.619858,0.72182 -1.766926,0.0088 -2.673881,0.04635 -2.804194,0.116094 -0.334356,0.178942 -0.332002,0.537643 0.0123,1.874121 0.369109,1.43278 0.746304,2.273047 1.163066,2.590927 0.160678,0.122555 0.708311,0.407347 1.216963,0.632871 1.273651,0.564707 1.885725,0.879879 2.933485,1.510525 3.910371,2.353653 6.664121,5.530506 9.271456,10.695982 0.710294,1.407185 0.978944,2.072619 1.652653,4.093552 0.442467,1.32727 0.893483,2.818074 1.002258,3.312899 0.261667,1.190337 0.285534,2.823853 0.05258,3.598728 -0.81958,2.726177 -3.914408,4.331564 -10.134599,5.257139 -4.774635,0.710479 -12.976493,1.070495 -18.353512,0.80562 z M 26.89634,64.940659 c 1.643696,-0.613326 1.871721,-0.830502 1.77066,-1.686403 -0.06722,-0.569279 -1.090192,-4.699955 -1.283773,-5.183762 -0.250159,-0.625209 -0.499438,-0.756264 -1.846044,-0.97053 -3.366853,-0.535716 -4.334777,-0.553016 -4.435046,-0.07927 -0.02317,0.109493 -0.124781,0.952444 -0.225794,1.873223 -0.37463,3.414953 -0.173855,4.79397 0.833104,5.722153 0.655045,0.603799 1.196546,0.810754 2.402029,0.918026 0.766192,0.06818 1.33871,-0.05382 2.784864,-0.593436 z m 9.540779,-9.031736 c 0.591175,-0.134163 1.298259,-0.638986 1.661629,-1.186321 0.642052,-0.967106 3.312068,-7.846745 4.87293,-12.555728 0.612005,-1.846368 1.112738,-3.36826 1.112738,-3.381983 0,-0.01372 -0.221483,-0.07452 -0.492185,-0.135096 -1.163015,-0.260271 -2.111046,-0.99464 -2.638503,-2.043851 -0.503779,-1.00211 -0.646978,-1.837284 -0.885088,-5.16206 l -0.04832,-0.674761 -0.490108,-0.467474 c -1.00088,-0.954659 -2.003801,-1.337319 -3.312646,-1.263928 -1.100107,0.06169 -1.749365,0.314347 -2.346201,0.913032 -0.565252,0.567003 -0.770273,0.985398 -1.170161,2.38799 -1.427626,5.007353 -3.739153,6.872657 -7.366957,5.94482 -2.539585,-0.649516 -3.609295,-2.311084 -4.454111,-6.918518 -0.148584,-0.81034 -0.290076,-1.493269 -0.314426,-1.517619 -0.02435,-0.02435 -0.886306,0.141292 -1.915457,0.368096 -1.029149,0.226803 -2.236619,0.474185 -2.683264,0.549738 -0.446645,0.07555 -1.337331,0.259565 -1.9793,0.408917 -1.537851,0.357775 -2.598405,0.431178 -3.368447,0.233134 -0.7750819,-0.19934 -1.3177368,-0.563623 -2.0614322,-1.38383 L 7.9404352,29.342593 7.012471,29.443449 c -1.0799165,0.11737 -1.2854382,0.229465 -1.6143793,0.880508 -0.193109,0.382204 -0.2248237,0.56605 -0.2242359,1.299864 8.007e-4,0.994449 0.1890873,1.49431 0.7887818,2.094005 0.7620939,0.762094 1.4766715,0.922492 3.3176825,0.744702 l 0.7783259,-0.07516 0.144816,0.280045 c 0.117291,0.226813 0.161681,0.806401 0.233537,3.049162 0.242471,7.567987 0.468613,11.835616 0.660379,12.462292 0.284795,0.930691 0.975717,1.761889 1.796522,2.161266 0.852691,0.414891 5.980226,1.811945 8.297355,2.260706 2.629201,0.5092 7.775554,1.023269 13.4465,1.343168 1.065162,0.06009 1.409616,0.05337 1.799364,-0.03508 z m 9.580724,-19.218212 c 0.635687,-0.208781 1.389309,-0.977815 1.659801,-1.693746 0.224809,-0.595017 0.739447,-2.553632 1.18181,-4.497747 l 0.286599,-1.259555 -0.200875,-1.304538 c -0.329188,-2.137829 -0.613336,-3.502832 -0.816565,-3.922647 -0.687617,-1.420429 -3.083207,-1.852503 -4.209705,-0.759274 -1.213728,1.177883 -2.295115,5.406938 -2.141162,8.373586 0.06249,1.204249 0.343044,2.952892 0.564491,3.518434 0.600119,1.532608 1.966076,2.106953 3.675606,1.545487 z M 29.025516,36.548487 c 1.043635,-0.538057 1.300354,-1.117369 2.199136,-4.962563 0.325235,-1.391427 0.358801,-1.625639 0.244985,-1.709395 -0.0941,-0.06925 -0.149921,-0.3773 -0.19483,-1.075209 -0.199613,-3.102019 -1.368954,-5.183815 -3.806404,-6.776601 -1.509452,-0.986373 -2.245182,-0.998787 -3.089549,-0.05213 -0.875539,0.981602 -1.298417,2.047013 -1.723848,4.343111 -0.269623,1.455184 -0.267295,3.545643 0.0054,4.835703 0.366124,1.732152 1.097856,3.58776 1.747309,4.431021 0.658493,0.855002 1.786545,1.274887 3.302503,1.229264 0.716198,-0.02155 0.929338,-0.0642 1.315311,-0.263198 z m -14.10734,-7.305703 c 1.320386,-0.220956 2.825801,-0.464707 3.345368,-0.541669 2.24064,-0.331903 2.583287,-0.617502 2.843905,-2.370422 0.189962,-1.277682 0.438389,-2.109157 0.931862,-3.118899 0.744693,-1.523788 1.997503,-2.877166 3.151784,-3.404787 0.569175,-0.260171 1.571633,-0.249357 2.276525,0.02456 1.288443,0.500676 3.122997,2.101323 4.06534,3.547004 0.849993,1.304004 1.367669,2.814692 1.538299,4.489081 0.03404,0.334006 0.07074,0.607285 0.08156,0.607285 0.01082,0 0.602393,-0.219883 1.314607,-0.488629 2.097227,-0.791365 3.0596,-0.858139 4.663736,-0.323593 0.490891,0.163579 0.936594,0.26133 1.05549,0.23149 0.259602,-0.06516 0.401127,-0.347511 0.655906,-1.3086 0.702532,-2.650116 1.874503,-4.291209 3.731807,-5.225591 0.865651,-0.435498 0.944041,-0.497511 1.099738,-0.869988 0.109805,-0.262687 0.0984,-0.377755 -0.111445,-1.124602 -0.486151,-1.730216 -1.249502,-3.406453 -2.183541,-4.79482 -0.71254,-1.059126 -0.997976,-1.35516 -1.419496,-1.472199 -0.515458,-0.143121 -0.715646,-0.124667 -1.843078,0.169906 -3.854543,1.007105 -6.456513,1.22156 -10.022179,0.826029 -4.118989,-0.456908 -4.978458,-0.468929 -5.824781,-0.08147 -0.274848,0.125829 -1.28318,0.686318 -2.240738,1.245529 -0.957557,0.559212 -2.264937,1.254207 -2.905289,1.544435 -0.640351,0.290227 -1.436349,0.710229 -1.768886,0.933336 -2.280013,1.529723 -3.894551,3.693662 -4.622804,6.195868 -0.362612,1.245897 -0.49507,2.345728 -0.495658,4.11555 -4.49e-4,1.389704 0.01775,1.596935 0.14037,1.596935 0.07749,0 1.221215,-0.180781 2.541601,-0.401736 z m -4.336253,-2.259731 c 0.465151,-3.707854 1.794335,-6.454033 4.253547,-8.788104 1.437262,-1.364123 3.045245,-2.357469 5.722263,-3.53498 1.657608,-0.729115 2.397876,-1.23112 2.995132,-2.03112 0.388124,-0.519878 0.88968,-0.748464 1.635236,-0.745268 0.273801,0.0012 1.307533,0.10903 2.297183,0.239681 2.801269,0.369816 4.231201,0.455662 6.690349,0.401656 3.261754,-0.07163 5.323117,-0.447454 7.888502,-1.438207 2.672142,-1.031982 5.123374,-2.9213968 6.592469,-5.0814886 0.632126,-0.9294492 0.85408,-1.3797253 1.305204,-2.6478607 L 50.271707,2.4862183 50.064569,2.2916233 49.857433,2.0970284 49.287606,2.4116824 C 48.589833,2.7969867 47.61813,3.150466 46.603525,3.3880787 44.980319,3.7682212 41.231619,3.7027347 38.236483,3.2419138 36.33434,2.9492569 36.23079,2.9384854 33.828041,2.7833399 29.127855,2.4798491 25.874045,2.5153182 24.035307,2.8900887 22.324173,3.2388513 20.648714,3.9051326 19.42142,4.7248972 c -1.165084,0.7782115 -1.560662,1.3056824 -1.663763,2.2184872 -0.07315,0.6476779 -0.285675,1.0851665 -0.706733,1.4548601 -0.397327,0.3488582 -0.701872,0.4790482 -1.811425,0.7743675 -3.333616,0.887277 -5.5378164,3.146791 -6.4109443,6.571822 -0.3045178,1.194537 -0.624234,3.7045 -0.8641554,6.784135 -0.124924,1.603526 -0.2253574,3.162225 -0.2231855,3.463775 0.00643,0.893341 0.2734444,1.442586 0.8449784,1.738138 0.2311426,0.119529 1.7675278,0.484039 1.8275348,0.433586 0.01232,-0.01036 0.08801,-0.541816 0.168196,-1.181015 z"
     id="path30668" />
  <path
     style="fill:#000000;stroke-width:0.0899682"
     d="m 28.025093,49.182469 c -1.40201,-0.413313 -2.133938,-0.708854 -2.936852,-1.185856 -1.424324,-0.846176 -2.776129,-2.557445 -2.776129,-3.514341 0,-0.314535 0.05557,-0.42961 0.349289,-0.72333 0.610641,-0.610641 0.91618,-0.491027 1.577343,0.617504 0.987967,1.656461 2.563559,2.672755 5.000919,3.225707 1.66616,0.377994 2.403349,0.24469 2.600765,-0.47029 0.05761,-0.208628 0.07185,-0.917123 0.03763,-1.871521 -0.03028,-0.844689 -0.02469,-1.937986 0.01243,-2.429548 0.06097,-0.80732 0.09118,-0.917436 0.312453,-1.138707 0.283873,-0.283874 0.395622,-0.300408 2.863217,-0.423624 2.305485,-0.115121 2.269974,-0.06522 1.725471,-2.424549 -0.202722,-0.878395 -0.627875,-2.743532 -0.944784,-4.144751 -0.316909,-1.401218 -0.595342,-2.578645 -0.61874,-2.616505 -0.0234,-0.03786 0.192231,-0.356885 0.479177,-0.708945 l 0.52172,-0.64011 0.379781,0.386968 c 0.448921,0.457416 0.436391,0.414627 1.360304,4.645364 1.084427,4.965753 1.029841,4.649503 0.90427,5.23895 -0.147566,0.692689 -0.548951,1.206372 -1.204685,1.541727 -0.48112,0.246054 -0.623282,0.270245 -2.155372,0.366779 -0.908985,0.05727 -1.730055,0.151985 -1.841644,0.212435 -0.374077,0.202647 -0.380019,0.781644 -0.02461,2.398081 0.251912,1.145721 0.214063,1.874488 -0.123875,2.385147 -0.473482,0.715479 -2.194859,1.441246 -3.717974,1.567572 -0.532428,0.04416 -0.760132,0.0065 -1.78011,-0.294157 z"
     id="path30685" />
  <path
     style="fill:#000000;stroke-width:0.0899682"
     d="M 28.699854,49.341348 C 26.449966,48.683062 25.213716,48.1273 24.30387,47.365117 c -1.10773,-0.927953 -1.926326,-2.153894 -1.926326,-2.884892 0,-0.28815 0.06099,-0.424849 0.299176,-0.670599 0.5796,-0.597995 0.775572,-0.524104 1.512246,0.570191 0.543071,0.806706 1.249108,1.558283 1.842915,1.961786 1.100306,0.747677 2.95943,1.361864 4.384733,1.448557 l 0.862062,0.05243 0.307524,-0.274627 0.307525,-0.274627 0.04498,-2.594112 c 0.03337,-1.924539 0.07588,-2.648328 0.164686,-2.804158 0.204699,-0.35919 0.610769,-0.45074 2.477302,-0.558519 0.972347,-0.05615 1.876171,-0.131037 2.008498,-0.166427 0.132327,-0.03539 0.323374,-0.17522 0.424549,-0.310733 l 0.183955,-0.246386 -0.198778,-0.972589 c -0.109328,-0.534924 -0.542398,-2.464567 -0.962378,-4.288097 l -0.763601,-3.315508 0.465226,-0.611947 0.465226,-0.611946 0.345986,0.337846 c 0.445576,0.435093 0.508491,0.650319 1.466422,5.016451 0.822617,3.749386 0.937685,4.501313 0.767676,5.016445 -0.335527,1.01666 -1.201492,1.551144 -2.661248,1.642555 -1.541859,0.09655 -2.415658,0.224187 -2.585194,0.377615 -0.216207,0.195665 -0.208825,0.928622 0.0211,2.095156 0.369513,1.874726 0.21412,2.538248 -0.738663,3.154061 -1.089387,0.704104 -3.19638,1.158429 -4.11962,0.888301 z"
     id="path30687" />
  <path
     style="fill:#000000;stroke-width:0.0899682"
     d="m 28.137775,49.176745 c -2.0007,-0.600301 -3.115829,-1.152428 -4.07381,-2.017041 -1.054964,-0.952143 -1.80933,-2.239226 -1.687121,-2.878527 0.04776,-0.249849 0.661341,-0.871523 0.860175,-0.871523 0.228162,0 0.495753,0.274433 1.002319,1.027946 0.947548,1.40947 2.151506,2.306903 3.853035,2.872059 0.89271,0.29651 2.011984,0.508437 2.685269,0.508437 0.45666,0 0.568367,-0.03565 0.822267,-0.262385 l 0.293816,-0.262385 0.04498,-2.647906 c 0.04918,-2.894913 0.04224,-2.859064 0.598701,-3.091671 0.162323,-0.06785 1.009585,-0.160997 1.9793,-0.217596 0.932519,-0.05443 1.847418,-0.138061 2.03311,-0.185849 0.459426,-0.118235 0.64745,-0.42003 0.569091,-0.913441 -0.05,-0.314848 -1.612374,-7.23421 -1.803504,-7.987271 -0.047,-0.18519 0.03153,-0.345028 0.411031,-0.83662 l 0.469133,-0.607693 0.348593,0.340392 c 0.454388,0.443698 0.521396,0.671475 1.469282,4.994511 0.918951,4.191072 0.97054,4.611996 0.650843,5.310308 -0.440692,0.962596 -1.111019,1.275535 -3.036884,1.417752 -1.596537,0.117898 -2.028827,0.207771 -2.157706,0.448585 -0.141541,0.26447 -0.108978,0.977717 0.08844,1.937175 0.23843,1.158788 0.236983,2.009601 -0.0042,2.4824 -0.393794,0.7719 -2.239983,1.586008 -3.774443,1.664404 -0.656231,0.03353 -0.889152,0.0017 -1.641697,-0.224061 z"
     id="path30689" />
</svg>
