<?xml version="1.0" encoding="UTF-8" standalone="no"?>
<!-- Created with Inkscape (http://www.inkscape.org/) -->

<svg
   version="1.1"
   id="svg2"
   width="49.722839"
   height="88.156113"
   viewBox="0 0 49.722839 88.156111"
   sodipodi:docname="odde-dev-elements-v2.ai"
   xmlns:inkscape="http://www.inkscape.org/namespaces/inkscape"
   xmlns:sodipodi="http://sodipodi.sourceforge.net/DTD/sodipodi-0.dtd"
   xmlns="http://www.w3.org/2000/svg"
   xmlns:svg="http://www.w3.org/2000/svg">
  <defs
     id="defs6">
    <clipPath
       clipPathUnits="userSpaceOnUse"
       id="clipPath162">
      <path
         d="M 0,841.89 H 595.276 V 0 H 0 Z"
         id="path160" />
    </clipPath>
  </defs>
  <sodipodi:namedview
     id="namedview4"
     pagecolor="#ffffff"
     bordercolor="#000000"
     borderopacity="0.25"
     inkscape:showpageshadow="2"
     inkscape:pageopacity="0.0"
     inkscape:pagecheckerboard="0"
     inkscape:deskcolor="#d1d1d1"
     showgrid="false" />
  <g
     id="g10"
     inkscape:groupmode="layer"
     inkscape:label="Page 1"
     transform="matrix(1.3333333,0,0,-1.3333333,-288.27921,929.70892)">
    <g
       id="g156"
       transform="translate(-0.81975662,3.2790265)">
      <g
         id="g158"
         clip-path="url(#clipPath162)">
        <g
           id="g164"
           transform="translate(228.3105,639.7465)">
          <path
             d="m 0,0 c -1.278,0 -2.536,-0.714 -2.741,-1.699 -0.154,-0.742 -0.12,-1.526 -0.135,-2.292 -0.022,-1.061 -0.027,-2.123 -0.007,-3.184 0.006,-0.349 0.113,-0.696 0.175,-1.044 0.363,0.122 0.817,0.15 1.064,0.391 0.258,0.253 0.373,0.699 0.446,1.08 0.088,0.463 0.026,0.954 0.11,1.418 0.038,0.213 0.23,0.466 0.423,0.571 0.514,0.279 1.106,0.425 1.594,0.738 1.037,0.666 1.381,1.787 1.005,2.981 C 1.711,-0.334 1.089,0 0,0 M 9.175,-3.608 C 9.061,-3.011 9.002,-2.396 8.821,-1.821 8.462,-0.683 7.698,-0.315 6.543,-0.646 4.802,-1.144 3.312,-2.869 3.188,-4.704 3.119,-5.74 3.349,-6.787 4.314,-7.397 5.262,-7.995 6.249,-7.875 7.206,-7.3 c 1.398,0.841 1.886,2.13 1.969,3.692 M 6.344,10.541 C 6.363,10.225 6.394,10.008 6.384,9.793 6.334,8.677 6.276,7.537 5.371,6.733 4.999,6.403 4.915,6.104 5.024,5.671 5.102,5.363 5.131,5.041 5.23,4.741 5.696,3.332 6.311,2.03 7.81,1.423 8.67,1.075 9.738,1.198 10.137,1.794 c 0.398,0.596 0.704,1.262 0.979,1.927 0.175,0.423 0.199,0.872 -0.274,1.215 -0.15,0.109 -0.218,0.394 -0.239,0.606 -0.119,1.212 -0.23,2.426 -0.301,3.641 -0.024,0.42 -0.218,0.508 -0.578,0.582 -0.887,0.181 -1.762,0.421 -2.642,0.632 -0.211,0.05 -0.425,0.083 -0.738,0.144 M 2.431,33.442 C 2.405,32.236 2.756,30.915 3.293,30.031 4.07,28.753 6.007,27.98 7.604,28.313 c 1.55,0.323 2.397,1.314 2.619,3.066 C 10.481,33.421 9.56,35.04 7.67,35.881 7.53,35.944 7.424,36.08 7.29,36.159 6.332,36.724 5.321,37.035 4.255,36.524 2.91,35.88 2.427,34.708 2.431,33.442 m 17.368,-3.451 c 1.176,-0.014 2.2,0.401 2.774,1.412 0.584,1.031 1.077,2.177 0.184,3.343 -0.048,0.061 -0.059,0.172 -0.046,0.254 0.161,0.963 -0.29,1.576 -1.104,2.012 -0.448,0.24 -0.9,0.492 -1.298,0.805 -1.567,1.236 -3.733,0.78 -4.585,-1.049 -0.25,-0.535 -0.369,-1.185 -0.354,-1.778 0.071,-2.907 1.395,-4.965 4.429,-4.999 m 1.534,9.405 c -1.105,2.534 -2.995,4.332 -4.53,6.474 -0.134,-0.18 -0.246,-0.287 -0.304,-0.419 -0.593,-1.342 -1.525,-2.416 -2.659,-3.316 -1.215,-0.967 -2.615,-1.543 -4.141,-1.796 -0.219,-0.036 -0.558,0.008 -0.668,0.149 -0.107,0.137 -0.038,0.466 0.039,0.679 0.123,0.338 0.34,0.643 0.473,0.979 0.06,0.15 0.078,0.394 -0.006,0.502 C 9.463,42.742 9.21,42.752 9.055,42.717 7.652,42.402 6.414,41.78 5.386,40.75 4.987,40.351 4.561,39.968 4.097,39.649 3.508,39.243 3.138,39.426 2.981,40.133 2.947,40.287 2.941,40.448 2.926,40.605 2.854,41.36 2.61,41.473 1.982,41.039 1.058,40.401 0.691,39.435 0.439,38.404 0.208,37.461 0.077,36.481 -0.266,35.582 c -0.435,-1.143 -0.901,-1.26 -1.993,-0.76 -0.075,0.034 -0.166,0.032 -0.24,0.044 -0.618,-1.174 -0.206,-2.372 -0.18,-3.547 10e-4,-0.056 0.337,-0.175 0.496,-0.147 0.938,0.166 1.866,0.389 2.805,0.549 0.504,0.087 0.648,0.334 0.661,0.831 0.056,2.039 0.994,3.637 2.57,4.885 0.769,0.609 1.661,0.887 2.621,0.676 2.064,-0.453 3.902,-1.238 4.653,-3.478 0.059,-0.175 0.328,-0.418 0.472,-0.401 0.692,0.083 1.386,0.208 2.057,0.398 0.242,0.068 0.507,0.318 0.614,0.553 0.28,0.614 0.409,1.304 0.725,1.897 1.352,2.541 3.09,3.229 5.807,2.368 0.12,-0.038 0.254,-0.028 0.531,-0.054 M 10.491,11.157 c 2.774,-0.084 4.333,1.017 5.525,2.626 1.448,1.955 2.649,4.066 3.519,6.358 1.01,2.663 1.749,5.387 2.061,8.221 0.026,0.228 -0.059,0.468 -0.093,0.703 -0.209,-0.05 -0.427,-0.075 -0.623,-0.153 -1.297,-0.522 -2.584,-0.43 -3.849,0.08 -1.51,0.608 -2.266,1.825 -2.588,3.353 -0.109,0.517 -0.334,0.774 -0.891,0.614 -0.195,-0.056 -0.408,-0.049 -0.603,-0.106 -0.854,-0.249 -1.506,-0.595 -1.791,-1.619 -0.272,-0.972 -0.794,-1.951 -1.442,-2.729 -2.14,-2.567 -6.487,-2.056 -7.785,0.843 -0.476,1.064 -0.481,1.094 -1.636,0.9 -0.869,-0.145 -1.744,-0.318 -2.574,-0.601 -0.423,-0.145 -0.711,-0.226 -1.128,0.012 -0.208,0.118 -0.73,0.056 -0.856,-0.114 -0.643,-0.864 -0.057,-2.051 1.025,-2.179 0.852,-0.101 1.199,-0.397 1.439,-1.217 0.178,-0.609 0.341,-1.225 0.55,-1.825 0.855,-2.458 1.269,-5.07 2.619,-7.354 2.196,-3.72 5.595,-5.409 9.121,-5.813 m -15.437,4.19 c 0.999,-0.064 1.933,-0.2 2.859,-0.157 0.565,0.027 1.134,0.29 1.669,0.521 0.412,0.178 0.514,0.492 0.243,0.943 -0.277,0.463 -0.485,0.98 -0.646,1.498 -0.752,2.404 -1.489,4.813 -2.199,7.229 -0.127,0.434 -0.242,0.637 -0.765,0.601 -1.206,-0.084 -2.033,0.84 -1.859,2.041 0.157,1.074 0.532,2.053 1.351,2.834 0.194,0.185 0.272,0.537 0.317,0.826 0.18,1.138 0.288,2.289 0.505,3.419 0.076,0.402 0.352,0.784 0.596,1.133 0.319,0.459 0.726,0.588 1.211,0.18 0.156,-0.132 0.373,-0.191 0.56,-0.282 0.087,0.134 0.142,0.186 0.156,0.247 0.04,0.177 0.064,0.357 0.095,0.536 0.255,1.421 0.594,2.84 1.559,3.946 0.61,0.699 1.39,1.288 2.186,1.775 0.565,0.344 1.025,-0.004 1.138,-0.622 0.06,-0.332 0.192,-0.65 0.291,-0.975 0.283,0.209 0.568,0.416 0.848,0.629 0.072,0.055 0.128,0.128 0.193,0.192 1.161,1.153 2.563,1.875 4.145,2.232 0.365,0.083 0.973,0.095 1.119,-0.109 0.199,-0.281 0.103,-0.804 0.058,-1.215 -0.032,-0.293 -0.189,-0.572 -0.297,-0.874 0.159,-0.041 0.228,-0.082 0.286,-0.07 2.04,0.397 4.634,1.977 5.157,4.327 0.17,0.762 0.529,1.391 1.251,1.778 0.325,0.174 0.495,0.178 0.666,-0.221 0.237,-0.557 0.531,-1.104 0.887,-1.592 0.948,-1.304 1.984,-2.545 2.903,-3.868 0.604,-0.87 1.223,-1.801 1.132,-2.934 -0.079,-0.991 0.684,-1.439 1.127,-2.201 0.127,0.193 0.203,0.275 0.241,0.372 1.32,3.315 0.913,6.496 -0.977,9.434 -1.894,2.946 -4.791,4.104 -8.216,4.124 -0.469,0.002 -0.952,0.067 -1.404,0.192 -1.31,0.364 -2.594,0.831 -3.915,1.15 -1.925,0.464 -3.86,0.769 -5.863,0.323 -2.172,-0.482 -4.118,-1.443 -5.948,-2.638 -3.089,-2.019 -4.899,-4.967 -5.623,-8.526 -0.447,-2.192 -0.684,-4.439 -0.867,-6.672 -0.257,-3.12 0.291,-6.101 1.869,-8.861 0.845,-1.477 1.653,-2.979 2.393,-4.51 0.931,-1.921 1.25,-3.857 -0.267,-5.687 -0.065,-0.078 -0.074,-0.203 -0.165,-0.468 M 5.052,9.763 C 4.711,10.621 4.354,11.51 3.491,12.198 2.542,12.955 1.75,13.91 0.896,14.786 0.744,14.942 0.626,15.132 0.455,15.354 0.144,15.064 -0.076,14.74 -0.38,14.602 c -0.715,-0.326 -1.461,-0.753 -2.21,-0.789 -1.16,-0.054 -2.346,0.116 -3.496,0.326 -0.683,0.124 -0.774,0.511 -0.423,1.116 0.156,0.27 0.354,0.537 0.592,0.735 1.053,0.878 1.351,1.616 0.824,2.893 -0.665,1.61 -1.369,3.222 -2.249,4.72 -1.261,2.146 -2.209,4.379 -2.521,6.849 -0.125,0.986 -0.143,1.996 -0.109,2.991 0.109,3.091 0.353,6.18 1.368,9.125 1.656,4.807 4.753,8.287 9.451,10.43 3.507,1.599 6.984,1.551 10.562,0.544 0.959,-0.271 1.891,-0.635 2.847,-0.918 0.362,-0.107 0.755,-0.128 1.136,-0.146 1.733,-0.082 3.458,-0.232 5.028,-1.048 2.786,-1.448 4.547,-3.705 5.177,-6.796 0.198,-0.973 0.477,-1.98 0.401,-2.947 -0.092,-1.181 -0.516,-2.336 -0.804,-3.5 -0.043,-0.175 -0.106,-0.353 -0.196,-0.508 -0.621,-1.069 -0.763,-2.194 -0.7,-3.435 0.066,-1.287 -0.453,-2.481 -1.221,-3.543 -0.165,-0.228 -0.341,-0.516 -0.349,-0.782 -0.09,-2.774 -0.8,-5.412 -1.659,-8.027 C 19.98,18.577 18.363,15.54 16.223,12.802 15.09,11.353 13.665,10.209 11.777,9.84 11.284,9.744 11.117,9.384 11.165,9.004 11.192,8.791 11.513,8.506 11.748,8.449 12.15,8.352 12.591,8.418 13.014,8.397 c 0.625,-0.03 1.314,0.082 1.862,-0.143 3.071,-1.259 5.849,-2.933 8.12,-5.452 3.436,-3.811 1.536,-7.972 -1.239,-9.984 -0.728,-0.527 -1.544,-0.974 -2.381,-1.303 -5.379,-2.118 -10.905,-3.682 -16.747,-3.325 -4.518,0.276 -8.722,1.667 -12.35,4.507 -0.09,0.07 -0.171,0.151 -0.254,0.228 -1.485,1.396 -1.677,2.302 -0.713,4.094 2.772,5.15 6.737,9.019 12.21,11.246 0.462,0.188 0.898,0.436 1.358,0.63 0.679,0.286 1.368,0.548 2.172,0.868"
             style="fill:#231f20;fill-opacity:1;fill-rule:nonzero;stroke:none"
             id="path166" />
        </g>
        <g
           id="g168"
           transform="translate(244.0419,663.5532)">
          <path
             d="m 0,0 c 0.116,-1.575 -0.509,-2.431 -1.725,-2.77 -0.13,-0.037 -0.267,-0.083 -0.399,-0.077 -0.352,0.018 -0.779,-0.046 -1.032,0.13 -0.215,0.15 0.421,1.012 0.865,1.134 0.217,0.061 0.445,0.088 0.669,0.118 0.471,0.06 0.561,0.289 0.475,0.755 -0.245,1.334 -0.468,2.674 -0.606,4.022 -0.039,0.376 0.218,0.798 0.393,1.174 0.061,0.129 0.3,0.264 0.433,0.243 C -0.816,4.71 -0.689,4.478 -0.661,4.323 -0.533,3.632 -0.436,2.937 -0.332,2.243 -0.201,1.371 -0.074,0.498 0,0"
             style="fill:#231f20;fill-opacity:1;fill-rule:nonzero;stroke:none"
             id="path170" />
        </g>
        <g
           id="g172"
           transform="translate(244.5458,658.2236)">
          <path
             d="m 0,0 c -0.095,-1.081 -0.9,-1.862 -2.046,-2.146 -1.804,-0.445 -3.462,-0.037 -5.05,0.831 -0.473,0.258 -0.411,0.593 -0.163,0.961 0.235,0.349 0.405,0.805 0.992,0.466 1.054,-0.609 2.163,-1.036 3.415,-1.004 0.833,0.021 1.631,0.097 2.303,0.665 C -0.428,-0.124 -0.244,-0.097 0,0"
             style="fill:#231f20;fill-opacity:1;fill-rule:nonzero;stroke:none"
             id="path174" />
        </g>
        <g
           id="g176"
           transform="translate(248.3066,674.2841)">
          <path
             d="m 0,0 c -0.776,0.219 -1.594,0.018 -2.392,-0.375 -0.12,-0.059 -0.291,-0.013 -0.438,-0.016 0.01,0.165 -0.045,0.392 0.043,0.484 0.361,0.376 0.714,0.892 1.165,1.021 0.783,0.225 1.636,0.23 2.462,0.271 C 1.258,1.405 1.399,1.169 1.184,0.76 0.951,0.315 0.689,-0.062 0,0"
             style="fill:#231f20;fill-opacity:1;fill-rule:nonzero;stroke:none"
             id="path178" />
        </g>
        <g
           id="g180"
           transform="translate(248.5434,673.3232)">
          <path
             d="m 0,0 c -0.185,-0.325 -0.325,-0.666 -0.552,-0.935 -0.137,-0.162 -0.408,-0.212 -0.619,-0.313 -0.102,0.258 -0.328,0.542 -0.279,0.767 0.074,0.332 0.306,0.653 0.541,0.917 0.12,0.135 0.442,0.238 0.583,0.17 C -0.171,0.531 -0.12,0.242 0,0"
             style="fill:#231f20;fill-opacity:1;fill-rule:nonzero;stroke:none"
             id="path182" />
        </g>
        <g
           id="g184"
           transform="translate(232.1757,671.9286)">
          <path
             d="M 0,0 C -0.108,0.667 0.275,1.06 0.699,1.38 1.685,2.123 2.83,2.335 4.04,2.257 4.43,2.232 4.623,2.005 4.367,1.682 4.122,1.373 3.77,0.953 3.446,0.937 2.335,0.882 1.291,0.716 0.369,0.048 0.293,-0.007 0.16,0.018 0,0"
             style="fill:#231f20;fill-opacity:1;fill-rule:nonzero;stroke:none"
             id="path186" />
        </g>
        <g
           id="g188"
           transform="translate(235.9443,672.3906)">
          <path
             d="M 0,0 C 0.43,-0.614 0.155,-1.68 -0.499,-1.935 -0.894,-2.089 -1.233,-1.757 -1.165,-1.282 -1.093,-0.773 -0.583,-0.213 0,0"
             style="fill:#231f20;fill-opacity:1;fill-rule:nonzero;stroke:none"
             id="path190" />
        </g>
        <g
           id="g192"
           transform="translate(233.0234,635.6196)">
          <path
             d="M 0,0 C 0.307,0.551 0.491,1.072 0.833,1.452 1.375,2.052 2.298,1.835 2.463,1.041 2.62,0.286 2.646,-0.529 2.547,-1.295 2.453,-2.023 1.452,-2.232 0.874,-1.614 0.486,-1.199 0.307,-0.589 0,0"
             style="fill:#231f20;fill-opacity:1;fill-rule:nonzero;stroke:none"
             id="path194" />
        </g>
        <g
           id="g196"
           transform="translate(227.0771,636.6152)">
          <path
             d="M 0,0 C 0.176,0.535 -0.354,1.246 0.487,1.461 1.033,1.602 1.577,1.099 1.557,0.599 1.539,0.136 1.065,-0.062 0,0"
             style="fill:#231f20;fill-opacity:1;fill-rule:nonzero;stroke:none"
             id="path198" />
        </g>
      </g>
    </g>
  </g>
</svg>
