<?xml version="1.0" encoding="UTF-8" standalone="no"?>
<!-- Created with Inkscape (http://www.inkscape.org/) -->

<svg
   version="1.1"
   id="svg2"
   width="54.685425"
   height="86.665527"
   viewBox="0 0 54.685424 86.665526"
   sodipodi:docname="g1224.svg"
   inkscape:version="1.2.2 (b0a84865, 2022-12-01)"
   xmlns:inkscape="http://www.inkscape.org/namespaces/inkscape"
   xmlns:sodipodi="http://sodipodi.sourceforge.net/DTD/sodipodi-0.dtd"
   xmlns="http://www.w3.org/2000/svg"
   xmlns:svg="http://www.w3.org/2000/svg">
  <defs
     id="defs6">
    <clipPath
       clipPathUnits="userSpaceOnUse"
       id="clipPath3851">
      <g
         id="g3855"
         transform="translate(-245.2719,-194.6044)">
        <path
           d="M 0,841.89 H 595.276 V 0 H 0 Z"
           id="path3853" />
      </g>
    </clipPath>
    <clipPath
       clipPathUnits="userSpaceOnUse"
       id="clipPath3857">
      <g
         id="g3861"
         transform="translate(-233.8363,-192.7128)">
        <path
           d="M 0,841.89 H 595.276 V 0 H 0 Z"
           id="path3859" />
      </g>
    </clipPath>
    <clipPath
       clipPathUnits="userSpaceOnUse"
       id="clipPath3863">
      <g
         id="g3867"
         transform="translate(-242.0414,-181.914)">
        <path
           d="M 0,841.89 H 595.276 V 0 H 0 Z"
           id="path3865" />
      </g>
    </clipPath>
    <clipPath
       clipPathUnits="userSpaceOnUse"
       id="clipPath3869">
      <g
         id="g3873"
         transform="translate(-238.6957,-185.0888)">
        <path
           d="M 0,841.89 H 595.276 V 0 H 0 Z"
           id="path3871" />
      </g>
    </clipPath>
    <clipPath
       clipPathUnits="userSpaceOnUse"
       id="clipPath3875">
      <g
         id="g3879"
         transform="translate(-230.3725,-175.6513)">
        <path
           d="M 0,841.89 H 595.276 V 0 H 0 Z"
           id="path3877" />
      </g>
    </clipPath>
  </defs>
  <sodipodi:namedview
     id="namedview4"
     pagecolor="#ffffff"
     bordercolor="#000000"
     borderopacity="0.25"
     inkscape:showpageshadow="2"
     inkscape:pageopacity="0.0"
     inkscape:pagecheckerboard="0"
     inkscape:deskcolor="#d1d1d1"
     showgrid="false"
     inkscape:zoom="10.512695"
     inkscape:cx="17.788018"
     inkscape:cy="31.247935"
     inkscape:window-width="1352"
     inkscape:window-height="753"
     inkscape:window-x="1391"
     inkscape:window-y="125"
     inkscape:window-maximized="0"
     inkscape:current-layer="g874" />
  <g
     id="g874"
     inkscape:groupmode="layer"
     inkscape:label="Page 2"
     transform="matrix(1.3333333,0,0,-1.3333333,-279.89938,284.33523)">
    <g
       id="g1224"
       transform="translate(230.3725,175.6513)"
       clip-path="url(#clipPath3875)"
       style="fill:#000000">
      <path
         d="m 0,0 c -0.056,-1.04 -0.12,-2.115 -0.161,-3.191 -0.004,-0.104 0.114,-0.285 0.206,-0.308 1.082,-0.27 2.168,-0.524 3.26,-0.753 0.081,-0.018 0.256,0.176 0.31,0.305 0.341,0.8 0.701,1.596 0.959,2.425 0.071,0.227 -0.146,0.773 -0.305,0.805 C 2.884,-0.435 1.481,-0.236 0,0 M 13.922,29.611 C 12.51,27.229 10.308,26.073 7.959,25.255 6.091,24.604 4.085,24.355 2.192,23.764 c -1.537,-0.481 -3.014,-1.168 -4.48,-1.847 -0.43,-0.199 -0.778,-0.563 -0.581,-1.268 0.587,-2.1 1.139,-4.217 1.551,-6.357 C -0.717,11.169 -0.999,8.14 -2.566,5.281 -2.763,4.924 -2.698,4.221 -2.464,3.876 -2.076,3.307 -1.52,2.774 -0.915,2.445 1.053,1.378 3.151,0.702 5.422,0.631 c 2.175,-0.069 4.3,0.117 6.305,1.037 3.1,1.422 4.335,4.064 4.671,7.259 0.517,4.894 0.228,9.776 -0.361,14.643 -0.255,2.109 -0.707,4.177 -2.115,6.041 M -17.264,5.045 c 0.22,-0.207 0.482,-0.556 0.827,-0.762 2.758,-1.649 5.611,-2.517 8.849,-1.381 2.12,0.744 3.932,1.801 4.479,4.076 0.404,1.683 0.713,3.496 0.528,5.192 -0.303,2.771 -1.068,5.49 -1.575,8.242 -0.079,0.434 0.032,1.036 0.295,1.376 1.247,1.619 3.03,2.446 4.935,2.978 2.227,0.621 4.52,1.019 6.718,1.722 2.312,0.74 4.546,1.699 5.283,4.424 0.119,0.442 0.591,0.786 0.901,1.176 0.378,-0.322 0.889,-0.571 1.116,-0.979 1.014,-1.829 1.906,-3.717 2.177,-5.834 0.054,-0.427 0.181,-0.845 0.276,-1.268 0.098,-0.018 0.196,-0.034 0.295,-0.051 0.306,0.549 0.696,1.067 0.902,1.65 1.149,3.245 -0.154,7.619 -2.855,9.765 -0.992,0.788 -2.022,0.962 -3.289,0.625 C 10.784,35.514 8.922,35.132 7.057,34.949 5.214,34.768 3.341,34.863 1.481,34.878 c -4.461,0.037 -8.28,-1.593 -11.559,-4.523 -3.122,-2.791 -4.678,-6.237 -3.929,-10.483 0.282,-1.602 0.775,-3.168 1.12,-4.761 0.637,-2.94 0.684,-5.829 -1.533,-8.188 -0.74,-0.787 -1.842,-1.234 -2.844,-1.878 M 0.412,-27.399 c -2.969,0.374 -17.092,1.703 -16.76,6.23 0.505,6.904 3.368,11.113 6.062,13.808 2.046,2.046 5.432,4.002 8.065,5.207 0.311,0.141 0.615,0.531 0.707,0.866 0.153,0.552 0.19,1.155 0.152,1.729 -0.016,0.241 -0.324,0.486 -0.54,0.684 -0.57,0.522 -1.236,0.96 -1.723,1.547 -0.403,0.487 -0.67,0.517 -1.218,0.247 -1.135,-0.559 -2.292,-1.107 -3.495,-1.48 -3.688,-1.141 -6.933,-0.1 -9.876,2.201 -0.591,0.462 -1.195,0.915 -1.734,1.432 -0.25,0.241 -0.576,0.737 -0.484,0.926 0.175,0.355 0.593,0.678 0.981,0.812 0.374,0.128 0.845,0.052 1.258,-0.019 2.549,-0.441 3.813,1.13 4.194,3.631 0.38,2.496 -0.429,4.873 -1.054,7.222 -1.275,4.798 -0.15,8.937 3.223,12.438 3.688,3.829 8.139,6.131 13.586,6.191 2.541,0.03 5.087,0.044 7.621,0.216 1.152,0.078 2.311,0.435 3.412,0.821 1.746,0.612 3.239,0.246 4.497,-1.005 2.953,-2.94 4.008,-6.454 2.772,-10.475 -0.323,-1.047 -1.17,-1.926 -1.73,-2.908 -0.253,-0.443 -0.56,-0.952 -0.555,-1.428 0.038,-3.197 0.248,-6.394 0.21,-9.589 C 17.955,9.359 17.662,6.812 16.32,4.539 14.511,1.473 11.682,-0.018 8.285,-0.611 7.836,-0.689 7.355,-0.644 6.929,-0.779 6.59,-0.888 6.124,-1.135 6.046,-1.413 5.903,-1.922 5.942,-2.433 6.669,-2.724 c 5.759,-2.307 8.451,-6.668 10.797,-12.242 0.67,-1.59 1.184,-3.295 1.043,-5.13 -0.106,-1.378 -0.723,-2.299 -1.799,-3.065 -5.181,-3.696 -9.651,-4.238 -16.298,-4.238"
         style="fill:#000000;fill-opacity:1;fill-rule:nonzero;stroke:none"
         id="path1226" />
    </g>
    <g
       id="g1228"
       transform="translate(238.6957,185.0888)"
       clip-path="url(#clipPath3869)"
       style="fill:#000000">
      <path
         d="M 0,0 C 0.151,1.046 0.635,1.37 1.554,1.342 2.994,1.297 3.146,1.561 2.654,2.933 2.204,4.187 1.667,5.416 1.298,6.693 1.197,7.038 1.531,7.538 1.755,7.914 1.791,7.974 2.493,7.825 2.56,7.648 3.168,6.035 3.771,4.413 4.24,2.755 4.607,1.454 3.879,0.199 2.698,0.025 1.845,-0.101 0.957,0 0,0"
         style="fill:#000000;fill-opacity:1;fill-rule:nonzero;stroke:none"
         id="path1230" />
    </g>
    <g
       id="g1232"
       transform="translate(242.0414,181.914)"
       clip-path="url(#clipPath3863)"
       style="fill:#000000">
      <path
         d="m 0,0 c -0.211,-0.296 -0.37,-0.656 -0.643,-0.876 -1.324,-1.072 -4.094,-1.17 -5.432,-0.157 -0.315,0.237 -0.612,0.721 -0.614,1.095 -0.005,0.671 0.797,0.983 1.249,0.529 1.219,-1.229 2.629,-1.04 4.086,-0.615 0.382,0.111 0.767,0.218 1.151,0.328 C -0.136,0.203 -0.067,0.102 0,0"
         style="fill:#000000;fill-opacity:1;fill-rule:nonzero;stroke:none"
         id="path1234" />
    </g>
    <g
       id="g1236"
       transform="translate(233.8363,192.7128)"
       clip-path="url(#clipPath3857)"
       style="fill:#000000">
      <path
         d="M 0,0 C -0.093,0.136 -0.372,0.367 -0.409,0.632 -0.483,1.177 0.357,2.012 0.922,1.938 1.155,1.908 1.477,1.599 1.534,1.362 1.662,0.833 0.842,0.028 0,0"
         style="fill:#000000;fill-opacity:1;fill-rule:nonzero;stroke:none"
         id="path1238" />
    </g>
    <g
       id="g1240"
       transform="translate(245.2719,194.6044)"
       clip-path="url(#clipPath3851)"
       style="fill:#000000">
      <path
         d="m 0,0 c -0.569,-0.474 -0.995,-0.862 -1.472,-1.171 -0.051,-0.033 -0.551,0.382 -0.592,0.631 -0.091,0.552 0.725,1.393 1.206,1.274 C -0.608,0.673 -0.417,0.371 0,0"
         style="fill:#000000;fill-opacity:1;fill-rule:nonzero;stroke:none"
         id="path1242" />
    </g>
    <path
       style="fill:#000000;fill-opacity:0.991525;stroke:#cccccc;stroke-width:1.02824;stroke-linejoin:bevel"
       d="M 9.5278182,46.105146 C 7.7213917,45.439647 5.2331701,44.145932 4.9839004,43.742607 4.8699918,43.5583 5.5611009,42.899877 6.5196985,42.279447 10.706538,39.569618 11.599515,35.42568 9.6763376,27.630796 9.0414046,25.057332 8.6977586,22.647212 8.6877384,20.697378 8.6740511,18.033878 8.8059271,17.437353 9.8995546,15.215879 11.984759,10.980227 17.031026,6.7066489 21.88048,5.0694836 24.711405,4.1137693 28.21244,3.6869994 33.234026,3.6855065 c 3.003122,-8.924e-4 5.707146,-0.2537015 8.489513,-0.793714 2.245533,-0.4358221 4.514598,-0.6840265 5.042366,-0.5515652 0.527767,0.1324612 1.562623,0.8438849 2.29968,1.5809415 3.117951,3.1179504 4.360411,8.8529132 2.700645,12.4656572 l -0.822775,1.790901 -0.673362,-2.835565 C 49.559575,12.350109 47.848027,8.5637733 46.820603,7.7110859 45.967778,7.0033036 45.169438,7.5811357 44.190774,9.6145326 c -0.878208,1.8246804 -2.589881,3.4424424 -4.480372,4.2345564 -0.679462,0.284695 -3.709697,1.167169 -6.733854,1.961055 -6.364731,1.670834 -8.078762,2.360658 -9.951723,4.005139 -1.684997,1.479447 -1.717263,2.165862 -0.397927,8.465321 1.064942,5.084794 1.205826,8.257436 0.513491,11.563505 -0.372392,1.778263 -0.753932,2.493962 -1.977584,3.7096 -2.723157,2.705327 -8.047826,3.872973 -11.6349868,2.551437 z"
       id="path56566"
       transform="matrix(0.75000002,0,0,-0.75000002,209.92454,213.25143)" />
    <path
       style="fill:#000000;fill-opacity:0.991525;stroke:#cccccc;stroke-width:1.02824;stroke-linejoin:bevel"
       d="M 24.420583,86.062684 C 15.903792,84.955609 9.5234769,83.084522 7.0900609,80.980346 5.7665835,79.835935 5.6961865,79.666405 5.7702132,77.801895 5.894995,74.659028 6.9240127,70.9583 8.7142107,67.214192 c 1.4345393,-3.000266 2.1222323,-3.9317 5.0158873,-6.793696 2.578229,-2.55002 4.142914,-3.741175 6.768719,-5.152861 4.592716,-2.469138 4.853928,-2.696135 5.075265,-4.410475 0.17721,-1.372558 0.0732,-1.578462 -1.645732,-3.25801 -2.071738,-2.024272 -2.082798,-2.024962 -5.934236,-0.370058 -3.119548,1.340421 -7.323734,1.629275 -9.8490755,0.676696 C 6.2039826,47.173604 3.3794598,45.422967 1.4689072,43.767931 0.39162459,42.834723 0.2495893,42.545977 0.59127618,41.983774 0.91808271,41.446055 1.4813285,41.309616 3.4310611,41.295878 5.5723294,41.280785 5.9893778,41.157834 6.9184283,40.267749 9.0335449,38.241337 9.3726833,34.181535 7.9002488,28.514443 6.6575613,23.731599 6.44273,21.488874 6.9788764,18.895805 7.9069911,14.406983 11.003521,10.054047 15.572519,6.8153227 21.085574,2.9074054 23.521794,2.2437404 33.784867,1.85399 39.532128,1.6357319 42.11743,1.3926899 43.287128,0.96069097 c 3.343123,-1.23470343 5.692732,-0.61852343 7.867479,2.06323263 1.942556,2.3954345 2.905337,4.6009947 3.107421,7.1185494 0.282879,3.524073 -0.139256,5.323919 -1.856294,7.914645 l -1.540245,2.32397 0.120079,8.07899 c 0.163277,10.985524 -0.508491,13.983567 -4.032635,17.997345 -1.255074,1.429449 -5.56916,3.724282 -7.593582,4.039322 -2.64953,0.412323 -4.022163,0.923635 -4.187133,1.559727 -0.287896,1.11006 0.10319,1.577235 2.0472,2.445499 2.674068,1.194332 6.027631,3.853913 7.880764,6.249932 3.708348,4.794726 6.881045,12.453017 6.593844,15.916293 -0.135929,1.639132 -0.376242,2.167222 -1.51856,3.337064 -1.758164,1.80052 -6.292494,4.201115 -9.780517,5.178063 -1.526007,0.427415 -4.391791,0.854478 -6.426469,0.95768 -2.019747,0.102445 -4.168024,0.234136 -4.773949,0.292646 -0.605924,0.05851 -2.754201,-0.108423 -4.773948,-0.370965 z m 8.396326,-31.817199 c 0.775018,-2.029358 0.761534,-3.104095 -0.04192,-3.340773 -1.332774,-0.392605 -5.316192,-1.001064 -5.48017,-0.837086 -0.09401,0.09401 -0.200789,1.20861 -0.237289,2.47689 l -0.06636,2.305964 1.65252,0.447947 c 3.042422,0.8247 3.500255,0.709185 4.173219,-1.052942 z m 6.89646,-5.199755 c 5.745972,-1.21789 8.503394,-4.16519 9.469803,-10.121899 0.566289,-3.490477 0.476326,-12.673038 -0.179376,-18.308441 -0.544528,-4.679916 -1.403842,-7.910153 -2.504828,-9.41584 -0.477465,-0.652972 -0.604981,-0.589323 -2.294915,1.145474 -2.210459,2.269145 -4.868667,3.55423 -10.1762,4.91959 -5.512701,1.418138 -10.184734,3.18634 -10.723815,4.058593 -0.125895,0.203702 0.319044,2.553839 0.988752,5.222526 1.64589,6.558622 1.697333,10.988237 0.170693,14.697914 -1.24952,3.03629 -1.099993,3.921145 0.908477,5.376072 3.465805,2.510616 9.292199,3.496216 14.341409,2.426011 z M 18.059504,46.283273 c 2.43663,-0.911662 4.817281,-3.109783 5.506213,-5.084042 0.793155,-2.272921 0.603809,-8.822366 -0.40929,-14.157309 -0.805712,-4.242847 -0.842239,-4.820634 -0.359166,-5.681289 0.946039,-1.685486 3.589662,-2.907267 10.685131,-4.938258 7.905549,-2.262865 9.229002,-3.001318 11.203107,-6.251044 1.334017,-2.196031 1.342522,-2.2021291 1.977597,-1.417845 0.900859,1.1125121 2.8383,5.892922 3.13153,7.726684 0.1493,0.933679 0.512021,1.682803 0.9207,1.901522 0.569459,0.304764 0.80238,0.117051 1.497492,-1.206827 0.663054,-1.26283 0.824351,-2.17479 0.829349,-4.689153 C 53.047418,9.8364386 52.893811,9.0309978 52.026568,7.1609228 50.853583,4.6315681 49.167014,2.7017652 47.50619,1.988632 46.532558,1.5705676 45.823979,1.5788712 42.915855,2.0424243 41.02442,2.3439181 36.467429,2.7462526 32.789205,2.9365011 25.005168,3.3391143 22.180037,3.9059771 18.586553,5.7862647 14.988067,7.6691699 10.692647,11.91967 9.2001917,15.074467 c -0.9624585,2.034475 -1.1206635,2.789278 -1.1209121,5.347927 -1.686e-4,1.731999 0.3840322,4.866148 0.9177773,7.486844 1.6074311,7.892512 1.2785531,9.730067 -2.3660927,13.220165 -1.3709697,1.312836 -2.4168225,2.598585 -2.3241168,2.857223 0.1927173,0.537656 3.2478226,2.167266 5.4246631,2.893545 1.9557015,0.6525 5.7073705,0.383601 8.3279935,-0.596898 z"
       id="path56628"
       transform="matrix(0.75000002,0,0,-0.75000002,209.92454,213.25143)" />
    <path
       style="fill:#000000;fill-opacity:0.991525;stroke:#cccccc;stroke-width:1.02824;stroke-linejoin:bevel"
       d="m 36.208552,43.523993 c -1.403713,-0.499653 -2.039619,-1.080837 -2.050835,-1.874352 -0.01165,-0.823978 0.513462,-0.853513 1.736446,-0.09767 1.082586,0.669075 1.623191,0.749797 3.799545,0.567339 2.688708,-0.225412 3.221893,0.113638 1.527502,0.971328 -1.631007,0.825604 -3.465197,0.984173 -5.012658,0.433352 z"
       id="path56947"
       transform="matrix(0.75000002,0,0,-0.75000002,209.92454,213.25143)" />
    <path
       style="fill:#000000;fill-opacity:0.991525;stroke:#cccccc;stroke-width:1.02824;stroke-linejoin:bevel"
       d=""
       id="path56949"
       transform="matrix(0.75000002,0,0,-0.75000002,209.92454,213.25143)" />
    <path
       style="fill:#000000;fill-opacity:0.991525;stroke:#cccccc;stroke-width:1.02824;stroke-linejoin:bevel"
       d="m 38.558815,37.134873 c 0,-0.588901 0.90543,-1.085158 2.204835,-1.208448 1.705275,-0.161799 1.810719,-1.037404 0.543384,-4.512218 -1.019214,-2.794507 -1.08314,-4.05581 -0.205561,-4.05581 0.689867,0 3.028195,6.96785 2.733013,8.14395 -0.120129,0.478633 -0.566808,1.114264 -0.99262,1.412515 -0.828334,0.580187 -4.283051,0.757649 -4.283051,0.220011 z"
       id="path56951"
       transform="matrix(0.75000002,0,0,-0.75000002,209.92454,213.25143)" />
    <path
       style="fill:#000000;fill-opacity:0.991525;stroke:#cccccc;stroke-width:0.266345;stroke-linejoin:bevel"
       d="m 31.633268,26.982198 c -0.133456,-0.174971 -0.242429,-0.421102 -0.242161,-0.546958 0.0013,-0.622252 1.031178,-1.608114 1.679872,-1.608114 0.250405,0 0.792841,0.620342 0.792841,0.906711 0,0.517408 -0.624181,1.189423 -1.361697,1.46605 -0.434979,0.163153 -0.612249,0.118738 -0.868855,-0.217689 z"
       id="path57024"
       transform="matrix(0.75000002,0,0,-0.75000002,209.92454,213.25143)" />
    <path
       style="fill:#000000;fill-opacity:0.991525;stroke:#cccccc;stroke-width:0.266345;stroke-linejoin:bevel"
       d="m 44.745901,26.025677 c -0.334581,-0.334581 -0.38668,-0.544158 -0.234667,-0.943983 0.135804,-0.357193 0.635189,-0.881173 1.008759,-1.058444 0.319883,-0.151795 0.349504,-0.150394 0.641502,0.03033 0.168374,0.104213 0.434551,0.324838 0.591504,0.490279 l 0.285369,0.300801 -0.380492,0.334097 c -0.534511,0.469335 -1.447501,1.170335 -1.524257,1.170335 -0.03536,0 -0.209837,-0.145538 -0.387718,-0.323419 z"
       id="path57026"
       transform="matrix(0.75000002,0,0,-0.75000002,209.92454,213.25143)" />
  </g>
</svg>
