<?xml version="1.0" encoding="UTF-8" standalone="no"?>
<!-- Created with Inkscape (http://www.inkscape.org/) -->

<svg
   version="1.1"
   id="svg2"
   width="131.1748"
   height="77.423462"
   viewBox="0 0 131.1748 77.423461"
   xmlns="http://www.w3.org/2000/svg"
   xmlns:svg="http://www.w3.org/2000/svg">
  <defs
     id="defs6">
    <clipPath
       clipPathUnits="userSpaceOnUse"
       id="clipPath26">
      <path
         d="M 0,841.89 H 595.276 V 0 H 0 Z"
         id="path24" />
    </clipPath>
    <clipPath
       clipPathUnits="userSpaceOnUse"
       id="clipPath326">
      <path
         d="M 0,841.89 H 595.276 V 0 H 0 Z"
         id="path324" />
    </clipPath>
  </defs>
  <g
     id="g10"
     transform="matrix(1.3333333,0,0,-1.3333333,-421.62055,910.55753)">
    <g
       id="g20">
      <g
         id="g22"
         clip-path="url(#clipPath26)">
        <g
           id="g28"
           transform="translate(123.9003,776.3246)">
          <path
             d="m 0,0 c -0.214,-0.052 -0.432,-0.079 -0.63,-0.157 -1.215,-0.476 -2.401,-1.042 -3.642,-1.43 -2.114,-0.661 -4.304,-1.092 -6.386,-1.831 -7.637,-2.713 -15.487,-4.651 -23.35,-6.542 -1.304,-0.313 -2.479,-0.64 -3.1,-2.025 -0.267,-0.598 -0.849,-1.057 -1.287,-1.578 1.186,0.092 2.258,0.353 3.332,0.607 2.438,0.578 4.91,1.039 7.308,1.752 4.884,1.453 9.726,3.049 14.59,4.569 3.831,1.196 7.676,2.341 11.499,3.559 C -0.263,-2.629 0.258,-1.591 0,0 m -4.312,31.759 c -0.442,-0.09 -0.803,-0.148 -1.156,-0.237 -4.389,-1.113 -8.1,-2.2 -12.477,-3.359 -2.698,-0.714 -5.351,-1.599 -8.052,-2.302 -6.035,-1.571 -12.092,-3.065 -18.132,-4.617 -1.751,-0.45 -1.733,-0.493 -1.573,-2.302 0.447,-5.051 1.018,-10.097 1.295,-15.158 0.268,-4.893 1.104,-12.355 1.909,-14.618 0.603,-1.697 2.785,-2.645 4.325,-0.924 0.468,0.524 0.886,1.118 1.212,1.741 0.386,0.74 0.914,1.147 1.73,1.359 6.504,1.689 13.016,3.354 19.491,5.153 3.538,0.984 7.009,2.208 10.503,3.346 0.214,0.07 0.516,0.349 0.514,0.526 -0.024,1.623 -0.06,3.249 -0.181,4.867 -0.322,4.287 -0.129,-0.583 0.071,9.137 0.103,5.042 0.346,10.08 0.517,15.121 0.025,0.73 0.004,1.463 0.004,2.267 M -3.079,0.68 c 1.191,0.421 2.364,0.854 3.55,1.247 0.856,0.284 1.105,0.126 1.126,-0.78 0.042,-1.809 -0.581,-3.287 -1.86,-4.667 -1.88,-2.027 -4.441,-2.276 -6.801,-3.04 -3.601,-1.166 -7.249,-2.185 -10.871,-3.282 -4.439,-1.344 -8.856,-2.76 -13.314,-4.035 -2.293,-0.656 -4.649,-1.101 -6.989,-1.581 -0.688,-0.141 -1.42,-0.121 -2.129,-0.091 -0.668,0.027 -1.24,0.278 -1.672,0.873 -0.514,0.709 -1.314,1.263 -1.655,2.033 -0.561,1.263 -0.89,2.635 -1.249,3.979 -0.775,2.91 -0.47,0.862 -0.654,6.472 -0.116,3.556 -0.372,7.11 -0.64,10.66 -0.243,3.232 -0.584,6.456 -0.888,9.683 -0.056,0.595 -0.182,1.186 -0.201,1.782 -0.041,1.295 0.815,2.338 2.07,2.674 3.106,0.831 6.198,1.716 9.311,2.523 3.996,1.037 8.012,1.995 12.008,3.034 2.338,0.608 4.644,1.34 6.98,1.955 4.321,1.138 7.968,2.235 12.297,3.342 1.852,0.475 1.894,0.466 1.819,-1.478 C -3.039,26.83 -3.327,21.679 -3.479,16.524 -3.615,11.936 -3.398,4.069 -3.079,0.68"
             style="fill:#231f20;fill-opacity:1;fill-rule:nonzero;stroke:none"
             id="path30" />
        </g>
        <g
           id="g32"
           transform="translate(91.4594,787.6303)">
          <path
             d="m 0,0 c -0.684,-0.111 -0.867,0.135 -0.6,0.755 0.281,0.65 0.682,1.122 1.409,1.308 3.149,0.808 6.299,1.619 9.441,2.471 3.777,1.023 7.545,2.093 11.32,3.129 0.317,0.087 0.653,0.066 0.981,0.096 C 22.476,7.422 22.501,7.004 22.303,6.766 21.943,6.332 21.488,5.802 21.006,5.664 16.828,4.468 12.636,3.341 8.445,2.212 5.812,1.502 3.172,0.826 0.535,0.134 0.344,0.084 0.153,0.039 0,0"
             style="fill:#231f20;fill-opacity:1;fill-rule:nonzero;stroke:none"
             id="path34" />
        </g>
        <g
           id="g36"
           transform="translate(91.3017,780.4799)">
          <path
             d="m 0,0 c -0.079,0.215 -0.291,0.48 -0.235,0.704 0.209,0.845 0.761,1.356 1.639,1.569 3.033,0.736 6.063,1.493 9.088,2.279 1.623,0.421 3.233,0.922 4.851,1.373 0.239,0.066 0.49,0.057 0.736,0.084 C 16.065,5.737 16.158,5.381 16.018,5.209 15.617,4.719 15.167,4.042 14.654,3.9 9.924,2.589 5.176,1.377 0.434,0.135 0.37,0.119 0.308,0.096 0,0"
             style="fill:#231f20;fill-opacity:1;fill-rule:nonzero;stroke:none"
             id="path38" />
        </g>
        <g
           id="g40"
           transform="translate(90.29,792.9838)">
          <path
             d="M 0,0 C 0.282,1.433 0.625,1.768 1.865,2.048 5.21,2.806 8.554,3.579 11.896,4.368 12.516,4.514 12.76,4.267 12.482,3.751 12.198,3.224 11.755,2.481 11.303,2.369 7.649,1.469 3.977,0.694 0.309,-0.111 0.231,-0.128 0.142,-0.054 0,0"
             style="fill:#231f20;fill-opacity:1;fill-rule:nonzero;stroke:none"
             id="path42" />
        </g>
        <g
           id="g44"
           transform="translate(92.1293,773.039)">
          <path
             d="m 0,0 c -0.078,1.255 0.485,2.007 1.709,2.317 2.479,0.629 4.959,1.245 7.439,1.868 0.19,0.048 0.377,0.13 0.568,0.168 0.363,0.07 0.729,0.121 1.094,0.18 C 10.702,4.108 10.716,3.575 10.457,3.282 10.081,2.859 9.533,2.459 9.011,2.315 6.479,1.615 3.933,1.003 1.391,0.36 0.928,0.243 0.467,0.121 0,0"
             style="fill:#231f20;fill-opacity:1;fill-rule:nonzero;stroke:none"
             id="path46" />
        </g>
        <g
           id="g48"
           transform="translate(85.7001,770.6953)">
          <path
             d="M 0,0 C -0.15,0.186 -0.587,0.473 -0.65,0.857 -0.788,1.7 0.307,3.028 1.105,3.135 1.771,3.224 2.007,2.834 2.016,2.25 2.03,1.305 1.119,0.124 0,0"
             style="fill:#231f20;fill-opacity:1;fill-rule:nonzero;stroke:none"
             id="path50" />
        </g>
        <g
           id="g52"
           transform="translate(85.8178,778.8989)">
          <path
             d="m 0,0 c -0.131,0.195 -0.501,0.495 -0.546,0.867 -0.095,0.775 0.947,2.07 1.6,2.086 C 1.695,2.969 1.906,2.526 1.91,1.954 1.915,1.073 1.088,0.087 0,0"
             style="fill:#231f20;fill-opacity:1;fill-rule:nonzero;stroke:none"
             id="path54" />
        </g>
        <g
           id="g56"
           transform="translate(84.8295,786.8735)">
          <path
             d="M 0,0 C 0.027,1.1 0.752,2.104 1.389,2.131 1.935,2.155 2.307,1.921 2.274,1.311 2.23,0.484 1.344,-0.592 0.702,-0.511 0.389,-0.471 0.147,-0.114 0,0"
             style="fill:#231f20;fill-opacity:1;fill-rule:nonzero;stroke:none"
             id="path58" />
        </g>
        <g
           id="g60"
           transform="translate(86.539,793.8979)">
          <path
             d="m 0,0 c -0.027,-1.028 -0.831,-2.257 -1.328,-2.17 -0.276,0.047 -0.622,0.412 -0.653,0.693 -0.089,0.82 0.78,1.921 1.432,1.867 C -0.299,0.369 -0.099,0.075 0,0"
             style="fill:#231f20;fill-opacity:1;fill-rule:nonzero;stroke:none"
             id="path62" />
        </g>
        <g
           id="g64"
           transform="translate(517.0727,301.5107)">
          <path
             d="m 0,0 c -0.214,-0.052 -0.433,-0.079 -0.63,-0.157 -1.215,-0.476 -2.4,-1.042 -3.642,-1.43 -2.114,-0.661 -4.304,-1.092 -6.386,-1.831 -7.637,-2.713 -15.487,-4.651 -23.35,-6.542 -1.304,-0.313 -2.479,-0.64 -3.099,-2.025 -0.268,-0.599 -0.849,-1.056 -1.288,-1.578 1.186,0.091 2.258,0.353 3.332,0.607 2.437,0.578 4.91,1.039 7.308,1.752 4.884,1.452 9.726,3.049 14.591,4.568 3.829,1.197 7.676,2.342 11.498,3.56 C -0.263,-2.629 0.258,-1.591 0,0 m -4.312,31.759 c -0.442,-0.09 -0.803,-0.148 -1.156,-0.238 -4.389,-1.113 -8.1,-2.2 -12.477,-3.358 -2.698,-0.714 -5.351,-1.599 -8.051,-2.302 -6.036,-1.572 -12.093,-3.064 -18.134,-4.618 -1.75,-0.449 -1.732,-0.492 -1.572,-2.301 0.447,-5.051 1.017,-10.097 1.295,-15.159 0.268,-4.892 1.104,-12.354 1.909,-14.618 0.603,-1.696 2.785,-2.644 4.324,-0.924 0.47,0.525 0.887,1.119 1.212,1.742 0.387,0.74 0.915,1.147 1.731,1.359 6.504,1.688 13.016,3.353 19.491,5.153 3.538,0.984 7.01,2.207 10.503,3.346 0.214,0.07 0.516,0.348 0.513,0.526 -0.023,1.623 -0.059,3.249 -0.18,4.867 -0.322,4.287 -0.128,-0.583 0.071,9.136 0.104,5.042 0.346,10.081 0.518,15.121 0.024,0.731 0.003,1.463 0.003,2.268 M -3.079,0.68 c 1.191,0.421 2.364,0.853 3.55,1.247 C 1.327,2.211 1.576,2.053 1.598,1.146 1.64,-0.662 1.017,-2.14 -0.263,-3.52 c -1.88,-2.027 -4.441,-2.276 -6.801,-3.041 -3.6,-1.165 -7.249,-2.184 -10.872,-3.281 -4.437,-1.344 -8.855,-2.76 -13.313,-4.035 -2.293,-0.656 -4.648,-1.101 -6.988,-1.58 -0.689,-0.142 -1.421,-0.121 -2.129,-0.093 -0.669,0.028 -1.24,0.279 -1.672,0.873 -0.515,0.709 -1.315,1.264 -1.656,2.033 -0.561,1.264 -0.89,2.636 -1.248,3.981 -0.776,2.908 -0.471,0.86 -0.655,6.471 -0.116,3.556 -0.373,7.11 -0.639,10.66 -0.244,3.231 -0.585,6.456 -0.889,9.683 -0.056,0.595 -0.182,1.186 -0.201,1.782 -0.04,1.295 0.814,2.338 2.07,2.673 3.107,0.832 6.198,1.716 9.311,2.524 3.996,1.037 8.012,1.996 12.008,3.034 2.338,0.607 4.644,1.34 6.98,1.955 4.321,1.138 7.968,2.235 12.297,3.343 1.852,0.474 1.894,0.465 1.819,-1.479 -0.198,-5.154 -0.486,-10.304 -0.638,-15.46 -0.135,-4.587 0.081,-12.454 0.4,-15.843"
             style="fill:#231f20;fill-opacity:1;fill-rule:nonzero;stroke:none"
             id="path66" />
        </g>
        <g
           id="g68"
           transform="translate(484.6323,312.8163)">
          <path
             d="m 0,0 c -0.684,-0.111 -0.868,0.135 -0.601,0.755 0.282,0.65 0.682,1.122 1.41,1.308 3.149,0.808 6.298,1.619 9.441,2.47 3.776,1.024 7.545,2.094 11.319,3.129 0.318,0.087 0.654,0.067 0.981,0.097 C 22.476,7.422 22.501,7.004 22.303,6.766 21.942,6.332 21.487,5.802 21.006,5.664 16.827,4.468 12.636,3.341 8.445,2.212 5.812,1.502 3.172,0.825 0.534,0.135 0.344,0.084 0.152,0.038 0,0"
             style="fill:#231f20;fill-opacity:1;fill-rule:nonzero;stroke:none"
             id="path70" />
        </g>
        <g
           id="g72"
           transform="translate(484.4741,305.6659)">
          <path
             d="m 0,0 c -0.078,0.215 -0.291,0.479 -0.235,0.703 0.209,0.847 0.76,1.357 1.639,1.569 3.033,0.738 6.063,1.494 9.088,2.28 1.623,0.421 3.233,0.922 4.852,1.373 0.237,0.066 0.489,0.057 0.735,0.084 -0.014,-0.273 0.079,-0.628 -0.06,-0.8 C 15.616,4.719 15.167,4.042 14.654,3.899 9.924,2.589 5.177,1.377 0.434,0.135 0.37,0.118 0.308,0.096 0,0"
             style="fill:#231f20;fill-opacity:1;fill-rule:nonzero;stroke:none"
             id="path74" />
        </g>
        <g
           id="g76"
           transform="translate(483.4623,318.1698)">
          <path
             d="m 0,0 c 0.281,1.433 0.625,1.768 1.865,2.048 3.346,0.758 6.689,1.531 10.031,2.319 0.621,0.147 0.865,-0.1 0.586,-0.616 C 12.198,3.224 11.756,2.48 11.303,2.369 7.649,1.469 3.977,0.694 0.309,-0.111 0.23,-0.128 0.142,-0.054 0,0"
             style="fill:#231f20;fill-opacity:1;fill-rule:nonzero;stroke:none"
             id="path78" />
        </g>
        <g
           id="g80"
           transform="translate(485.3022,298.2245)">
          <path
             d="M 0,0 C -0.079,1.256 0.485,2.007 1.709,2.317 4.187,2.946 6.668,3.563 9.147,4.186 9.338,4.233 9.524,4.315 9.716,4.353 10.079,4.424 10.444,4.475 10.81,4.534 10.701,4.108 10.716,3.575 10.456,3.282 10.08,2.859 9.532,2.459 9.011,2.315 6.479,1.615 3.932,1.004 1.391,0.36 0.928,0.243 0.466,0.121 0,0"
             style="fill:#231f20;fill-opacity:1;fill-rule:nonzero;stroke:none"
             id="path82" />
        </g>
        <g
           id="g84"
           transform="translate(478.8725,295.8808)">
          <path
             d="M 0,0 C -0.15,0.187 -0.587,0.473 -0.65,0.857 -0.788,1.7 0.307,3.028 1.105,3.135 1.771,3.224 2.007,2.835 2.017,2.251 2.03,1.306 1.119,0.124 0,0"
             style="fill:#231f20;fill-opacity:1;fill-rule:nonzero;stroke:none"
             id="path86" />
        </g>
        <g
           id="g88"
           transform="translate(478.9907,304.0849)">
          <path
             d="M 0,0 C -0.131,0.194 -0.502,0.495 -0.547,0.867 -0.642,1.643 0.4,2.937 1.054,2.953 1.695,2.969 1.906,2.526 1.909,1.953 1.914,1.073 1.088,0.087 0,0"
             style="fill:#231f20;fill-opacity:1;fill-rule:nonzero;stroke:none"
             id="path90" />
        </g>
        <g
           id="g92"
           transform="translate(478.0014,312.0595)">
          <path
             d="M 0,0 C 0.027,1.1 0.753,2.104 1.39,2.131 1.936,2.154 2.308,1.921 2.274,1.311 2.23,0.484 1.345,-0.593 0.702,-0.511 0.39,-0.471 0.147,-0.114 0,0"
             style="fill:#231f20;fill-opacity:1;fill-rule:nonzero;stroke:none"
             id="path94" />
        </g>
        <g
           id="g96"
           transform="translate(479.7114,319.0839)">
          <path
             d="M 0,0 C -0.027,-1.028 -0.831,-2.257 -1.328,-2.171 -1.604,-2.122 -1.95,-1.759 -1.98,-1.478 -2.07,-0.657 -1.2,0.444 -0.549,0.39 -0.299,0.369 -0.099,0.075 0,0"
             style="fill:#231f20;fill-opacity:1;fill-rule:nonzero;stroke:none"
             id="path98" />
        </g>
      </g>
    </g>
    <g
       id="g320">
      <g
         id="g322"
         clip-path="url(#clipPath326)">
        <g
           id="g328"
           transform="translate(393.7475,655.5922)">
          <path
             d="m 0,0 c 0.101,-0.24 0.211,-0.381 0.213,-0.524 0.019,-1.504 -1.282,-2.589 -2.731,-2.289 -0.185,0.039 -0.372,0.077 -0.56,0.102 -0.449,0.059 -0.575,-0.135 -0.491,-0.572 0.376,-1.967 1.279,-3.364 3.331,-4.094 2.99,-1.064 3.817,-2.094 3.166,-4.819 -0.115,-0.484 0.132,-0.808 0.6,-0.688 0.75,0.191 1.488,0.466 2.185,0.802 0.186,0.09 0.347,0.573 0.276,0.803 -0.545,1.792 -0.17,2.673 1.176,3.978 1.254,1.215 2.281,2.666 3.381,4.035 0.339,0.423 0.31,0.82 -0.244,1.134 C 9.961,-1.938 9.706,-1.594 9.399,-1.333 9.096,-1.075 8.811,-0.738 8.454,-0.608 7.486,-0.254 6.787,0.271 6.675,1.378 6.646,1.663 6.504,1.937 6.406,2.213 6.188,2.83 5.879,3.429 5.767,4.063 5.633,4.829 5.285,5.294 4.532,5.461 3.025,5.793 2.453,6.772 2.822,8.305 c 0.15,0.623 0.254,1.264 0.306,1.903 0.106,1.306 -0.863,2.532 -2.076,3 -0.61,0.236 -1.101,0.796 -1.623,1.236 -0.412,0.348 -0.744,0.851 -1.212,1.042 C -1.942,15.552 -2.41,14.883 -2.725,14.539 -2.813,14.441 -2.876,14.31 -2.92,14.183 -3.534,12.391 -4.057,10.561 -4.786,8.817 -5.224,7.769 -5.921,6.809 -6.616,5.896 -7.129,5.224 -7.176,5.035 -6.379,4.771 -5.44,4.458 -4.85,3.832 -4.673,2.88 -4.515,2.03 -4.444,1.163 -4.366,0.3 -4.285,-0.595 -3.944,-0.932 -3.078,-1.07 -1.881,-1.26 -0.914,-0.797 0,0 m 4.381,-30.738 c -4.162,0.031 -7.635,0.482 -10.882,2.075 -1.296,0.636 -1.858,1.65 -1.83,3.059 0.051,2.461 0.855,4.671 2.036,6.785 0.66,1.181 1.213,2.43 1.949,3.561 1.115,1.71 2.816,2.741 4.616,3.614 0.29,0.141 0.675,0.25 0.817,0.492 0.244,0.414 0.409,0.916 0.437,1.39 0.01,0.161 -0.475,0.443 -0.771,0.514 -3.386,0.815 -4.886,3.282 -5.607,6.401 -0.395,1.711 -0.661,3.451 -1.046,5.164 -0.076,0.333 -0.393,0.646 -0.665,0.894 -0.73,0.665 -1.551,1.236 -2.226,1.948 -0.48,0.507 -0.334,1.158 0.219,1.576 1.98,1.495 2.581,3.743 3.299,5.93 0.237,0.72 0.431,1.455 0.671,2.174 0.124,0.372 0.192,0.689 -0.268,0.867 -2.258,0.874 -2.315,3.199 -1.429,5.007 0.648,1.323 1.595,2.314 3.191,2.46 0.192,0.017 0.426,0.237 0.535,0.424 1.251,2.157 3.234,1.976 4.811,1.446 0.49,-0.164 0.78,-0.113 1.136,0.254 1.763,1.812 3.781,1.772 5.487,0.421 0.89,-0.704 1.592,-0.737 2.557,-0.777 0.879,-0.037 1.799,-0.364 2.596,-0.77 0.86,-0.437 1.09,-1.282 0.838,-2.246 -0.307,-1.172 -0.312,-1.249 0.792,-1.594 1.544,-0.484 1.667,-1.73 1.855,-3.016 0.051,-0.346 0.272,-0.85 0.541,-0.952 2.241,-0.849 2.273,-3.446 1.192,-5.182 -0.36,-0.577 -0.298,-0.852 0.26,-1.234 1.532,-1.046 1.769,-2.824 0.7,-4.357 C 19.985,5.293 19.794,4.801 19.897,4.502 20.351,3.188 19.721,2.325 18.848,1.505 18.36,1.048 17.839,0.607 17.447,0.075 16.687,-0.961 15.762,-1.552 14.433,-1.504 13.239,-1.462 12.925,-1.708 12.591,-2.896 11.964,-5.132 10.706,-6.81 8.58,-7.849 7.992,-8.136 7.466,-8.65 7.066,-9.177 6.878,-9.426 6.894,-10.122 7.101,-10.32 c 0.507,-0.488 1.138,-0.903 1.793,-1.171 1.769,-0.723 3.529,-1.453 4.765,-2.989 1.457,-1.811 2.571,-3.836 3.252,-6.052 0.426,-1.385 0.653,-2.841 0.852,-4.28 0.055,-0.404 -0.183,-1.033 -0.5,-1.269 -1.169,-0.866 -2.363,-1.746 -3.666,-2.374 -3.087,-1.486 -6.353,-2.35 -9.216,-2.283"
             style="fill:#231f20;fill-opacity:1;fill-rule:nonzero;stroke:none"
             id="path330" />
        </g>
        <g
           id="g332"
           transform="translate(327.1205,676.2026)">
          <path
             d="m 0,0 c -1.403,-0.116 -2.235,-0.39 -3.351,-1.246 -1.062,-0.817 -1.331,-2.167 -0.607,-3.26 1.051,-1.584 2.65,-2.265 4.442,-2.546 2.063,-0.325 3.073,-1.284 3.325,-3.376 0.028,-0.233 0.416,-0.599 0.642,-0.603 1.125,-0.017 1.975,-0.418 2.36,-1.509 0.382,-1.085 -0.013,-1.962 -0.874,-2.665 -0.492,-0.402 -0.62,-0.929 -0.307,-1.454 0.635,-1.065 1.267,-2.143 2.028,-3.116 0.738,-0.944 1.257,-0.846 1.477,0.315 0.393,2.068 0.85,4.172 0.832,6.257 -0.019,1.951 -0.488,3.932 -0.995,5.837 C 8.261,-4.694 6.518,-2.702 4.29,-1.106 3.174,-0.306 1.992,0.21 0,0 m -5.331,-5.55 c -0.141,-0.35 -0.296,-0.677 -0.405,-1.019 -0.659,-2.064 -1.179,-4.187 -2.809,-5.786 -0.541,-0.531 -0.483,-0.736 0.27,-0.973 1.194,-0.376 1.725,-1.219 1.839,-2.404 0.069,-0.703 0.151,-1.404 0.215,-2.107 0.075,-0.82 0.523,-1.3 1.336,-1.345 0.937,-0.052 1.847,0.002 2.537,0.793 0.088,0.102 0.345,0.102 0.51,0.073 0.073,-0.013 0.157,-0.213 0.161,-0.331 0.049,-1.412 -1.224,-2.53 -2.61,-2.302 -0.214,0.035 -0.429,0.073 -0.638,0.13 -0.471,0.131 -0.63,-0.089 -0.525,-0.506 0.157,-0.631 0.284,-1.287 0.562,-1.866 0.41,-0.853 0.928,-1.607 1.947,-1.938 0.917,-0.298 1.785,-0.768 2.64,-1.227 1.202,-0.645 1.656,-1.617 1.478,-2.975 -0.049,-0.376 -0.17,-0.76 -0.129,-1.126 0.023,-0.207 0.312,-0.547 0.478,-0.545 0.917,0.009 1.78,0.276 2.424,0.96 0.149,0.158 0.17,0.568 0.08,0.796 -0.48,1.217 -0.26,2.285 0.601,3.23 0.946,1.04 1.901,2.073 2.88,3.082 0.519,0.536 0.478,0.886 -0.113,1.379 -1.369,1.144 -2.457,2.525 -3.086,4.226 -0.428,1.164 -0.499,2.105 0.664,2.863 0.558,0.364 0.654,0.938 0.402,1.515 -0.265,0.607 -0.832,0.526 -1.345,0.419 -1.317,-0.272 -1.263,-0.225 -1.523,1.065 -0.42,2.084 -0.283,2.828 -3.087,3.234 -0.731,0.106 -1.485,0.367 -2.12,0.741 -0.879,0.517 -1.655,1.207 -2.634,1.944 M 11.577,-14 c -0.23,-2.211 -0.336,-4.03 -0.626,-5.819 -0.406,-2.509 -1.49,-4.626 -3.857,-5.902 -0.588,-0.317 -1.086,-0.805 -1.614,-1.229 -0.689,-0.555 -0.769,-1.226 -0.051,-1.762 0.679,-0.509 1.476,-0.916 2.282,-1.191 3.342,-1.14 5.184,-3.712 6.505,-6.753 0.59,-1.36 1.046,-2.787 1.442,-4.217 0.212,-0.769 0.231,-1.608 0.226,-2.415 -0.005,-0.92 -0.809,-1.334 -1.438,-1.741 -5.119,-3.309 -10.704,-4.403 -16.728,-3.507 -1.919,0.286 -3.767,0.734 -5.545,1.497 -1.971,0.847 -2.668,2.129 -2.386,4.271 0.284,2.159 1.067,4.131 2.114,6.014 0.695,1.249 1.29,2.571 2.121,3.722 1.117,1.545 2.72,2.541 4.455,3.316 0.316,0.141 0.707,0.298 0.868,0.566 0.218,0.364 0.33,0.842 0.321,1.269 -0.003,0.168 -0.432,0.413 -0.701,0.478 -3.046,0.739 -4.772,2.765 -5.489,5.703 -0.5,2.048 -0.856,4.13 -1.313,6.188 -0.051,0.23 -0.313,0.466 -0.537,0.595 -0.871,0.501 -1.77,0.949 -2.274,1.895 -0.31,0.58 -0.43,1.103 0.165,1.59 2.101,1.724 2.772,4.193 3.48,6.655 0.663,2.306 1.531,4.514 3.971,5.54 3.166,1.331 6.156,1.009 9.011,-0.956 2.775,-1.912 4.423,-4.509 4.921,-7.808 0.32,-2.112 0.484,-4.247 0.677,-5.999"
             style="fill:#231f20;fill-opacity:1;fill-rule:nonzero;stroke:none"
             id="path334" />
        </g>
        <g
           id="g336"
           transform="translate(369.8539,666.9247)">
          <path
             d="m 0,0 c -0.068,0.01 -0.138,0.02 -0.206,0.029 0,0.299 0.007,0.597 -0.003,0.895 -0.004,0.106 -0.013,0.251 -0.08,0.309 -0.24,0.21 -0.518,0.569 -0.762,0.554 -2.592,-0.162 -4.781,0.825 -6.711,2.401 -1.612,1.316 -3.102,2.784 -4.644,4.186 -0.686,0.624 -1.002,0.619 -1.305,-0.228 -0.526,-1.476 -1.033,-2.973 -1.366,-4.5 -0.524,-2.401 -0.452,-4.841 -0.273,-7.29 0.193,-2.622 0.881,-5.061 2.273,-7.285 0.916,-1.464 2.219,-2.371 3.999,-2.42 0.625,-0.017 0.857,-0.361 0.963,-0.893 0.206,-1.033 -0.05,-1.99 -0.475,-2.922 -0.448,-0.982 0.496,-2.843 1.555,-3.043 0.199,-0.037 0.442,-0.011 0.629,0.071 0.795,0.347 1.316,1.969 1.091,2.809 -0.277,1.028 -0.475,2.099 -0.519,3.16 -0.026,0.639 0.193,1.352 0.927,1.684 1.886,0.857 3.092,2.39 3.532,4.317 C -0.761,-5.479 -0.444,-2.725 0,0 m -10.748,-15.266 c -1.03,0.71 -2.194,1.206 -2.913,2.072 -1.432,1.724 -2.431,3.818 -2.687,6.02 -0.339,2.914 -0.689,5.851 -0.19,8.833 0.42,2.51 1.052,4.913 2.164,7.189 0.869,1.777 1.198,1.772 2.526,0.301 2.034,-2.252 4.134,-4.456 6.787,-6 1.569,-0.913 3.241,-1.336 5.038,-0.556 0.934,0.405 1.157,0.287 1.07,-0.714 -0.246,-2.832 -0.461,-5.676 -0.92,-8.477 -0.354,-2.156 -1.22,-4.148 -3.105,-5.53 -0.788,-0.579 -1.251,-1.449 -1.354,-2.419 -0.038,-0.356 0.183,-0.992 0.433,-1.079 0.929,-0.327 1.919,-0.489 2.891,-0.682 0.12,-0.024 0.312,0.107 0.411,0.219 0.946,1.064 2.137,1.151 3.429,0.906 0.746,-0.141 1.495,-0.293 2.25,-0.363 0.853,-0.079 1.347,0.309 1.197,1.112 -0.285,1.534 0.323,2.619 1.381,3.605 0.619,0.577 0.658,1.333 0.222,2.011 -0.36,0.56 -0.826,1.081 -1.339,1.508 C 4.726,-5.798 3.646,-3.857 3.29,-1.563 2.726,2.061 1.905,5.615 0.696,9.075 c -0.676,1.937 -1.801,3.592 -3.813,4.293 -2.327,0.811 -4.764,1.064 -7.227,0.798 -2.326,-0.251 -4.325,-1.128 -5.76,-3.083 -1.179,-1.605 -1.653,-3.446 -1.942,-5.364 -0.278,-1.841 -0.937,-3.631 -3.208,-3.945 -0.289,-0.04 -0.554,-0.225 -0.84,-0.304 -0.819,-0.228 -1.093,-0.799 -0.891,-1.556 0.129,-0.48 0.372,-0.958 0.67,-1.358 0.402,-0.54 0.94,-0.978 1.358,-1.508 1.005,-1.274 1.027,-2.926 -0.616,-3.767 -0.454,-0.233 -0.908,-0.513 -1.272,-0.865 -0.426,-0.413 -0.918,-0.99 -0.553,-1.558 0.193,-0.3 0.896,-0.37 1.37,-0.372 0.743,-0.003 1.466,-0.027 1.835,-0.758 0.385,-0.763 -0.126,-1.342 -0.581,-1.895 -0.086,-0.104 -0.215,-0.183 -0.274,-0.298 -0.256,-0.499 -0.602,-0.984 -0.714,-1.516 -0.209,-0.995 0.628,-1.602 1.576,-1.21 0.401,0.166 0.785,0.373 1.186,0.538 1.925,0.792 3.103,0.43 3.8,-1.156 0.379,-0.86 0.542,-0.902 1.411,-0.467 0.349,0.174 0.753,0.414 1.103,0.374 0.815,-0.094 1.384,0.294 1.938,0.636 m -3.816,-2.751 c -1.006,0.309 -1.623,0.819 -1.903,1.752 -0.21,0.704 -0.838,0.702 -1.423,0.535 -0.387,-0.112 -0.747,-0.32 -1.118,-0.488 -1.48,-0.67 -2.684,-0.497 -3.566,0.513 -0.743,0.851 -0.764,2.519 -0.053,3.681 0.19,0.313 0.363,0.637 0.59,1.034 -0.365,0.057 -0.599,0.103 -0.835,0.129 -2.394,0.264 -2.639,2.373 -1.402,3.959 0.383,0.492 0.964,0.87 1.522,1.178 1.128,0.624 1.325,1.47 0.436,2.417 -0.929,0.99 -1.93,1.901 -2.081,3.387 -0.143,1.397 0.133,2.024 1.404,2.592 0.593,0.265 1.21,0.488 1.835,0.659 0.961,0.264 1.301,0.921 1.403,1.846 0.36,3.264 1.441,6.203 3.85,8.567 0.912,0.895 1.985,1.434 3.183,1.694 3.084,0.669 6.187,0.793 9.284,0.043 2.64,-0.639 4.42,-2.308 5.29,-4.823 C 2.585,8.537 2.931,6.276 3.733,4.186 4.349,2.583 4.338,0.977 4.512,-0.653 c 0.283,-2.648 1.489,-4.798 3.64,-6.465 1.788,-1.385 1.836,-3.54 0.231,-5.142 -0.539,-0.538 -0.701,-1.117 -0.622,-1.835 0.247,-2.251 -1.146,-3.337 -3.326,-2.731 -0.921,0.256 -1.923,0.245 -2.892,0.285 -0.234,0.01 -0.564,-0.208 -0.689,-0.418 -0.07,-0.115 0.154,-0.468 0.316,-0.65 2.881,-3.222 4.427,-6.975 4.476,-11.307 0.023,-1.948 -0.698,-2.354 -2.232,-2.633 -3.906,-0.71 -7.846,-1.058 -11.826,-0.887 -3.064,0.132 -6.025,0.692 -8.879,1.813 -0.202,0.08 -0.404,0.16 -0.611,0.226 -1.49,0.474 -1.493,0.643 -1.246,2.242 0.538,3.505 2.281,6.456 4.099,9.387 0.14,0.226 0.288,0.448 0.485,0.751"
             style="fill:#231f20;fill-opacity:1;fill-rule:nonzero;stroke:none"
             id="path338" />
        </g>
        <g
           id="g340"
           transform="translate(392.5053,665.4531)">
          <path
             d="m 0,0 c -0.333,-0.532 -0.61,-1.145 -1.041,-1.617 -0.393,-0.429 -0.952,-0.18 -0.829,0.364 0.172,0.761 0.574,1.475 0.919,2.189 0.044,0.089 0.446,0.137 0.49,0.072 C -0.289,0.756 -0.195,0.452 0,0"
             style="fill:#231f20;fill-opacity:1;fill-rule:nonzero;stroke:none"
             id="path342" />
        </g>
        <g
           id="g344"
           transform="translate(321.7739,667.1835)">
          <path
             d="M 0,0 C 0.255,0.394 0.475,0.734 0.694,1.075 1.024,0.844 1.482,0.683 1.653,0.367 1.891,-0.074 2.051,-0.646 1.996,-1.134 1.914,-1.868 1.263,-2.028 0.797,-1.452 0.472,-1.05 0.286,-0.536 0,0"
             style="fill:#231f20;fill-opacity:1;fill-rule:nonzero;stroke:none"
             id="path346" />
        </g>
        <g
           id="g348"
           transform="translate(359.2162,667.4589)">
          <path
             d="m 0,0 c 0.397,-0.809 -0.032,-1.616 -0.083,-2.422 -0.016,-0.238 -0.146,-0.465 -0.199,-0.703 -0.263,-1.177 -0.262,-1.185 0.928,-1.42 0.472,-0.094 0.556,-0.349 0.406,-0.767 -0.358,-0.992 -2.036,-1.32 -2.726,-0.499 -0.141,0.168 -0.16,0.507 -0.119,0.748 0.21,1.226 0.413,2.457 0.711,3.664 0.132,0.533 0.481,1.012 0.732,1.516 C -0.233,0.078 -0.116,0.039 0,0"
             style="fill:#231f20;fill-opacity:1;fill-rule:nonzero;stroke:none"
             id="path350" />
        </g>
        <g
           id="g352"
           transform="translate(360.3764,655.8832)">
          <path
             d="m 0,0 c -0.291,0.083 -0.782,0.157 -1.216,0.357 -0.908,0.42 -1.016,1.31 -0.233,1.928 0.17,0.134 0.584,0.154 0.769,0.04 C 0.629,1.516 1.614,1.66 2.546,2.861 2.612,2.946 2.646,3.078 2.73,3.123 2.882,3.203 3.096,3.313 3.216,3.26 3.32,3.213 3.398,2.947 3.374,2.796 3.182,1.613 1.355,0.028 0,0"
             style="fill:#231f20;fill-opacity:1;fill-rule:nonzero;stroke:none"
             id="path354" />
        </g>
        <g
           id="g356"
           transform="translate(357.7133,669.9453)">
          <path
             d="m 0,0 c 0.003,-0.822 -0.602,-1.697 -1.013,-1.581 -0.258,0.074 -0.657,0.561 -0.607,0.654 0.275,0.51 0.671,0.954 1.024,1.421 C -0.361,0.299 -0.126,0.105 0,0"
             style="fill:#231f20;fill-opacity:1;fill-rule:nonzero;stroke:none"
             id="path358" />
        </g>
        <g
           id="g360"
           transform="translate(361.4594,670.6274)">
          <path
             d="M 0,0 C 0.657,-0.782 0.373,-1.957 -0.354,-2.162 -0.478,-2.197 -0.878,-1.807 -0.849,-1.734 -0.623,-1.168 -0.322,-0.632 0,0"
             style="fill:#231f20;fill-opacity:1;fill-rule:nonzero;stroke:none"
             id="path362" />
        </g>
      </g>
    </g>
  </g>
</svg>
